<svg width="25" height="25" viewBox="0 0 25 25" fill="none" xmlns="http://www.w3.org/2000/svg">
<g clip-path="url(#clip0_73_6967)">
<path d="M12.7109 5.21777C11.7827 5.21777 10.8924 5.58652 10.2361 6.2429C9.57969 6.89928 9.21094 7.78952 9.21094 8.71777C9.21094 9.64603 9.57969 10.5363 10.2361 11.1926C10.8924 11.849 11.7827 12.2178 12.7109 12.2178C13.6392 12.2178 14.5294 11.849 15.1858 11.1926C15.8422 10.5363 16.2109 9.64603 16.2109 8.71777C16.2109 7.78952 15.8422 6.89928 15.1858 6.2429C14.5294 5.58652 13.6392 5.21777 12.7109 5.21777ZM12.7109 7.21777C13.1088 7.21777 13.4903 7.37581 13.7716 7.65711C14.0529 7.93842 14.2109 8.31995 14.2109 8.71777C14.2109 9.1156 14.0529 9.49713 13.7716 9.77843C13.4903 10.0597 13.1088 10.2178 12.7109 10.2178C12.3131 10.2178 11.9316 10.0597 11.6503 9.77843C11.369 9.49713 11.2109 9.1156 11.2109 8.71777C11.2109 8.31995 11.369 7.93842 11.6503 7.65711C11.9316 7.37581 12.3131 7.21777 12.7109 7.21777ZM6.21094 8.21777C5.5479 8.21777 4.91201 8.48117 4.44317 8.95001C3.97433 9.41885 3.71094 10.0547 3.71094 10.7178C3.71094 11.6578 4.24094 12.4678 5.00094 12.8978C5.36094 13.0978 5.77094 13.2178 6.21094 13.2178C6.65094 13.2178 7.06094 13.0978 7.42094 12.8978C7.79094 12.6878 8.10094 12.3878 8.33094 12.0278C7.60094 11.0778 7.21094 9.91777 7.21094 8.71777C7.21094 8.62777 7.21094 8.52777 7.21094 8.43777C6.91094 8.29777 6.57094 8.21777 6.21094 8.21777ZM19.2109 8.21777C18.8509 8.21777 18.5109 8.29777 18.2109 8.43777C18.2109 8.52777 18.2109 8.62777 18.2109 8.71777C18.2109 9.91777 17.8209 11.0778 17.0909 12.0278C17.2109 12.2178 17.3409 12.3678 17.4909 12.5178C17.6509 12.6678 17.8109 12.7978 18.0009 12.8978C18.3609 13.0978 18.7709 13.2178 19.2109 13.2178C19.6509 13.2178 20.0609 13.0978 20.4209 12.8978C21.1809 12.4678 21.7109 11.6578 21.7109 10.7178C21.7109 10.0547 21.4475 9.41885 20.9787 8.95001C20.5099 8.48117 19.874 8.21777 19.2109 8.21777ZM12.7109 14.2178C10.3709 14.2178 5.71094 15.3878 5.71094 17.7178V19.2178H19.7109V17.7178C19.7109 15.3878 15.0509 14.2178 12.7109 14.2178ZM5.42094 14.7678C3.49094 14.9978 0.710938 15.9778 0.710938 17.7178V19.2178H3.71094V17.2878C3.71094 16.2778 4.40094 15.4378 5.42094 14.7678ZM20.0009 14.7678C21.0209 15.4378 21.7109 16.2778 21.7109 17.2878V19.2178H24.7109V17.7178C24.7109 15.9778 21.9309 14.9978 20.0009 14.7678ZM12.7109 16.2178C14.2409 16.2178 15.9509 16.7178 16.9409 17.2178H8.48094C9.47094 16.7178 11.1809 16.2178 12.7109 16.2178Z" fill="#CEB0FA"/>
</g>
<defs>
<clipPath id="clip0_73_6967">
<rect width="24" height="24" fill="white" transform="translate(0.710938 0.217773)"/>
</clipPath>
</defs>
</svg>
