<svg width="33" height="33" viewBox="0 0 33 33" fill="none" xmlns="http://www.w3.org/2000/svg">
<path d="M13.8327 5.83301C12.4182 5.83301 11.0616 6.39491 10.0614 7.3951C9.06125 8.3953 8.49935 9.75185 8.49935 11.1663C8.49935 12.5808 9.06125 13.9374 10.0614 14.9376C11.0616 15.9378 12.4182 16.4997 13.8327 16.4997C15.2472 16.4997 16.6037 15.9378 17.6039 14.9376C18.6041 13.9374 19.166 12.5808 19.166 11.1663C19.166 9.75185 18.6041 8.3953 17.6039 7.3951C16.6037 6.39491 15.2472 5.83301 13.8327 5.83301ZM13.8327 8.49967C14.5399 8.49967 15.2182 8.78063 15.7183 9.28072C16.2184 9.78082 16.4993 10.4591 16.4993 11.1663C16.4993 11.8736 16.2184 12.5519 15.7183 13.052C15.2182 13.5521 14.5399 13.833 13.8327 13.833C13.1254 13.833 12.4472 13.5521 11.9471 13.052C11.447 12.5519 11.166 11.8736 11.166 11.1663C11.166 10.4591 11.447 9.78082 11.9471 9.28072C12.4472 8.78063 13.1254 8.49967 13.8327 8.49967ZM23.166 16.4997C22.9527 16.4997 22.846 16.6063 22.846 16.8197L22.4993 18.4997C22.206 18.7397 21.7794 18.953 21.4594 19.1663L19.7527 18.4997C19.646 18.4997 19.4327 18.4997 19.326 18.633L18.046 20.9797C17.9393 21.0863 17.9393 21.2997 18.1527 21.4063L19.5393 22.4997V23.833L18.1527 24.9263C18.046 25.033 17.9393 25.2463 18.046 25.353L19.326 27.6997C19.4327 27.833 19.646 27.833 19.7527 27.833L21.4594 27.1663C21.7794 27.3797 22.206 27.593 22.4993 27.833L22.846 29.513C22.846 29.7263 22.9527 29.833 23.166 29.833H25.8327C25.9394 29.833 26.1527 29.7263 26.1527 29.513L26.366 27.833C26.7927 27.593 27.2194 27.3797 27.5394 27.1663L29.166 27.833C29.3527 27.833 29.566 27.833 29.566 27.6997L30.9527 25.353C31.0593 25.2463 30.9527 25.033 30.846 24.9263L29.4593 23.833V22.4997L30.846 21.4063C30.9527 21.2997 31.0593 21.0863 30.9527 20.9797L29.566 18.633C29.566 18.4997 29.3527 18.4997 29.166 18.4997L27.5394 19.1663C27.2194 18.953 26.7927 18.7397 26.366 18.4997L26.1527 16.8197C26.1527 16.6063 25.9394 16.4997 25.8327 16.4997H23.166ZM13.8327 17.833C10.2727 17.833 3.16602 19.6063 3.16602 23.1663V27.1663H16.0593C15.686 26.3797 15.4193 25.5263 15.286 24.633H5.69935V23.1663C5.69935 22.313 9.87268 20.3663 13.8327 20.3663C14.406 20.3663 14.9927 20.4197 15.566 20.4997C15.8327 19.6463 16.1927 18.8463 16.6593 18.113C15.6193 17.9397 14.6327 17.833 13.8327 17.833ZM24.5527 21.1663C25.6194 21.1663 26.4993 22.0463 26.4993 23.2197C26.4993 24.2863 25.6194 25.1663 24.5527 25.1663C23.3794 25.1663 22.4993 24.2863 22.4993 23.2197C22.4993 22.0463 23.3794 21.1663 24.5527 21.1663Z" fill="#8133F1"/>
</svg>
