<svg width="33" height="33" viewBox="0 0 33 33" fill="none" xmlns="http://www.w3.org/2000/svg">
<g clip-path="url(#clip0_73_14769)">
<path d="M16.5 7.16699C15.2623 7.16699 14.0753 7.65866 13.2002 8.53383C12.325 9.409 11.8333 10.596 11.8333 11.8337C11.8333 13.0713 12.325 14.2583 13.2002 15.1335C14.0753 16.0087 15.2623 16.5003 16.5 16.5003C17.7377 16.5003 18.9247 16.0087 19.7998 15.1335C20.675 14.2583 21.1667 13.0713 21.1667 11.8337C21.1667 10.596 20.675 9.409 19.7998 8.53383C18.9247 7.65866 17.7377 7.16699 16.5 7.16699ZM16.5 9.83366C17.0304 9.83366 17.5391 10.0444 17.9142 10.4194C18.2893 10.7945 18.5 11.3032 18.5 11.8337C18.5 12.3641 18.2893 12.8728 17.9142 13.2479C17.5391 13.6229 17.0304 13.8337 16.5 13.8337C15.9696 13.8337 15.4609 13.6229 15.0858 13.2479C14.7107 12.8728 14.5 12.3641 14.5 11.8337C14.5 11.3032 14.7107 10.7945 15.0858 10.4194C15.4609 10.0444 15.9696 9.83366 16.5 9.83366ZM7.83333 11.167C6.94928 11.167 6.10143 11.5182 5.47631 12.1433C4.85119 12.7684 4.5 13.6163 4.5 14.5003C4.5 15.7537 5.20667 16.8337 6.22 17.407C6.7 17.6737 7.24667 17.8337 7.83333 17.8337C8.42 17.8337 8.96667 17.6737 9.44667 17.407C9.94 17.127 10.3533 16.727 10.66 16.247C9.68667 14.9803 9.16667 13.4337 9.16667 11.8337C9.16667 11.7137 9.16667 11.5803 9.16667 11.4603C8.76667 11.2737 8.31333 11.167 7.83333 11.167ZM25.1667 11.167C24.6867 11.167 24.2333 11.2737 23.8333 11.4603C23.8333 11.5803 23.8333 11.7137 23.8333 11.8337C23.8333 13.4337 23.3133 14.9803 22.34 16.247C22.5 16.5003 22.6733 16.7003 22.8733 16.9003C23.0867 17.1003 23.3 17.2737 23.5533 17.407C24.0333 17.6737 24.58 17.8337 25.1667 17.8337C25.7533 17.8337 26.3 17.6737 26.78 17.407C27.7933 16.8337 28.5 15.7537 28.5 14.5003C28.5 13.6163 28.1488 12.7684 27.5237 12.1433C26.8986 11.5182 26.0507 11.167 25.1667 11.167ZM16.5 19.167C13.38 19.167 7.16667 20.727 7.16667 23.8337V25.8337H25.8333V23.8337C25.8333 20.727 19.62 19.167 16.5 19.167ZM6.78 19.9003C4.20667 20.207 0.5 21.5137 0.5 23.8337V25.8337H4.5V23.2603C4.5 21.9137 5.42 20.7937 6.78 19.9003ZM26.22 19.9003C27.58 20.7937 28.5 21.9137 28.5 23.2603V25.8337H32.5V23.8337C32.5 21.5137 28.7933 20.207 26.22 19.9003ZM16.5 21.8337C18.54 21.8337 20.82 22.5003 22.14 23.167H10.86C12.18 22.5003 14.46 21.8337 16.5 21.8337Z" fill="#8133F1"/>
</g>
<defs>
<clipPath id="clip0_73_14769">
<rect width="32" height="32" fill="white" transform="translate(0.5 0.5)"/>
</clipPath>
</defs>
</svg>
