<svg width="25" height="24" viewBox="0 0 25 24" fill="none" xmlns="http://www.w3.org/2000/svg">
<path d="M5.77734 6H23.7773V18H5.77734V6ZM14.7773 9C15.573 9 16.3361 9.31607 16.8987 9.87868C17.4613 10.4413 17.7773 11.2044 17.7773 12C17.7773 12.7956 17.4613 13.5587 16.8987 14.1213C16.3361 14.6839 15.573 15 14.7773 15C13.9817 15 13.2186 14.6839 12.656 14.1213C12.0934 13.5587 11.7773 12.7956 11.7773 12C11.7773 11.2044 12.0934 10.4413 12.656 9.87868C13.2186 9.31607 13.9817 9 14.7773 9ZM9.77734 8C9.77734 8.53043 9.56663 9.03914 9.19156 9.41421C8.81648 9.78929 8.30778 10 7.77734 10V14C8.30778 14 8.81648 14.2107 9.19156 14.5858C9.56663 14.9609 9.77734 15.4696 9.77734 16H19.7773C19.7773 15.4696 19.9881 14.9609 20.3631 14.5858C20.7382 14.2107 21.2469 14 21.7773 14V10C21.2469 10 20.7382 9.78929 20.3631 9.41421C19.9881 9.03914 19.7773 8.53043 19.7773 8H9.77734ZM1.77734 10H3.77734V20H19.7773V22H1.77734V10Z" fill="#CEB0FA"/>
</svg>
