<svg width="39" height="38" viewBox="0 0 39 38" fill="none" xmlns="http://www.w3.org/2000/svg">
<g filter="url(#filter0_d_73_14652)">
<path d="M10.1673 8.5H34.1673V24.5H10.1673V8.5ZM22.1673 12.5C23.2282 12.5 24.2456 12.9214 24.9957 13.6716C25.7459 14.4217 26.1673 15.4391 26.1673 16.5C26.1673 17.5609 25.7459 18.5783 24.9957 19.3284C24.2456 20.0786 23.2282 20.5 22.1673 20.5C21.1065 20.5 20.089 20.0786 19.3389 19.3284C18.5887 18.5783 18.1673 17.5609 18.1673 16.5C18.1673 15.4391 18.5887 14.4217 19.3389 13.6716C20.089 12.9214 21.1065 12.5 22.1673 12.5ZM15.5007 11.1667C15.5007 11.8739 15.2197 12.5522 14.7196 13.0523C14.2195 13.5524 13.5412 13.8333 12.834 13.8333V19.1667C13.5412 19.1667 14.2195 19.4476 14.7196 19.9477C15.2197 20.4478 15.5007 21.1261 15.5007 21.8333H28.834C28.834 21.1261 29.1149 20.4478 29.615 19.9477C30.1151 19.4476 30.7934 19.1667 31.5007 19.1667V13.8333C30.7934 13.8333 30.1151 13.5524 29.615 13.0523C29.1149 12.5522 28.834 11.8739 28.834 11.1667H15.5007ZM4.83398 13.8333H7.50065V27.1667H28.834V29.8333H4.83398V13.8333Z" fill="white"/>
</g>
<defs>
<filter id="filter0_d_73_14652" x="-0.5" y="0.5" width="40" height="40" filterUnits="userSpaceOnUse" color-interpolation-filters="sRGB">
<feFlood flood-opacity="0" result="BackgroundImageFix"/>
<feColorMatrix in="SourceAlpha" type="matrix" values="0 0 0 0 0 0 0 0 0 0 0 0 0 0 0 0 0 0 127 0" result="hardAlpha"/>
<feOffset dy="4"/>
<feGaussianBlur stdDeviation="2"/>
<feComposite in2="hardAlpha" operator="out"/>
<feColorMatrix type="matrix" values="0 0 0 0 0 0 0 0 0 0 0 0 0 0 0 0 0 0 0.25 0"/>
<feBlend mode="normal" in2="BackgroundImageFix" result="effect1_dropShadow_73_14652"/>
<feBlend mode="normal" in="SourceGraphic" in2="effect1_dropShadow_73_14652" result="shape"/>
</filter>
</defs>
</svg>
