<svg width="33" height="33" viewBox="0 0 33 33" fill="none" xmlns="http://www.w3.org/2000/svg">
<path d="M7.16732 8.5H31.1673V24.5H7.16732V8.5ZM19.1673 12.5C20.2282 12.5 21.2456 12.9214 21.9957 13.6716C22.7459 14.4217 23.1673 15.4391 23.1673 16.5C23.1673 17.5609 22.7459 18.5783 21.9957 19.3284C21.2456 20.0786 20.2282 20.5 19.1673 20.5C18.1065 20.5 17.089 20.0786 16.3389 19.3284C15.5887 18.5783 15.1673 17.5609 15.1673 16.5C15.1673 15.4391 15.5887 14.4217 16.3389 13.6716C17.089 12.9214 18.1065 12.5 19.1673 12.5ZM12.5007 11.1667C12.5007 11.8739 12.2197 12.5522 11.7196 13.0523C11.2195 13.5524 10.5412 13.8333 9.83398 13.8333V19.1667C10.5412 19.1667 11.2195 19.4476 11.7196 19.9477C12.2197 20.4478 12.5007 21.1261 12.5007 21.8333H25.834C25.834 21.1261 26.1149 20.4478 26.615 19.9477C27.1151 19.4476 27.7934 19.1667 28.5007 19.1667V13.8333C27.7934 13.8333 27.1151 13.5524 26.615 13.0523C26.1149 12.5522 25.834 11.8739 25.834 11.1667H12.5007ZM1.83398 13.8333H4.50065V27.1667H25.834V29.8333H1.83398V13.8333Z" fill="#8133F1"/>
</svg>
