<svg width="176" height="134" viewBox="0 0 176 134" fill="none" xmlns="http://www.w3.org/2000/svg">
<path d="M7.54166 122.752C7.54166 124.438 6.16786 125.809 4.4681 125.809C2.76833 125.809 1.39453 124.438 1.39453 122.752C1.39453 121.067 2.76833 119.696 4.4681 119.696C6.16786 119.696 7.54166 121.067 7.54166 122.752Z" fill="#CEB0FA" stroke="white"/>
<path d="M2.18017 120.53C2.18017 120.988 1.80634 121.363 1.34009 121.363C0.873838 121.363 0.5 120.988 0.5 120.53C0.5 120.071 0.873838 119.696 1.34009 119.696C1.80634 119.696 2.18017 120.071 2.18017 120.53Z" fill="#CEB0FA" stroke="white"/>
<path d="M7.09497 114.529C7.09497 116.092 5.82116 117.363 4.24475 117.363C2.66834 117.363 1.39453 116.092 1.39453 114.529C1.39453 112.966 2.66834 111.695 4.24475 111.695C5.82116 111.695 7.09497 112.966 7.09497 114.529Z" fill="#CEB0FA" stroke="white"/>
<path d="M11.5606 108.304C11.5606 110.849 9.48685 112.917 6.92362 112.917C4.3604 112.917 2.28662 110.849 2.28662 108.304C2.28662 105.76 4.3604 103.692 6.92362 103.692C9.48685 103.692 11.5606 105.76 11.5606 108.304Z" fill="#CEB0FA" stroke="white"/>
<path d="M24.9609 92.0798C24.9609 93.2745 23.9871 94.2471 22.7808 94.2471C21.5744 94.2471 20.6006 93.2745 20.6006 92.0798C20.6006 90.8852 21.5744 89.9126 22.7808 89.9126C23.9871 89.9126 24.9609 90.8852 24.9609 92.0798Z" fill="#CEB0FA" stroke="white"/>
<path d="M33.4483 104.304C33.4483 106.849 31.3745 108.916 28.8113 108.916C26.2481 108.916 24.1743 106.849 24.1743 104.304C24.1743 101.759 26.2481 99.6915 28.8113 99.6915C31.3745 99.6915 33.4483 101.759 33.4483 104.304Z" fill="#CEB0FA" stroke="white"/>
<path d="M10.2205 86.3001C10.2205 87.7403 9.04673 88.9119 7.59367 88.9119C6.14061 88.9119 4.9668 87.7403 4.9668 86.3001C4.9668 84.86 6.14061 83.6884 7.59367 83.6884C9.04673 83.6884 10.2205 84.86 10.2205 86.3001Z" fill="#CEB0FA" stroke="white"/>
<path d="M30.769 94.969C30.769 96.2864 29.6951 97.3585 28.3654 97.3585C27.0357 97.3585 25.9619 96.2864 25.9619 94.969C25.9619 93.6516 27.0357 92.5795 28.3654 92.5795C29.6951 92.5795 30.769 93.6516 30.769 94.969Z" fill="#CEB0FA" stroke="white"/>
<path d="M27.6429 82.7441C27.6429 84.1843 26.4691 85.3559 25.016 85.3559C23.563 85.3559 22.3892 84.1843 22.3892 82.7441C22.3892 81.3039 23.563 80.1323 25.016 80.1323C26.4691 80.1323 27.6429 81.3039 27.6429 82.7441Z" fill="#CEB0FA" stroke="white"/>
<path d="M12.454 62.5175C12.454 63.8349 11.3802 64.907 10.0505 64.907C8.72078 64.907 7.64697 63.8349 7.64697 62.5175C7.64697 61.2 8.72078 60.1279 10.0505 60.1279C11.3802 60.1279 12.454 61.2 12.454 62.5175Z" fill="#CEB0FA" stroke="white"/>
<path d="M13.7948 54.2938C13.7948 55.734 12.6209 56.9056 11.1679 56.9056C9.71482 56.9056 8.54102 55.734 8.54102 54.2938C8.54102 52.8536 9.71482 51.682 11.1679 51.682C12.6209 51.682 13.7948 52.8536 13.7948 54.2938Z" fill="#CEB0FA" stroke="white"/>
<path d="M30.7691 66.073C30.7691 68.618 28.6953 70.6853 26.1321 70.6853C23.5689 70.6853 21.4951 68.618 21.4951 66.073C21.4951 63.5281 23.5689 61.4608 26.1321 61.4608C28.6953 61.4608 30.7691 63.5281 30.7691 66.073Z" fill="#CEB0FA" stroke="white"/>
<path d="M24.0689 99.4142C24.0689 103.432 20.7952 106.694 16.7517 106.694C12.7083 106.694 9.43457 103.432 9.43457 99.4142C9.43457 95.3962 12.7083 92.1348 16.7517 92.1348C20.7952 92.1348 24.0689 95.3962 24.0689 99.4142Z" fill="#CEB0FA" stroke="white"/>
<path d="M24.5157 42.5131C24.5157 45.0581 22.4419 47.1253 19.8787 47.1253C17.3155 47.1253 15.2417 45.0581 15.2417 42.5131C15.2417 39.9681 17.3155 37.9009 19.8787 37.9009C22.4419 37.9009 24.5157 39.9681 24.5157 42.5131Z" fill="#CEB0FA" stroke="white"/>
<path d="M38.8093 47.8479C38.8093 49.4108 37.5355 50.6819 35.9591 50.6819C34.3827 50.6819 33.1089 49.4108 33.1089 47.8479C33.1089 46.2849 34.3827 45.0138 35.9591 45.0138C37.5355 45.0138 38.8093 46.2849 38.8093 47.8479Z" fill="#CEB0FA" stroke="white"/>
<path d="M28.5351 112.306C28.5351 118.043 23.8614 122.698 18.091 122.698C12.3206 122.698 7.64697 118.043 7.64697 112.306C7.64697 106.57 12.3206 101.915 18.091 101.915C23.8614 101.915 28.5351 106.57 28.5351 112.306Z" fill="#CEB0FA" stroke="white"/>
<path d="M21.8345 77.6321C21.8345 80.1771 19.7608 82.2444 17.1975 82.2444C14.6343 82.2444 12.5605 80.1771 12.5605 77.6321C12.5605 75.0871 14.6343 73.0199 17.1975 73.0199C19.7608 73.0199 21.8345 75.0871 21.8345 77.6321Z" fill="#CEB0FA" stroke="white"/>
<path d="M60.279 110.183C60.279 112.204 58.6324 113.846 56.5963 113.846C54.5601 113.846 52.9136 112.204 52.9136 110.183C52.9136 108.163 54.5601 106.521 56.5963 106.521C58.6324 106.521 60.279 108.163 60.279 110.183Z" fill="#B78AF7" stroke="white"/>
<path d="M68.7464 62.0762C68.7464 62.6599 68.2703 63.1372 67.6779 63.1372C67.0855 63.1372 66.6094 62.6599 66.6094 62.0762C66.6094 61.4925 67.0855 61.0153 67.6779 61.0153C68.2703 61.0153 68.7464 61.4925 68.7464 62.0762Z" fill="#B78AF7" stroke="white"/>
<path d="M77.4715 94.6471C77.4715 96.5239 75.942 98.0495 74.0502 98.0495C72.1584 98.0495 70.6289 96.5239 70.6289 94.6471C70.6289 92.7703 72.1584 91.2448 74.0502 91.2448C75.942 91.2448 77.4715 92.7703 77.4715 94.6471Z" fill="#B78AF7" stroke="white"/>
<path d="M80.3148 83.3916C80.3148 86.4178 77.849 88.8752 74.8022 88.8752C71.7554 88.8752 69.2896 86.4178 69.2896 83.3916C69.2896 80.3653 71.7554 77.908 74.8022 77.908C77.849 77.908 80.3148 80.3653 80.3148 83.3916Z" fill="#B78AF7" stroke="white"/>
<path d="M80.67 74.2819C80.67 75.7277 79.4917 76.9038 78.033 76.9038C76.5743 76.9038 75.396 75.7277 75.396 74.2819C75.396 72.8362 76.5743 71.66 78.033 71.66C79.4917 71.66 80.67 72.8362 80.67 74.2819Z" fill="#B78AF7" stroke="white"/>
<path d="M56.1932 54.4969C56.1932 57.5232 53.7274 59.9806 50.6806 59.9806C47.6338 59.9806 45.168 57.5232 45.168 54.4969C45.168 51.4707 47.6338 49.0133 50.6806 49.0133C53.7274 49.0133 56.1932 51.4707 56.1932 54.4969Z" fill="#B78AF7" stroke="white"/>
<path d="M63.4149 67.5175C63.4149 69.2506 62.0025 70.6597 60.2551 70.6597C58.5077 70.6597 57.0952 69.2506 57.0952 67.5175C57.0952 65.7843 58.5077 64.3752 60.2551 64.3752C62.0025 64.3752 63.4149 65.7843 63.4149 67.5175Z" fill="#B78AF7" stroke="white"/>
<path d="M87.4663 77.6638C87.4663 79.2532 86.1709 80.5458 84.5679 80.5458C82.9648 80.5458 81.6694 79.2532 81.6694 77.6638C81.6694 76.0744 82.9648 74.7817 84.5679 74.7817C86.1709 74.7817 87.4663 76.0744 87.4663 77.6638Z" fill="#B78AF7" stroke="white"/>
<path d="M83.8065 63.3547C83.8065 65.0879 82.3941 66.4969 80.6467 66.4969C78.8993 66.4969 77.4868 65.0879 77.4868 63.3547C77.4868 61.6216 78.8993 60.2125 80.6467 60.2125C82.3941 60.2125 83.8065 61.6216 83.8065 63.3547Z" fill="#B78AF7" stroke="white"/>
<path d="M66.0303 39.681C66.0303 41.2704 64.7349 42.5631 63.1318 42.5631C61.5288 42.5631 60.2334 41.2704 60.2334 39.681C60.2334 38.0916 61.5288 36.799 63.1318 36.799C64.7349 36.799 66.0303 38.0916 66.0303 39.681Z" fill="#B78AF7" stroke="white"/>
<path d="M67.6 30.0546C67.6 31.7877 66.1876 33.1968 64.4401 33.1968C62.6927 33.1968 61.2803 31.7877 61.2803 30.0546C61.2803 28.3214 62.6927 26.9124 64.4401 26.9124C66.1876 26.9124 67.6 28.3214 67.6 30.0546Z" fill="#B78AF7" stroke="white"/>
<path d="M57.9798 10.0425C57.9798 13.0687 55.514 15.5261 52.4672 15.5261C49.4204 15.5261 46.9546 13.0687 46.9546 10.0425C46.9546 7.01622 49.4204 4.55884 52.4672 4.55884C55.514 4.55884 57.9798 7.01622 57.9798 10.0425Z" fill="#B78AF7" stroke="white"/>
<path d="M48.6348 39.8447C48.6348 43.1262 45.9611 45.7905 42.6578 45.7905C39.3544 45.7905 36.6807 43.1262 36.6807 39.8447C36.6807 36.5631 39.3544 33.8988 42.6578 33.8988C45.9611 33.8988 48.6348 36.5631 48.6348 39.8447Z" fill="#B78AF7" stroke="white"/>
<path d="M33.412 22.0453C33.412 25.0715 30.9462 27.5289 27.8993 27.5289C24.8525 27.5289 22.3867 25.0715 22.3867 22.0453C22.3867 19.019 24.8525 16.5616 27.8993 16.5616C30.9462 16.5616 33.412 19.019 33.412 22.0453Z" fill="#B78AF7" stroke="white"/>
<path d="M96.8777 22.5095C96.8777 24.3863 95.3482 25.9119 93.4564 25.9119C91.5646 25.9119 90.0352 24.3863 90.0352 22.5095C90.0352 20.6327 91.5646 19.1072 93.4564 19.1072C95.3482 19.1072 96.8777 20.6327 96.8777 22.5095Z" fill="#B78AF7" stroke="white"/>
<path d="M45.9542 34.7324C45.9542 41.5739 40.3806 47.1241 33.5001 47.1241C26.6195 47.1241 21.0459 41.5739 21.0459 34.7324C21.0459 27.8909 26.6195 22.3407 33.5001 22.3407C40.3806 22.3407 45.9542 27.8909 45.9542 34.7324Z" fill="#B78AF7" stroke="white"/>
<path d="M77.0096 57.3711C77.0096 60.3973 74.5438 62.8547 71.497 62.8547C68.4502 62.8547 65.9844 60.3973 65.9844 57.3711C65.9844 54.3448 68.4502 51.8875 71.497 51.8875C74.5438 51.8875 77.0096 54.3448 77.0096 57.3711Z" fill="#B78AF7" stroke="white"/>
<path d="M53.1335 110.184C53.1335 112.205 51.4869 113.847 49.4508 113.847C47.4146 113.847 45.7681 112.205 45.7681 110.184C45.7681 108.164 47.4146 106.522 49.4508 106.522C51.4869 106.522 53.1335 108.164 53.1335 110.184Z" fill="#9654F4" stroke="white"/>
<path d="M61.6014 62.0777C61.6014 62.6613 61.1253 63.1386 60.5329 63.1386C59.9405 63.1386 59.4644 62.6613 59.4644 62.0777C59.4644 61.494 59.9405 61.0167 60.5329 61.0167C61.1253 61.0167 61.6014 61.494 61.6014 62.0777Z" fill="#9654F4" stroke="white"/>
<path d="M73.0071 55.9727C73.0071 57.8495 71.4776 59.375 69.5858 59.375C67.694 59.375 66.1646 57.8495 66.1646 55.9727C66.1646 54.0959 67.694 52.5703 69.5858 52.5703C71.4776 52.5703 73.0071 54.0959 73.0071 55.9727Z" fill="#9654F4" stroke="white"/>
<path d="M36.0926 52.275C36.0926 55.3013 33.6268 57.7586 30.58 57.7586C27.5332 57.7586 25.0674 55.3013 25.0674 52.275C25.0674 49.2488 27.5332 46.7914 30.58 46.7914C33.6268 46.7914 36.0926 49.2488 36.0926 52.275Z" fill="#9654F4" stroke="white"/>
<path d="M73.5245 74.2825C73.5245 75.7283 72.3462 76.9044 70.8875 76.9044C69.4288 76.9044 68.2505 75.7283 68.2505 74.2825C68.2505 72.8368 69.4288 71.6606 70.8875 71.6606C72.3462 71.6606 73.5245 72.8368 73.5245 74.2825Z" fill="#9654F4" stroke="white"/>
<path d="M49.0477 54.4975C49.0477 57.5238 46.5819 59.9812 43.5351 59.9812C40.4883 59.9812 38.0225 57.5238 38.0225 54.4975C38.0225 51.4713 40.4883 49.0139 43.5351 49.0139C46.5819 49.0139 49.0477 51.4713 49.0477 54.4975Z" fill="#9654F4" stroke="white"/>
<path d="M56.2704 67.5181C56.2704 69.2512 54.858 70.6603 53.1105 70.6603C51.3631 70.6603 49.9507 69.2512 49.9507 67.5181C49.9507 65.7849 51.3631 64.3759 53.1105 64.3759C54.858 64.3759 56.2704 65.7849 56.2704 67.5181Z" fill="#9654F4" stroke="white"/>
<path d="M62.582 57.6745C62.582 59.264 61.2866 60.5566 59.6836 60.5566C58.0806 60.5566 56.7852 59.264 56.7852 57.6745C56.7852 56.0851 58.0806 54.7925 59.6836 54.7925C61.2866 54.7925 62.582 56.0851 62.582 57.6745Z" fill="#9654F4" stroke="white"/>
<path d="M63.5507 51.267C63.5507 53.0001 62.1382 54.4092 60.3908 54.4092C58.6434 54.4092 57.231 53.0001 57.231 51.267C57.231 49.5338 58.6434 48.1248 60.3908 48.1248C62.1382 48.1248 63.5507 49.5338 63.5507 51.267Z" fill="#9654F4" stroke="white"/>
<path d="M44.2661 44.3387C44.2661 45.9282 42.9707 47.2208 41.3677 47.2208C39.7646 47.2208 38.4692 45.9282 38.4692 44.3387C38.4692 42.7493 39.7646 41.4567 41.3677 41.4567C42.9707 41.4567 44.2661 42.7493 44.2661 44.3387Z" fill="#9654F4" stroke="white"/>
<path d="M38.0888 33.0408C38.0888 34.7739 36.6763 36.183 34.9289 36.183C33.1815 36.183 31.769 34.7739 31.769 33.0408C31.769 31.3077 33.1815 29.8986 34.9289 29.8986C36.6763 29.8986 38.0888 31.3077 38.0888 33.0408Z" fill="#9654F4" stroke="white"/>
<path d="M79.9058 16.2846C79.9058 24.722 73.0322 31.5659 64.5481 31.5659C56.064 31.5659 49.1904 24.722 49.1904 16.2846C49.1904 7.84733 56.064 1.00342 64.5481 1.00342C73.0322 1.00342 79.9058 7.84733 79.9058 16.2846Z" fill="#9654F4" stroke="white"/>
<path d="M83.4787 20.0638C83.4787 23.2226 80.9049 25.7874 77.7249 25.7874C74.5449 25.7874 71.9712 23.2226 71.9712 20.0638C71.9712 16.905 74.5449 14.3402 77.7249 14.3402C80.9049 14.3402 83.4787 16.905 83.4787 20.0638Z" fill="#9654F4" stroke="white"/>
<path d="M127.255 14.7289C127.255 16.6601 125.682 18.2298 123.735 18.2298C121.789 18.2298 120.215 16.6601 120.215 14.7289C120.215 12.7977 121.789 11.228 123.735 11.228C125.682 11.228 127.255 12.7977 127.255 14.7289Z" fill="#9654F4" stroke="white"/>
<path d="M135.297 22.2862C135.297 24.2174 133.723 25.787 131.777 25.787C129.83 25.787 128.256 24.2174 128.256 22.2862C128.256 20.3549 129.83 18.7853 131.777 18.7853C133.723 18.7853 135.297 20.3549 135.297 22.2862Z" fill="#9654F4" stroke="white"/>
<path d="M25.0677 31.1771C25.0677 30.2279 25.8415 29.4544 26.8012 29.4544C27.7608 29.4544 28.5347 30.2279 28.5347 31.1771C28.5347 32.1262 27.7608 32.8998 26.8012 32.8998C25.8415 32.8998 25.0677 32.1262 25.0677 31.1771Z" fill="#9654F4" stroke="white"/>
<path d="M26.267 22.0459C26.267 25.0721 23.8011 27.5295 20.7543 27.5295C17.7075 27.5295 15.2417 25.0721 15.2417 22.0459C15.2417 19.0196 17.7075 16.5623 20.7543 16.5623C23.8011 16.5623 26.267 19.0196 26.267 22.0459Z" fill="#9654F4" stroke="white"/>
<path d="M70.326 41.303C70.326 43.1798 68.7965 44.7054 66.9047 44.7054C65.0129 44.7054 63.4834 43.1798 63.4834 41.303C63.4834 39.4262 65.0129 37.9006 66.9047 37.9006C68.7965 37.9006 70.326 39.4262 70.326 41.303Z" fill="#9654F4" stroke="white"/>
<path d="M22.281 26.5095C22.281 28.809 20.4072 30.6772 18.0907 30.6772C15.7742 30.6772 13.9004 28.809 13.9004 26.5095C13.9004 24.21 15.7742 22.3418 18.0907 22.3418C20.4072 22.3418 22.281 24.21 22.281 26.5095Z" fill="#9654F4" stroke="white"/>
<path d="M56.1947 45.6068C56.1947 48.6331 53.7289 51.0904 50.6821 51.0904C47.6352 51.0904 45.1694 48.6331 45.1694 45.6068C45.1694 42.5806 47.6352 40.1232 50.6821 40.1232C53.7289 40.1232 56.1947 42.5806 56.1947 45.6068Z" fill="#9654F4" stroke="white"/>
<path d="M136.267 129.745C136.267 131.765 137.913 133.407 139.95 133.407C141.986 133.407 143.632 131.765 143.632 129.745C143.632 127.724 141.986 126.082 139.95 126.082C137.913 126.082 136.267 127.724 136.267 129.745Z" fill="#8133F1" stroke="white"/>
<path d="M127.8 81.6377C127.8 82.2214 128.277 82.6987 128.869 82.6987C129.461 82.6987 129.938 82.2214 129.938 81.6377C129.938 81.0541 129.461 80.5768 128.869 80.5768C128.277 80.5768 127.8 81.0541 127.8 81.6377Z" fill="#8133F1" stroke="white"/>
<path d="M116.395 75.5332C116.395 77.41 117.924 78.9356 119.816 78.9356C121.708 78.9356 123.237 77.41 123.237 75.5332C123.237 73.6564 121.708 72.1309 119.816 72.1309C117.924 72.1309 116.395 73.6564 116.395 75.5332Z" fill="#8133F1" stroke="white"/>
<path d="M130.043 118.068C130.043 121.094 132.509 123.551 135.556 123.551C138.603 123.551 141.068 121.094 141.068 118.068C141.068 115.041 138.603 112.584 135.556 112.584C132.509 112.584 130.043 115.041 130.043 118.068Z" fill="#8133F1" stroke="white"/>
<path d="M115.877 93.8426C115.877 95.2884 117.055 96.4645 118.514 96.4645C119.973 96.4645 121.151 95.2884 121.151 93.8426C121.151 92.3968 119.973 91.2207 118.514 91.2207C117.055 91.2207 115.877 92.3968 115.877 93.8426Z" fill="#8133F1" stroke="white"/>
<path d="M114.857 42.0511C114.857 45.0774 117.323 47.5348 120.37 47.5348C123.417 47.5348 125.882 45.0774 125.882 42.0511C125.882 39.0249 123.417 36.5675 120.37 36.5675C117.323 36.5675 114.857 39.0249 114.857 42.0511Z" fill="#8133F1" stroke="white"/>
<path d="M133.131 87.0785C133.131 88.8116 134.543 90.2207 136.291 90.2207C138.038 90.2207 139.451 88.8116 139.451 87.0785C139.451 85.3454 138.038 83.9363 136.291 83.9363C134.543 83.9363 133.131 85.3454 133.131 87.0785Z" fill="#8133F1" stroke="white"/>
<path d="M126.82 77.2354C126.82 78.8249 128.115 80.1175 129.718 80.1175C131.321 80.1175 132.617 78.8249 132.617 77.2354C132.617 75.646 131.321 74.3534 129.718 74.3534C128.115 74.3534 126.82 75.646 126.82 77.2354Z" fill="#8133F1" stroke="white"/>
<path d="M135.405 109.947C135.405 111.68 136.818 113.089 138.565 113.089C140.313 113.089 141.725 111.68 141.725 109.947C141.725 108.214 140.313 106.805 138.565 106.805C136.818 106.805 135.405 108.214 135.405 109.947Z" fill="#8133F1" stroke="white"/>
<path d="M145.136 63.8991C145.136 65.4886 146.431 66.7812 148.034 66.7812C149.637 66.7812 150.933 65.4886 150.933 63.8991C150.933 62.3097 149.637 61.0171 148.034 61.0171C146.431 61.0171 145.136 62.3097 145.136 63.8991Z" fill="#8133F1" stroke="white"/>
<path d="M151.313 52.6017C151.313 54.3348 152.726 55.7439 154.473 55.7439C156.22 55.7439 157.633 54.3348 157.633 52.6017C157.633 50.8686 156.22 49.4595 154.473 49.4595C152.726 49.4595 151.313 50.8686 151.313 52.6017Z" fill="#8133F1" stroke="white"/>
<path d="M88.0541 70.0746C88.0541 78.5119 94.9277 85.3558 103.412 85.3558C111.896 85.3558 118.77 78.5119 118.77 70.0746C118.77 61.6373 111.896 54.7933 103.412 54.7933C94.9277 54.7933 88.0541 61.6373 88.0541 70.0746Z" fill="#8133F1" stroke="white"/>
<path d="M105.922 39.6242C105.922 42.783 108.495 45.3478 111.675 45.3478C114.855 45.3478 117.429 42.783 117.429 39.6242C117.429 36.4654 114.855 33.9006 111.675 33.9006C108.495 33.9006 105.922 36.4654 105.922 39.6242Z" fill="#8133F1" stroke="white"/>
<path d="M62.146 34.2893C62.146 36.2205 63.7198 37.7902 65.6663 37.7902C67.6127 37.7902 69.1865 36.2205 69.1865 34.2893C69.1865 32.3581 67.6127 30.7885 65.6663 30.7885C63.7198 30.7885 62.146 32.3581 62.146 34.2893Z" fill="#8133F1" stroke="white"/>
<path d="M54.1045 41.8462C54.1045 43.7774 55.6783 45.3471 57.6248 45.3471C59.5712 45.3471 61.145 43.7774 61.145 41.8462C61.145 39.915 59.5712 38.3453 57.6248 38.3453C55.6783 38.3453 54.1045 39.915 54.1045 41.8462Z" fill="#8133F1" stroke="white"/>
<path d="M164.334 50.7376C164.334 49.7885 163.56 49.0149 162.601 49.0149C161.641 49.0149 160.867 49.7885 160.867 50.7376C160.867 51.6868 161.641 52.4603 162.601 52.4603C163.56 52.4603 164.334 51.6868 164.334 50.7376Z" fill="#8133F1" stroke="white"/>
<path d="M124.683 28.2705C124.683 31.2967 127.149 33.7541 130.196 33.7541C133.243 33.7541 135.708 31.2967 135.708 28.2705C135.708 25.2442 133.243 22.7869 130.196 22.7869C127.149 22.7869 124.683 25.2442 124.683 28.2705Z" fill="#8133F1" stroke="white"/>
<path d="M119.074 60.8639C119.074 62.7407 120.604 64.2663 122.496 64.2663C124.388 64.2663 125.917 62.7407 125.917 60.8639C125.917 58.9871 124.388 57.4615 122.496 57.4615C120.604 57.4615 119.074 58.9871 119.074 60.8639Z" fill="#8133F1" stroke="white"/>
<path d="M167.119 46.0694C167.119 48.3689 168.993 50.2371 171.31 50.2371C173.626 50.2371 175.5 48.3689 175.5 46.0694C175.5 43.7699 173.626 41.9017 171.31 41.9017C168.993 41.9017 167.119 43.7699 167.119 46.0694Z" fill="#8133F1" stroke="white"/>
<path d="M114.857 36.7169C114.857 39.7432 117.323 42.2005 120.37 42.2005C123.417 42.2005 125.882 39.7432 125.882 36.7169C125.882 33.6907 123.417 31.2333 120.37 31.2333C117.323 31.2333 114.857 33.6907 114.857 36.7169Z" fill="#8133F1" stroke="white"/>
<path d="M155.721 98.4642C155.721 100.485 154.075 102.127 152.039 102.127C150.002 102.127 148.356 100.485 148.356 98.4642C148.356 96.4437 150.002 94.8016 152.039 94.8016C154.075 94.8016 155.721 96.4437 155.721 98.4642Z" fill="#6200EE" stroke="white"/>
<path d="M97.7825 98.5299C97.7825 99.1136 97.3064 99.5909 96.714 99.5909C96.1216 99.5909 95.6455 99.1136 95.6455 98.5299C95.6455 97.9463 96.1216 97.469 96.714 97.469C97.3064 97.469 97.7825 97.9463 97.7825 98.5299Z" fill="#6200EE" stroke="white"/>
<path d="M109.188 92.425C109.188 94.3018 107.659 95.8273 105.767 95.8273C103.875 95.8273 102.346 94.3018 102.346 92.425C102.346 90.5482 103.875 89.0226 105.767 89.0226C107.659 89.0226 109.188 90.5482 109.188 92.425Z" fill="#6200EE" stroke="white"/>
<path d="M72.2762 88.7272C72.2762 91.7534 69.8104 94.2108 66.7636 94.2108C63.7168 94.2108 61.251 91.7534 61.251 88.7272C61.251 85.7009 63.7168 83.2435 66.7636 83.2435C69.8104 83.2435 72.2762 85.7009 72.2762 88.7272Z" fill="#6200EE" stroke="white"/>
<path d="M109.706 110.734C109.706 112.18 108.527 113.356 107.069 113.356C105.61 113.356 104.432 112.18 104.432 110.734C104.432 109.289 105.61 108.112 107.069 108.112C108.527 108.112 109.706 109.289 109.706 110.734Z" fill="#6200EE" stroke="white"/>
<path d="M160.275 92.7279C160.275 95.7541 157.809 98.2115 154.762 98.2115C151.715 98.2115 149.25 95.7541 149.25 92.7279C149.25 89.7016 151.715 87.2443 154.762 87.2443C157.809 87.2443 160.275 89.7016 160.275 92.7279Z" fill="#6200EE" stroke="white"/>
<path d="M92.4516 103.97C92.4516 105.703 91.0391 107.112 89.2917 107.112C87.5443 107.112 86.1318 105.703 86.1318 103.97C86.1318 102.237 87.5443 100.828 89.2917 100.828C91.0391 100.828 92.4516 102.237 92.4516 103.97Z" fill="#6200EE" stroke="white"/>
<path d="M98.7632 94.1272C98.7632 95.7166 97.4678 97.0092 95.8647 97.0092C94.2617 97.0092 92.9663 95.7166 92.9663 94.1272C92.9663 92.5377 94.2617 91.2451 95.8647 91.2451C97.4678 91.2451 98.7632 92.5377 98.7632 94.1272Z" fill="#6200EE" stroke="white"/>
<path d="M99.7328 87.7192C99.7328 89.4524 98.3204 90.8614 96.5729 90.8614C94.8255 90.8614 93.4131 89.4524 93.4131 87.7192C93.4131 85.9861 94.8255 84.577 96.5729 84.577C98.3204 84.577 99.7328 85.9861 99.7328 87.7192Z" fill="#6200EE" stroke="white"/>
<path d="M80.4473 80.7914C80.4473 82.3808 79.1519 83.6734 77.5488 83.6734C75.9458 83.6734 74.6504 82.3808 74.6504 80.7914C74.6504 79.2019 75.9458 77.9093 77.5488 77.9093C79.1519 77.9093 80.4473 79.2019 80.4473 80.7914Z" fill="#6200EE" stroke="white"/>
<path d="M74.2699 69.4934C74.2699 71.2265 72.8575 72.6356 71.1101 72.6356C69.3626 72.6356 67.9502 71.2265 67.9502 69.4934C67.9502 67.7603 69.3626 66.3512 71.1101 66.3512C72.8575 66.3512 74.2699 67.7603 74.2699 69.4934Z" fill="#6200EE" stroke="white"/>
<path d="M132.169 45.6243C132.169 49.1513 129.296 52.0147 125.746 52.0147C122.196 52.0147 119.322 49.1513 119.322 45.6243C119.322 42.0972 122.196 39.2339 125.746 39.2339C129.296 39.2339 132.169 42.0972 132.169 45.6243Z" fill="#6200EE" stroke="white"/>
<path d="M119.661 56.515C119.661 59.6737 117.088 62.2385 113.908 62.2385C110.728 62.2385 108.154 59.6737 108.154 56.515C108.154 53.3562 110.728 50.7914 113.908 50.7914C117.088 50.7914 119.661 53.3562 119.661 56.515Z" fill="#6200EE" stroke="white"/>
<path d="M163.437 51.1815C163.437 53.1127 161.863 54.6824 159.917 54.6824C157.97 54.6824 156.396 53.1127 156.396 51.1815C156.396 49.2503 157.97 47.6807 159.917 47.6807C161.863 47.6807 163.437 49.2503 163.437 51.1815Z" fill="#6200EE" stroke="white"/>
<path d="M171.478 58.7384C171.478 60.6696 169.904 62.2393 167.958 62.2393C166.011 62.2393 164.438 60.6696 164.438 58.7384C164.438 56.8072 166.011 55.2375 167.958 55.2375C169.904 55.2375 171.478 56.8072 171.478 58.7384Z" fill="#6200EE" stroke="white"/>
<path d="M61.2508 67.6289C61.2508 66.6797 62.0246 65.9061 62.9843 65.9061C63.944 65.9061 64.7178 66.6797 64.7178 67.6289C64.7178 68.578 63.944 69.3516 62.9843 69.3516C62.0246 69.3516 61.2508 68.578 61.2508 67.6289Z" fill="#6200EE" stroke="white"/>
<path d="M62.4481 58.4985C62.4481 61.5248 59.9823 63.9822 56.9355 63.9822C53.8887 63.9822 51.4229 61.5248 51.4229 58.4985C51.4229 55.4723 53.8887 53.0149 56.9355 53.0149C59.9823 53.0149 62.4481 55.4723 62.4481 58.4985Z" fill="#6200EE" stroke="white"/>
<path d="M106.508 77.7547C106.508 79.6315 104.979 81.157 103.087 81.157C101.195 81.157 99.6655 79.6315 99.6655 77.7547C99.6655 75.8779 101.195 74.3523 103.087 74.3523C104.979 74.3523 106.508 75.8779 106.508 77.7547Z" fill="#6200EE" stroke="white"/>
<path d="M58.4636 62.9611C58.4636 65.2606 56.5898 67.1288 54.2733 67.1288C51.9568 67.1288 50.083 65.2606 50.083 62.9611C50.083 60.6617 51.9568 58.7935 54.2733 58.7935C56.5898 58.7935 58.4636 60.6617 58.4636 62.9611Z" fill="#6200EE" stroke="white"/>
<path d="M92.3768 82.0591C92.3768 85.0853 89.911 87.5427 86.8642 87.5427C83.8174 87.5427 81.3516 85.0853 81.3516 82.0591C81.3516 79.0328 83.8174 76.5754 86.8642 76.5754C89.911 76.5754 92.3768 79.0328 92.3768 82.0591Z" fill="#6200EE" stroke="white"/>
</svg>
