<svg width="25" height="24" viewBox="0 0 25 24" fill="none" xmlns="http://www.w3.org/2000/svg">
<path d="M7 20C5.48 20 4.18333 19.4767 3.11 18.43C2.03667 17.3767 1.5 16.0933 1.5 14.58C1.5 13.28 1.89 12.12 2.67 11.1C3.45667 10.08 4.48333 9.43 5.75 9.15C6.17 7.61667 7.00333 6.37667 8.25 5.43C9.50333 4.47667 10.92 4 12.5 4C14.4533 4 16.1067 4.68 17.46 6.04C18.82 7.39333 19.5 9.04667 19.5 11C20.6533 11.1333 21.6067 11.6333 22.36 12.5C23.12 13.3533 23.5 14.3533 23.5 15.5C23.5 16.7533 23.0633 17.8167 22.19 18.69C21.3167 19.5633 20.2533 20 19 20H13.5C12.9533 20 12.4833 19.8033 12.09 19.41C11.6967 19.0233 11.5 18.5533 11.5 18V12.85L9.9 14.4L8.5 13L12.5 9L16.5 13L15.1 14.4L13.5 12.85V18H19C19.7 18 20.29 17.7567 20.77 17.27C21.2567 16.79 21.5 16.2 21.5 15.5C21.5 14.8 21.2567 14.21 20.77 13.73C20.29 13.2433 19.7 13 19 13H17.5V11C17.5 9.62 17.0133 8.44 16.04 7.46C15.0667 6.48667 13.8867 6 12.5 6C11.12 6 9.94 6.48667 8.96 7.46C7.98667 8.44 7.5 9.62 7.5 11H7C6.03333 11 5.21 11.3433 4.53 12.03C3.84333 12.71 3.5 13.5333 3.5 14.5C3.5 15.4667 3.84333 16.3 4.53 17C5.21 17.6667 6.03333 18 7 18H9.5V20" fill="white"/>
</svg>
