<svg width="21" height="20" viewBox="0 0 21 20" fill="none" xmlns="http://www.w3.org/2000/svg">
<path d="M14.5 2C14.5 0.9 15.4 0 16.5 0C17.6 0 18.5 0.9 18.5 2C18.5 3.1 17.6 4 16.5 4C15.4 4 14.5 3.1 14.5 2ZM19.28 5.58C18.43 5.21 17.5 5 16.5 5C15.83 5 15.19 5.1 14.58 5.28C15.16 5.83 15.5 6.6 15.5 7.43V8H20.5V7.43C20.5 6.62 20 5.9 19.28 5.58ZM4.5 4C5.6 4 6.5 3.1 6.5 2C6.5 0.9 5.6 0 4.5 0C3.4 0 2.5 0.9 2.5 2C2.5 3.1 3.4 4 4.5 4ZM6.42 5.28C5.81 5.1 5.17 5 4.5 5C3.5 5 2.57 5.21 1.72 5.58C1 5.9 0.5 6.62 0.5 7.43V8H5.5V7.43C5.5 6.6 5.84 5.83 6.42 5.28ZM8.5 2C8.5 0.9 9.4 0 10.5 0C11.6 0 12.5 0.9 12.5 2C12.5 3.1 11.6 4 10.5 4C9.4 4 8.5 3.1 8.5 2ZM14.5 8H6.5V7.43C6.5 6.62 7 5.9 7.72 5.58C8.57 5.21 9.5 5 10.5 5C11.5 5 12.43 5.21 13.28 5.58C14 5.9 14.5 6.62 14.5 7.43V8ZM13.5 14C13.5 12.9 14.4 12 15.5 12C16.6 12 17.5 12.9 17.5 14C17.5 15.1 16.6 16 15.5 16C14.4 16 13.5 15.1 13.5 14ZM19.5 20H11.5V19.43C11.5 18.62 12 17.9 12.72 17.58C13.57 17.21 14.5 17 15.5 17C16.5 17 17.43 17.21 18.28 17.58C19 17.9 19.5 18.62 19.5 19.43V20ZM3.5 14C3.5 12.9 4.4 12 5.5 12C6.6 12 7.5 12.9 7.5 14C7.5 15.1 6.6 16 5.5 16C4.4 16 3.5 15.1 3.5 14ZM9.5 20H1.5V19.43C1.5 18.62 2 17.9 2.72 17.58C3.57 17.21 4.5 17 5.5 17C6.5 17 7.43 17.21 8.28 17.58C9 17.9 9.5 18.62 9.5 19.43V20ZM11.25 11V9H9.75V11H7.5L10.5 14L13.5 11H11.25Z" fill="white"/>
</svg>
