<svg width="352" height="250" viewBox="0 0 352 250" fill="none" xmlns="http://www.w3.org/2000/svg">
<rect x="0.5" width="202.57" height="163.874" rx="2.27607" fill="#E9E8E8"/>
<rect x="9.60547" y="27.3125" width="184.362" height="127.457" rx="2.27607" fill="white"/>
<rect x="18.709" y="36.417" width="166.153" height="109.249" rx="2.27607" fill="#E9E8E8"/>
<rect x="28.0254" y="45.5947" width="73.9747" height="4.55205" rx="2.27603" fill="white"/>
<rect x="28.0254" y="54.6982" width="73.9747" height="4.55205" rx="2.27603" fill="white"/>
<rect x="28.0254" y="63.8022" width="47.4899" height="4.55205" rx="2.27603" fill="white"/>
<rect x="108.881" y="45.5947" width="73.9747" height="4.55205" rx="2.27603" fill="white"/>
<rect x="108.881" y="54.6982" width="73.9747" height="4.55205" rx="2.27603" fill="white"/>
<rect x="108.881" y="63.8022" width="47.4899" height="4.55205" rx="2.27603" fill="white"/>
<rect x="28.0254" y="113.802" width="46.0904" height="4.55214" rx="2.27607" fill="white"/>
<rect x="28.0254" y="122.906" width="46.0904" height="4.55214" rx="2.27607" fill="white"/>
<rect x="28.0254" y="132.01" width="29.5889" height="4.55214" rx="2.27607" fill="white"/>
<rect x="83.2197" y="113.802" width="46.0904" height="4.55214" rx="2.27607" fill="white"/>
<rect x="83.2197" y="122.906" width="46.0904" height="4.55214" rx="2.27607" fill="white"/>
<rect x="83.2197" y="132.01" width="29.5889" height="4.55214" rx="2.27607" fill="white"/>
<circle cx="14.1576" cy="13.6561" r="4.55214" fill="#BCBBBB"/>
<circle cx="28.3842" cy="13.6561" r="4.55214" fill="#BCBBBB"/>
<circle cx="42.6088" cy="13.6561" r="4.55214" fill="#BCBBBB"/>
<rect x="170.069" y="9.67285" width="23.8987" height="7.96625" rx="3.98312" fill="#CFCECE"/>
<g filter="url(#filter0_d_73_3171)">
<rect x="74.5" y="66.5" width="252.915" height="158.866" rx="4.62756" fill="white" shape-rendering="crispEdges"/>
<path d="M100.14 205.417H308.004" stroke="#CFCECE" stroke-width="0.522271" stroke-dasharray="2.09 1.04"/>
<path d="M100.14 174.031H308.004" stroke="#CFCECE" stroke-width="0.522271" stroke-dasharray="2.09 1.04"/>
<path d="M100.14 142.645H308.004" stroke="#CFCECE" stroke-width="0.522271" stroke-dasharray="2.09 1.04"/>
<path d="M100.14 111.258H308.004" stroke="#CFCECE" stroke-width="0.522271" stroke-dasharray="2.09 1.04"/>
<path d="M100.14 79.8721H308.004" stroke="#CFCECE" stroke-width="0.522271" stroke-dasharray="2.09 1.04"/>
<path d="M100.401 79.6099V205.679" stroke="#CFCECE" stroke-width="0.522271" stroke-dasharray="2.09 1.04"/>
<path d="M134.959 79.6099V205.679" stroke="#CFCECE" stroke-width="0.522271" stroke-dasharray="2.09 1.04"/>
<path d="M169.514 79.6099V205.679" stroke="#CFCECE" stroke-width="0.522271" stroke-dasharray="2.09 1.04"/>
<path d="M204.071 79.6099V205.679" stroke="#CFCECE" stroke-width="0.522271" stroke-dasharray="2.09 1.04"/>
<path d="M238.629 79.6099V205.679" stroke="#CFCECE" stroke-width="0.522271" stroke-dasharray="2.09 1.04"/>
<path d="M273.184 79.6099V205.679" stroke="#CFCECE" stroke-width="0.522271" stroke-dasharray="2.09 1.04"/>
<path d="M307.742 79.6099V205.679" stroke="#CFCECE" stroke-width="0.522271" stroke-dasharray="2.09 1.04"/>
<path d="M94.4452 204.912V205.591C94.4452 205.956 94.4126 206.264 94.3473 206.515C94.282 206.766 94.1882 206.968 94.0657 207.121C93.9433 207.274 93.7954 207.385 93.622 207.455C93.4506 207.522 93.2568 207.556 93.0406 207.556C92.8692 207.556 92.7111 207.534 92.5663 207.492C92.4214 207.449 92.2908 207.38 92.1746 207.287C92.0603 207.191 91.9624 207.066 91.8808 206.913C91.7992 206.76 91.7369 206.575 91.6941 206.356C91.6513 206.138 91.6298 205.883 91.6298 205.591V204.912C91.6298 204.547 91.6625 204.241 91.7278 203.994C91.7951 203.747 91.89 203.549 92.0124 203.4C92.1348 203.249 92.2817 203.141 92.453 203.076C92.6264 203.01 92.8203 202.978 93.0345 202.978C93.2079 202.978 93.367 202.999 93.5119 203.042C93.6587 203.083 93.7893 203.149 93.9036 203.241C94.0178 203.331 94.1147 203.451 94.1943 203.602C94.2759 203.751 94.3381 203.934 94.3809 204.15C94.4238 204.366 94.4452 204.62 94.4452 204.912ZM93.876 205.683V204.817C93.876 204.617 93.8638 204.442 93.8393 204.291C93.8169 204.138 93.7832 204.007 93.7383 203.899C93.6934 203.791 93.6363 203.703 93.5669 203.636C93.4996 203.568 93.4211 203.519 93.3313 203.489C93.2436 203.456 93.1446 203.44 93.0345 203.44C92.8998 203.44 92.7805 203.465 92.6764 203.516C92.5724 203.565 92.4847 203.644 92.4132 203.752C92.3439 203.86 92.2908 204.002 92.2541 204.177C92.2174 204.353 92.199 204.566 92.199 204.817V205.683C92.199 205.883 92.2103 206.059 92.2327 206.212C92.2572 206.365 92.2929 206.498 92.3398 206.61C92.3867 206.72 92.4438 206.811 92.5112 206.883C92.5785 206.954 92.656 207.007 92.7437 207.042C92.8335 207.074 92.9325 207.091 93.0406 207.091C93.1793 207.091 93.3007 207.064 93.4047 207.011C93.5088 206.958 93.5955 206.875 93.6649 206.763C93.7363 206.649 93.7893 206.503 93.824 206.326C93.8587 206.146 93.876 205.932 93.876 205.683Z" fill="#141414"/>
<path d="M90.9305 175.644V176.109H88.0141V175.702L89.4738 174.077C89.6534 173.877 89.7921 173.708 89.89 173.569C89.99 173.428 90.0594 173.303 90.0981 173.193C90.1389 173.08 90.1593 172.966 90.1593 172.85C90.1593 172.703 90.1287 172.57 90.0675 172.452C90.0084 172.332 89.9206 172.236 89.8043 172.164C89.6881 172.093 89.5473 172.057 89.382 172.057C89.1842 172.057 89.0189 172.096 88.8863 172.173C88.7557 172.249 88.6578 172.355 88.5925 172.492C88.5272 172.628 88.4946 172.786 88.4946 172.963H87.9285C87.9285 172.712 87.9835 172.483 88.0937 172.274C88.2039 172.066 88.3671 171.901 88.5833 171.779C88.7996 171.654 89.0658 171.592 89.382 171.592C89.6636 171.592 89.9043 171.642 90.1042 171.742C90.3042 171.84 90.4572 171.979 90.5633 172.158C90.6714 172.336 90.7255 172.544 90.7255 172.782C90.7255 172.913 90.703 173.046 90.6581 173.18C90.6153 173.313 90.5551 173.446 90.4776 173.578C90.4021 173.711 90.3134 173.841 90.2114 173.97C90.1114 174.098 90.0043 174.225 89.89 174.349L88.6966 175.644H90.9305ZM92.2525 173.988L91.7996 173.872L92.023 171.653H94.3089V172.177H92.5034L92.3688 173.388C92.4504 173.341 92.5534 173.298 92.6779 173.257C92.8043 173.216 92.9492 173.196 93.1124 173.196C93.3185 173.196 93.5031 173.231 93.6663 173.303C93.8295 173.372 93.9682 173.472 94.0825 173.603C94.1988 173.733 94.2875 173.89 94.3487 174.074C94.4099 174.257 94.4405 174.463 94.4405 174.689C94.4405 174.903 94.4109 175.1 94.3518 175.28C94.2947 175.459 94.2079 175.616 94.0917 175.751C93.9754 175.883 93.8285 175.986 93.651 176.06C93.4755 176.133 93.2685 176.17 93.0298 176.17C92.8502 176.17 92.6799 176.146 92.5187 176.097C92.3596 176.046 92.2168 175.969 92.0903 175.867C91.9659 175.763 91.8639 175.635 91.7843 175.482C91.7068 175.327 91.6578 175.145 91.6374 174.937H92.176C92.2005 175.104 92.2494 175.245 92.3229 175.359C92.3963 175.473 92.4922 175.56 92.6105 175.619C92.7309 175.676 92.8706 175.705 93.0298 175.705C93.1644 175.705 93.2838 175.681 93.3878 175.635C93.4919 175.588 93.5796 175.52 93.651 175.433C93.7224 175.345 93.7765 175.239 93.8132 175.114C93.8519 174.99 93.8713 174.85 93.8713 174.695C93.8713 174.554 93.8519 174.424 93.8132 174.303C93.7744 174.183 93.7163 174.078 93.6388 173.988C93.5633 173.898 93.4704 173.829 93.3603 173.78C93.2501 173.729 93.1236 173.704 92.9808 173.704C92.7911 173.704 92.6473 173.729 92.5493 173.78C92.4534 173.831 92.3545 173.9 92.2525 173.988Z" fill="#141414"/>
<path d="M88.7272 142.6L88.2743 142.484L88.4977 140.266H90.7836V140.789H88.9781L88.8435 142.001C88.9251 141.954 89.0281 141.91 89.1525 141.869C89.279 141.828 89.4239 141.808 89.5871 141.808C89.7931 141.808 89.9778 141.844 90.141 141.915C90.3042 141.984 90.4429 142.084 90.5572 142.215C90.6734 142.345 90.7622 142.503 90.8234 142.686C90.8846 142.87 90.9152 143.075 90.9152 143.301C90.9152 143.515 90.8856 143.712 90.8264 143.892C90.7693 144.071 90.6826 144.229 90.5663 144.363C90.45 144.496 90.3032 144.599 90.1257 144.672C89.9502 144.746 89.7431 144.782 89.5045 144.782C89.3249 144.782 89.1546 144.758 88.9934 144.709C88.8343 144.658 88.6915 144.581 88.565 144.479C88.4405 144.375 88.3385 144.247 88.259 144.094C88.1814 143.939 88.1325 143.757 88.1121 143.549H88.6507C88.6751 143.716 88.7241 143.857 88.7975 143.971C88.871 144.086 88.9669 144.172 89.0852 144.232C89.2056 144.289 89.3453 144.317 89.5045 144.317C89.6391 144.317 89.7584 144.294 89.8625 144.247C89.9665 144.2 90.0543 144.133 90.1257 144.045C90.1971 143.957 90.2511 143.851 90.2879 143.727C90.3266 143.602 90.346 143.462 90.346 143.307C90.346 143.167 90.3266 143.036 90.2879 142.916C90.2491 142.795 90.191 142.69 90.1134 142.6C90.0379 142.511 89.9451 142.441 89.835 142.392C89.7248 142.341 89.5983 142.316 89.4555 142.316C89.2658 142.316 89.1219 142.341 89.024 142.392C88.9281 142.443 88.8292 142.513 88.7272 142.6ZM94.3334 142.138V142.818C94.3334 143.183 94.3008 143.491 94.2355 143.742C94.1702 143.993 94.0764 144.195 93.954 144.348C93.8315 144.501 93.6836 144.612 93.5102 144.681C93.3389 144.749 93.145 144.782 92.9288 144.782C92.7574 144.782 92.5993 144.761 92.4545 144.718C92.3096 144.675 92.179 144.607 92.0628 144.513C91.9485 144.417 91.8506 144.293 91.769 144.14C91.6874 143.987 91.6252 143.801 91.5823 143.583C91.5395 143.365 91.518 143.109 91.518 142.818V142.138C91.518 141.773 91.5507 141.467 91.616 141.22C91.6833 140.973 91.7782 140.776 91.9006 140.627C92.023 140.476 92.1699 140.368 92.3412 140.302C92.5146 140.237 92.7085 140.204 92.9227 140.204C93.0961 140.204 93.2552 140.226 93.4001 140.269C93.5469 140.309 93.6775 140.376 93.7918 140.468C93.906 140.557 94.0029 140.678 94.0825 140.829C94.1641 140.978 94.2263 141.16 94.2692 141.376C94.312 141.593 94.3334 141.847 94.3334 142.138ZM93.7642 142.91V142.044C93.7642 141.844 93.752 141.668 93.7275 141.517C93.7051 141.364 93.6714 141.234 93.6265 141.125C93.5816 141.017 93.5245 140.93 93.4551 140.862C93.3878 140.795 93.3093 140.746 93.2195 140.715C93.1318 140.683 93.0328 140.666 92.9227 140.666C92.788 140.666 92.6687 140.692 92.5646 140.743C92.4606 140.792 92.3729 140.87 92.3015 140.979C92.2321 141.087 92.179 141.229 92.1423 141.404C92.1056 141.579 92.0872 141.793 92.0872 142.044V142.91C92.0872 143.109 92.0985 143.286 92.1209 143.439C92.1454 143.592 92.1811 143.725 92.228 143.837C92.2749 143.947 92.3321 144.038 92.3994 144.109C92.4667 144.181 92.5442 144.234 92.632 144.268C92.7217 144.301 92.8207 144.317 92.9288 144.317C93.0675 144.317 93.1889 144.291 93.293 144.238C93.397 144.185 93.4837 144.102 93.5531 143.99C93.6245 143.876 93.6775 143.73 93.7122 143.552C93.7469 143.373 93.7642 143.158 93.7642 142.91Z" fill="#141414"/>
<path d="M90.8907 108.88V109.199L89.0454 113.336H88.4487L90.2909 109.345H87.8795V108.88H90.8907ZM92.2525 111.215L91.7996 111.099L92.023 108.88H94.3089V109.404H92.5034L92.3688 110.615C92.4504 110.569 92.5534 110.525 92.6779 110.484C92.8043 110.443 92.9492 110.423 93.1124 110.423C93.3185 110.423 93.5031 110.458 93.6663 110.53C93.8295 110.599 93.9682 110.699 94.0825 110.83C94.1988 110.96 94.2875 111.117 94.3487 111.301C94.4099 111.485 94.4405 111.69 94.4405 111.916C94.4405 112.13 94.4109 112.327 94.3518 112.507C94.2947 112.686 94.2079 112.843 94.0917 112.978C93.9754 113.111 93.8285 113.214 93.651 113.287C93.4755 113.36 93.2685 113.397 93.0298 113.397C92.8502 113.397 92.6799 113.373 92.5187 113.324C92.3596 113.273 92.2168 113.196 92.0903 113.094C91.9659 112.99 91.8639 112.862 91.7843 112.709C91.7068 112.554 91.6578 112.372 91.6374 112.164H92.176C92.2005 112.331 92.2494 112.472 92.3229 112.586C92.3963 112.7 92.4922 112.787 92.6105 112.846C92.7309 112.903 92.8706 112.932 93.0298 112.932C93.1644 112.932 93.2838 112.909 93.3878 112.862C93.4919 112.815 93.5796 112.747 93.651 112.66C93.7224 112.572 93.7765 112.466 93.8132 112.341C93.8519 112.217 93.8713 112.077 93.8713 111.922C93.8713 111.781 93.8519 111.651 93.8132 111.53C93.7744 111.41 93.7163 111.305 93.6388 111.215C93.5633 111.125 93.4704 111.056 93.3603 111.007C93.2501 110.956 93.1236 110.931 92.9808 110.931C92.7911 110.931 92.6473 110.956 92.5493 111.007C92.4534 111.058 92.3545 111.128 92.2525 111.215Z" fill="#141414"/>
<path d="M86.2346 77.4691V81.9492H85.6684V78.176L84.527 78.5922V78.0811L86.1458 77.4691H86.2346ZM90.6963 79.3664V80.0458C90.6963 80.411 90.6637 80.719 90.5984 80.97C90.5331 81.2209 90.4392 81.4229 90.3168 81.5759C90.1944 81.7289 90.0465 81.8401 89.8731 81.9094C89.7017 81.9768 89.5079 82.0104 89.2917 82.0104C89.1203 82.0104 88.9622 81.989 88.8173 81.9462C88.6725 81.9033 88.5419 81.835 88.4256 81.7411C88.3114 81.6452 88.2135 81.5208 88.1319 81.3678C88.0503 81.2148 87.988 81.0291 87.9452 80.8108C87.9024 80.5925 87.8809 80.3375 87.8809 80.0458V79.3664C87.8809 79.0012 87.9136 78.6952 87.9789 78.4484C88.0462 78.2015 88.141 78.0036 88.2635 77.8547C88.3859 77.7037 88.5327 77.5956 88.7041 77.5303C88.8775 77.465 89.0713 77.4324 89.2856 77.4324C89.459 77.4324 89.6181 77.4538 89.7629 77.4967C89.9098 77.5375 90.0404 77.6038 90.1546 77.6956C90.2689 77.7853 90.3658 77.9057 90.4454 78.0567C90.527 78.2056 90.5892 78.3882 90.632 78.6044C90.6749 78.8207 90.6963 79.0747 90.6963 79.3664ZM90.1271 80.1376V79.2716C90.1271 79.0716 90.1149 78.8962 90.0904 78.7452C90.0679 78.5922 90.0343 78.4616 89.9894 78.3535C89.9445 78.2454 89.8874 78.1577 89.818 78.0903C89.7507 78.023 89.6722 77.974 89.5824 77.9434C89.4947 77.9108 89.3957 77.8945 89.2856 77.8945C89.1509 77.8945 89.0316 77.92 88.9275 77.971C88.8235 78.0199 88.7357 78.0985 88.6643 78.2066C88.595 78.3147 88.5419 78.4565 88.5052 78.632C88.4685 78.8074 88.4501 79.0206 88.4501 79.2716V80.1376C88.4501 80.3375 88.4613 80.514 88.4838 80.667C88.5083 80.82 88.544 80.9526 88.5909 81.0648C88.6378 81.175 88.6949 81.2658 88.7623 81.3372C88.8296 81.4086 88.9071 81.4616 88.9948 81.4963C89.0846 81.529 89.1835 81.5453 89.2917 81.5453C89.4304 81.5453 89.5518 81.5188 89.6558 81.4657C89.7599 81.4127 89.8466 81.33 89.916 81.2178C89.9874 81.1036 90.0404 80.9577 90.0751 80.7802C90.1098 80.6007 90.1271 80.3865 90.1271 80.1376ZM94.2216 79.3664V80.0458C94.2216 80.411 94.189 80.719 94.1237 80.97C94.0584 81.2209 93.9646 81.4229 93.8422 81.5759C93.7198 81.7289 93.5718 81.8401 93.3984 81.9094C93.2271 81.9768 93.0333 82.0104 92.817 82.0104C92.6456 82.0104 92.4875 81.989 92.3427 81.9462C92.1978 81.9033 92.0673 81.835 91.951 81.7411C91.8367 81.6452 91.7388 81.5208 91.6572 81.3678C91.5756 81.2148 91.5134 81.0291 91.4705 80.8108C91.4277 80.5925 91.4063 80.3375 91.4063 80.0458V79.3664C91.4063 79.0012 91.4389 78.6952 91.5042 78.4484C91.5715 78.2015 91.6664 78.0036 91.7888 77.8547C91.9112 77.7037 92.0581 77.5956 92.2294 77.5303C92.4029 77.465 92.5967 77.4324 92.8109 77.4324C92.9843 77.4324 93.1434 77.4538 93.2883 77.4967C93.4352 77.5375 93.5657 77.6038 93.68 77.6956C93.7942 77.7853 93.8911 77.9057 93.9707 78.0567C94.0523 78.2056 94.1145 78.3882 94.1574 78.6044C94.2002 78.8207 94.2216 79.0747 94.2216 79.3664ZM93.6524 80.1376V79.2716C93.6524 79.0716 93.6402 78.8962 93.6157 78.7452C93.5933 78.5922 93.5596 78.4616 93.5147 78.3535C93.4698 78.2454 93.4127 78.1577 93.3434 78.0903C93.276 78.023 93.1975 77.974 93.1077 77.9434C93.02 77.9108 92.921 77.8945 92.8109 77.8945C92.6762 77.8945 92.5569 77.92 92.4528 77.971C92.3488 78.0199 92.2611 78.0985 92.1897 78.2066C92.1203 78.3147 92.0673 78.4565 92.0305 78.632C91.9938 78.8074 91.9755 79.0206 91.9755 79.2716V80.1376C91.9755 80.3375 91.9867 80.514 92.0091 80.667C92.0336 80.82 92.0693 80.9526 92.1162 81.0648C92.1631 81.175 92.2203 81.2658 92.2876 81.3372C92.3549 81.4086 92.4324 81.4616 92.5202 81.4963C92.6099 81.529 92.7089 81.5453 92.817 81.5453C92.9557 81.5453 93.0771 81.5188 93.1812 81.4657C93.2852 81.4127 93.3719 81.33 93.4413 81.2178C93.5127 81.1036 93.5657 80.9577 93.6004 80.7802C93.6351 80.6007 93.6524 80.3865 93.6524 80.1376Z" fill="#141414"/>
<path d="M89.3042 210.363H89.8765L91.3362 213.995L92.7928 210.363H93.3682L91.5565 214.818H91.1097L89.3042 210.363ZM89.1176 210.363H89.6225L89.7051 213.08V214.818H89.1176V210.363ZM93.0468 210.363H93.5518V214.818H92.9642V213.08L93.0468 210.363ZM94.3535 213.2V213.129C94.3535 212.89 94.3882 212.669 94.4576 212.465C94.5269 212.259 94.6269 212.081 94.7575 211.93C94.888 211.777 95.0462 211.658 95.2318 211.575C95.4175 211.489 95.6255 211.446 95.8561 211.446C96.0887 211.446 96.2978 211.489 96.4834 211.575C96.6711 211.658 96.8302 211.777 96.9608 211.93C97.0934 212.081 97.1944 212.259 97.2638 212.465C97.3331 212.669 97.3678 212.89 97.3678 213.129V213.2C97.3678 213.438 97.3331 213.66 97.2638 213.864C97.1944 214.068 97.0934 214.246 96.9608 214.399C96.8302 214.55 96.6721 214.668 96.4865 214.754C96.3029 214.838 96.0948 214.88 95.8622 214.88C95.6296 214.88 95.4205 214.838 95.2349 214.754C95.0492 214.668 94.8901 214.55 94.7575 214.399C94.6269 214.246 94.5269 214.068 94.4576 213.864C94.3882 213.66 94.3535 213.438 94.3535 213.2ZM94.9197 213.129V213.2C94.9197 213.365 94.939 213.521 94.9778 213.668C95.0166 213.813 95.0747 213.941 95.1522 214.053C95.2318 214.166 95.3307 214.254 95.4491 214.32C95.5674 214.383 95.7051 214.414 95.8622 214.414C96.0172 214.414 96.1529 214.383 96.2692 214.32C96.3875 214.254 96.4855 214.166 96.563 214.053C96.6405 213.941 96.6986 213.813 96.7374 213.668C96.7782 213.521 96.7986 213.365 96.7986 213.2V213.129C96.7986 212.966 96.7782 212.812 96.7374 212.667C96.6986 212.52 96.6395 212.391 96.5599 212.278C96.4824 212.164 96.3845 212.074 96.2661 212.009C96.1499 211.944 96.0132 211.911 95.8561 211.911C95.701 211.911 95.5643 211.944 95.446 212.009C95.3297 212.074 95.2318 212.164 95.1522 212.278C95.0747 212.391 95.0166 212.52 94.9778 212.667C94.939 212.812 94.9197 212.966 94.9197 213.129ZM98.6439 212.214V214.818H98.0778V211.507H98.6133L98.6439 212.214ZM98.5093 213.037L98.2736 213.028C98.2757 212.802 98.3093 212.593 98.3746 212.401C98.4399 212.207 98.5317 212.039 98.65 211.896C98.7684 211.753 98.9091 211.643 99.0723 211.565C99.2376 211.486 99.4202 211.446 99.6201 211.446C99.7833 211.446 99.9302 211.468 100.061 211.513C100.191 211.556 100.303 211.626 100.394 211.721C100.488 211.817 100.56 211.942 100.609 212.095C100.658 212.246 100.682 212.43 100.682 212.649V214.818H100.113V212.643C100.113 212.469 100.087 212.33 100.036 212.226C99.9853 212.12 99.9108 212.044 99.8129 211.997C99.715 211.948 99.5946 211.923 99.4518 211.923C99.311 211.923 99.1825 211.953 99.0662 212.012C98.952 212.071 98.853 212.153 98.7694 212.257C98.6878 212.361 98.6235 212.48 98.5766 212.615C98.5317 212.748 98.5093 212.888 98.5093 213.037ZM103.629 214.176V210.118H104.198V214.818H103.678L103.629 214.176ZM101.401 213.2V213.135C101.401 212.882 101.432 212.653 101.493 212.447C101.556 212.239 101.645 212.06 101.759 211.911C101.875 211.762 102.013 211.648 102.172 211.568C102.333 211.487 102.513 211.446 102.711 211.446C102.919 211.446 103.101 211.483 103.256 211.556C103.413 211.628 103.545 211.733 103.653 211.871C103.764 212.008 103.85 212.173 103.914 212.367C103.977 212.561 104.021 212.78 104.045 213.025V213.307C104.023 213.549 103.979 213.768 103.914 213.962C103.85 214.155 103.764 214.321 103.653 214.457C103.545 214.594 103.413 214.699 103.256 214.772C103.099 214.844 102.915 214.88 102.705 214.88C102.511 214.88 102.333 214.838 102.172 214.754C102.013 214.67 101.875 214.553 101.759 214.402C101.645 214.251 101.556 214.074 101.493 213.87C101.432 213.664 101.401 213.44 101.401 213.2ZM101.97 213.135V213.2C101.97 213.365 101.987 213.52 102.019 213.665C102.054 213.81 102.107 213.937 102.178 214.047C102.25 214.157 102.341 214.244 102.451 214.307C102.561 214.369 102.693 214.399 102.846 214.399C103.033 214.399 103.187 214.359 103.308 214.28C103.43 214.2 103.528 214.095 103.601 213.965C103.675 213.834 103.732 213.692 103.773 213.539V212.802C103.748 212.689 103.713 212.581 103.666 212.477C103.621 212.371 103.562 212.277 103.488 212.196C103.417 212.112 103.328 212.046 103.222 211.997C103.118 211.948 102.994 211.923 102.852 211.923C102.697 211.923 102.563 211.956 102.451 212.021C102.341 212.085 102.25 212.172 102.178 212.285C102.107 212.395 102.054 212.523 102.019 212.67C101.987 212.815 101.97 212.97 101.97 213.135ZM107.032 214.252V212.548C107.032 212.417 107.005 212.304 106.952 212.208C106.901 212.11 106.824 212.035 106.72 211.982C106.616 211.929 106.487 211.902 106.334 211.902C106.191 211.902 106.066 211.926 105.958 211.975C105.852 212.024 105.768 212.089 105.707 212.168C105.648 212.248 105.618 212.333 105.618 212.425H105.052C105.052 212.307 105.083 212.19 105.144 212.073C105.205 211.957 105.293 211.852 105.407 211.758C105.523 211.662 105.662 211.587 105.823 211.532C105.986 211.475 106.168 211.446 106.368 211.446C106.609 211.446 106.821 211.487 107.004 211.568C107.19 211.65 107.335 211.773 107.439 211.939C107.545 212.102 107.598 212.307 107.598 212.554V214.096C107.598 214.206 107.607 214.324 107.626 214.448C107.646 214.573 107.676 214.68 107.714 214.769V214.818H107.124C107.095 214.753 107.073 214.666 107.056 214.558C107.04 214.448 107.032 214.346 107.032 214.252ZM107.13 212.811L107.136 213.209H106.564C106.402 213.209 106.259 213.222 106.132 213.248C106.006 213.273 105.9 213.311 105.814 213.362C105.728 213.413 105.663 213.477 105.618 213.555C105.573 213.63 105.551 213.719 105.551 213.821C105.551 213.925 105.574 214.02 105.621 214.105C105.668 214.191 105.738 214.259 105.832 214.31C105.928 214.359 106.045 214.384 106.184 214.384C106.358 214.384 106.511 214.347 106.643 214.274C106.776 214.2 106.881 214.11 106.958 214.004C107.038 213.898 107.081 213.795 107.087 213.695L107.329 213.968C107.314 214.053 107.276 214.148 107.212 214.252C107.149 214.356 107.065 214.456 106.958 214.552C106.854 214.646 106.73 214.725 106.585 214.788C106.442 214.849 106.281 214.88 106.102 214.88C105.877 214.88 105.68 214.836 105.511 214.748C105.344 214.66 105.213 214.543 105.119 214.396C105.027 214.247 104.982 214.081 104.982 213.897C104.982 213.72 105.016 213.564 105.086 213.429C105.155 213.292 105.255 213.179 105.385 213.089C105.516 212.998 105.673 212.928 105.857 212.881C106.04 212.834 106.245 212.811 106.472 212.811H107.13ZM109.37 214.476L110.291 211.507H110.897L109.569 215.329C109.538 215.411 109.497 215.499 109.446 215.593C109.397 215.688 109.334 215.779 109.257 215.865C109.179 215.951 109.085 216.02 108.975 216.073C108.867 216.128 108.737 216.156 108.586 216.156C108.542 216.156 108.484 216.15 108.415 216.137C108.346 216.125 108.297 216.115 108.268 216.107L108.265 215.648C108.281 215.65 108.307 215.652 108.342 215.654C108.378 215.658 108.404 215.66 108.418 215.66C108.547 215.66 108.656 215.643 108.746 215.608C108.835 215.575 108.911 215.519 108.972 215.44C109.035 215.362 109.089 215.255 109.134 215.118L109.37 214.476ZM108.694 211.507L109.553 214.078L109.7 214.675L109.293 214.883L108.075 211.507H108.694Z" fill="#141414"/>
<path d="M125.008 210.363V214.818H124.427V210.363H125.008ZM126.44 210.363V210.846H122.997V210.363H126.44ZM128.748 214.053V211.507H129.317V214.818H128.775L128.748 214.053ZM128.855 213.356L129.09 213.349C129.09 213.57 129.067 213.774 129.02 213.962C128.975 214.147 128.902 214.308 128.8 214.445C128.698 214.582 128.564 214.689 128.399 214.766C128.233 214.842 128.032 214.88 127.796 214.88C127.635 214.88 127.487 214.856 127.352 214.809C127.219 214.762 127.105 214.69 127.009 214.592C126.913 214.494 126.839 214.366 126.786 214.209C126.735 214.052 126.709 213.864 126.709 213.643V211.507H127.276V213.649C127.276 213.798 127.292 213.922 127.325 214.02C127.359 214.116 127.405 214.192 127.462 214.249C127.521 214.304 127.587 214.343 127.658 214.365C127.732 214.388 127.807 214.399 127.885 214.399C128.125 214.399 128.316 214.353 128.457 214.261C128.598 214.168 128.699 214.042 128.76 213.885C128.823 213.726 128.855 213.549 128.855 213.356ZM131.554 214.88C131.323 214.88 131.114 214.841 130.926 214.763C130.741 214.684 130.581 214.573 130.446 214.43C130.313 214.287 130.211 214.118 130.14 213.922C130.069 213.726 130.033 213.512 130.033 213.279V213.151C130.033 212.881 130.073 212.642 130.152 212.431C130.232 212.219 130.34 212.04 130.477 211.893C130.613 211.746 130.768 211.635 130.942 211.559C131.115 211.484 131.295 211.446 131.48 211.446C131.717 211.446 131.921 211.487 132.092 211.568C132.266 211.65 132.408 211.764 132.518 211.911C132.628 212.056 132.709 212.227 132.762 212.425C132.816 212.621 132.842 212.835 132.842 213.068V213.322H130.369V212.86H132.276V212.817C132.268 212.67 132.237 212.527 132.184 212.389C132.133 212.25 132.052 212.136 131.939 212.046C131.827 211.956 131.674 211.911 131.48 211.911C131.352 211.911 131.233 211.939 131.125 211.994C131.017 212.047 130.924 212.126 130.847 212.233C130.769 212.339 130.709 212.468 130.666 212.621C130.623 212.774 130.602 212.951 130.602 213.151V213.279C130.602 213.436 130.623 213.584 130.666 213.723C130.711 213.86 130.775 213.98 130.859 214.084C130.945 214.188 131.048 214.27 131.168 214.329C131.291 214.388 131.429 214.417 131.584 214.417C131.784 214.417 131.954 214.377 132.092 214.295C132.231 214.213 132.352 214.104 132.456 213.968L132.799 214.24C132.728 214.348 132.637 214.451 132.527 214.549C132.417 214.647 132.281 214.727 132.12 214.788C131.961 214.849 131.772 214.88 131.554 214.88ZM135.431 213.94C135.431 213.858 135.413 213.783 135.376 213.714C135.341 213.642 135.269 213.578 135.159 213.521C135.05 213.462 134.887 213.411 134.669 213.368C134.485 213.329 134.319 213.283 134.17 213.23C134.023 213.177 133.898 213.113 133.794 213.037C133.692 212.962 133.613 212.873 133.558 212.771C133.503 212.669 133.476 212.55 133.476 212.413C133.476 212.282 133.504 212.159 133.561 212.043C133.62 211.926 133.703 211.823 133.809 211.734C133.917 211.644 134.047 211.574 134.198 211.523C134.349 211.472 134.517 211.446 134.703 211.446C134.968 211.446 135.194 211.493 135.382 211.587C135.57 211.681 135.714 211.806 135.813 211.963C135.913 212.118 135.963 212.291 135.963 212.48H135.397C135.397 212.389 135.37 212.3 135.315 212.214C135.262 212.126 135.183 212.054 135.079 211.997C134.977 211.94 134.852 211.911 134.703 211.911C134.546 211.911 134.418 211.936 134.32 211.985C134.224 212.032 134.154 212.092 134.109 212.165C134.066 212.239 134.045 212.316 134.045 212.398C134.045 212.459 134.055 212.514 134.075 212.563C134.098 212.61 134.137 212.654 134.192 212.695C134.247 212.733 134.324 212.77 134.424 212.805C134.524 212.839 134.652 212.874 134.807 212.909C135.078 212.97 135.301 213.043 135.477 213.129C135.652 213.215 135.783 213.32 135.869 213.444C135.954 213.569 135.997 213.72 135.997 213.897C135.997 214.042 135.966 214.175 135.905 214.295C135.846 214.415 135.759 214.519 135.645 214.607C135.533 214.693 135.398 214.76 135.241 214.809C135.086 214.856 134.912 214.88 134.718 214.88C134.426 214.88 134.179 214.828 133.977 214.723C133.775 214.619 133.622 214.485 133.518 214.32C133.414 214.154 133.362 213.98 133.362 213.796H133.931C133.94 213.951 133.985 214.075 134.066 214.167C134.148 214.256 134.248 214.321 134.366 214.359C134.484 214.396 134.602 214.414 134.718 214.414C134.873 214.414 135.003 214.394 135.107 214.353C135.213 214.312 135.293 214.256 135.348 214.185C135.403 214.113 135.431 214.032 135.431 213.94ZM138.828 214.176V210.118H139.397V214.818H138.877L138.828 214.176ZM136.6 213.2V213.135C136.6 212.882 136.631 212.653 136.692 212.447C136.755 212.239 136.844 212.06 136.958 211.911C137.074 211.762 137.212 211.648 137.371 211.568C137.532 211.487 137.712 211.446 137.91 211.446C138.118 211.446 138.299 211.483 138.454 211.556C138.612 211.628 138.744 211.733 138.852 211.871C138.962 212.008 139.049 212.173 139.112 212.367C139.176 212.561 139.219 212.78 139.244 213.025V213.307C139.222 213.549 139.178 213.768 139.112 213.962C139.049 214.155 138.962 214.321 138.852 214.457C138.744 214.594 138.612 214.699 138.454 214.772C138.297 214.844 138.114 214.88 137.904 214.88C137.71 214.88 137.532 214.838 137.371 214.754C137.212 214.67 137.074 214.553 136.958 214.402C136.844 214.251 136.755 214.074 136.692 213.87C136.631 213.664 136.6 213.44 136.6 213.2ZM137.169 213.135V213.2C137.169 213.365 137.185 213.52 137.218 213.665C137.253 213.81 137.306 213.937 137.377 214.047C137.449 214.157 137.539 214.244 137.65 214.307C137.76 214.369 137.891 214.399 138.044 214.399C138.232 214.399 138.386 214.359 138.506 214.28C138.629 214.2 138.727 214.095 138.8 213.965C138.874 213.834 138.931 213.692 138.972 213.539V212.802C138.947 212.689 138.911 212.581 138.864 212.477C138.82 212.371 138.76 212.277 138.687 212.196C138.616 212.112 138.527 212.046 138.421 211.997C138.317 211.948 138.193 211.923 138.05 211.923C137.895 211.923 137.762 211.956 137.65 212.021C137.539 212.085 137.449 212.172 137.377 212.285C137.306 212.395 137.253 212.523 137.218 212.67C137.185 212.815 137.169 212.97 137.169 213.135ZM142.231 214.252V212.548C142.231 212.417 142.204 212.304 142.151 212.208C142.1 212.11 142.023 212.035 141.919 211.982C141.815 211.929 141.686 211.902 141.533 211.902C141.39 211.902 141.265 211.926 141.157 211.975C141.05 212.024 140.967 212.089 140.906 212.168C140.846 212.248 140.817 212.333 140.817 212.425H140.251C140.251 212.307 140.281 212.19 140.343 212.073C140.404 211.957 140.491 211.852 140.606 211.758C140.722 211.662 140.861 211.587 141.022 211.532C141.185 211.475 141.367 211.446 141.567 211.446C141.807 211.446 142.02 211.487 142.203 211.568C142.389 211.65 142.534 211.773 142.638 211.939C142.744 212.102 142.797 212.307 142.797 212.554V214.096C142.797 214.206 142.806 214.324 142.824 214.448C142.845 214.573 142.874 214.68 142.913 214.769V214.818H142.322C142.294 214.753 142.271 214.666 142.255 214.558C142.239 214.448 142.231 214.346 142.231 214.252ZM142.329 212.811L142.335 213.209H141.762C141.601 213.209 141.457 213.222 141.331 213.248C141.205 213.273 141.098 213.311 141.013 213.362C140.927 213.413 140.862 213.477 140.817 213.555C140.772 213.63 140.75 213.719 140.75 213.821C140.75 213.925 140.773 214.02 140.82 214.105C140.867 214.191 140.937 214.259 141.031 214.31C141.127 214.359 141.244 214.384 141.383 214.384C141.556 214.384 141.709 214.347 141.842 214.274C141.975 214.2 142.08 214.11 142.157 214.004C142.237 213.898 142.28 213.795 142.286 213.695L142.528 213.968C142.513 214.053 142.474 214.148 142.411 214.252C142.348 214.356 142.263 214.456 142.157 214.552C142.053 214.646 141.929 214.725 141.784 214.788C141.641 214.849 141.48 214.88 141.3 214.88C141.076 214.88 140.879 214.836 140.71 214.748C140.542 214.66 140.412 214.543 140.318 214.396C140.226 214.247 140.18 214.081 140.18 213.897C140.18 213.72 140.215 213.564 140.284 213.429C140.354 213.292 140.454 213.179 140.584 213.089C140.715 212.998 140.872 212.928 141.056 212.881C141.239 212.834 141.444 212.811 141.671 212.811H142.329ZM144.569 214.476L145.49 211.507H146.096L144.768 215.329C144.737 215.411 144.696 215.499 144.645 215.593C144.596 215.688 144.533 215.779 144.455 215.865C144.378 215.951 144.284 216.02 144.174 216.073C144.066 216.128 143.936 216.156 143.785 216.156C143.74 216.156 143.683 216.15 143.614 216.137C143.545 216.125 143.496 216.115 143.467 216.107L143.464 215.648C143.48 215.65 143.506 215.652 143.54 215.654C143.577 215.658 143.603 215.66 143.617 215.66C143.745 215.66 143.855 215.643 143.944 215.608C144.034 215.575 144.11 215.519 144.171 215.44C144.234 215.362 144.288 215.255 144.333 215.118L144.569 214.476ZM143.892 211.507L144.752 214.078L144.899 214.675L144.492 214.883L143.274 211.507H143.892Z" fill="#141414"/>
<path d="M154.192 213.472L155.077 210.363H155.505L155.257 211.572L154.306 214.818H153.88L154.192 213.472ZM153.277 210.363L153.981 213.411L154.192 214.818H153.77L152.69 210.363H153.277ZM156.65 213.408L157.338 210.363H157.929L156.852 214.818H156.429L156.65 213.408ZM155.57 210.363L156.429 213.472L156.742 214.818H156.316L155.398 211.572L155.147 210.363H155.57ZM159.774 214.88C159.544 214.88 159.335 214.841 159.147 214.763C158.961 214.684 158.801 214.573 158.666 214.43C158.534 214.287 158.432 214.118 158.36 213.922C158.289 213.726 158.253 213.512 158.253 213.279V213.151C158.253 212.881 158.293 212.642 158.373 212.431C158.452 212.219 158.56 212.04 158.697 211.893C158.834 211.746 158.989 211.635 159.162 211.559C159.336 211.484 159.515 211.446 159.701 211.446C159.937 211.446 160.141 211.487 160.313 211.568C160.486 211.65 160.628 211.764 160.738 211.911C160.848 212.056 160.93 212.227 160.983 212.425C161.036 212.621 161.063 212.835 161.063 213.068V213.322H158.59V212.86H160.496V212.817C160.488 212.67 160.458 212.527 160.405 212.389C160.354 212.25 160.272 212.136 160.16 212.046C160.048 211.956 159.895 211.911 159.701 211.911C159.572 211.911 159.454 211.939 159.346 211.994C159.238 212.047 159.145 212.126 159.067 212.233C158.99 212.339 158.93 212.468 158.887 212.621C158.844 212.774 158.823 212.951 158.823 213.151V213.279C158.823 213.436 158.844 213.584 158.887 213.723C158.932 213.86 158.996 213.98 159.08 214.084C159.165 214.188 159.268 214.27 159.389 214.329C159.511 214.388 159.65 214.417 159.805 214.417C160.005 214.417 160.174 214.377 160.313 214.295C160.452 214.213 160.573 214.104 160.677 213.968L161.02 214.24C160.948 214.348 160.858 214.451 160.747 214.549C160.637 214.647 160.502 214.727 160.34 214.788C160.181 214.849 159.993 214.88 159.774 214.88ZM163.811 214.176V210.118H164.38V214.818H163.86L163.811 214.176ZM161.583 213.2V213.135C161.583 212.882 161.613 212.653 161.675 212.447C161.738 212.239 161.827 212.06 161.941 211.911C162.057 211.762 162.195 211.648 162.354 211.568C162.515 211.487 162.695 211.446 162.893 211.446C163.101 211.446 163.282 211.483 163.437 211.556C163.594 211.628 163.727 211.733 163.835 211.871C163.945 212.008 164.032 212.173 164.095 212.367C164.158 212.561 164.202 212.78 164.227 213.025V213.307C164.204 213.549 164.161 213.768 164.095 213.962C164.032 214.155 163.945 214.321 163.835 214.457C163.727 214.594 163.594 214.699 163.437 214.772C163.28 214.844 163.097 214.88 162.886 214.88C162.693 214.88 162.515 214.838 162.354 214.754C162.195 214.67 162.057 214.553 161.941 214.402C161.827 214.251 161.738 214.074 161.675 213.87C161.613 213.664 161.583 213.44 161.583 213.2ZM162.152 213.135V213.2C162.152 213.365 162.168 213.52 162.201 213.665C162.236 213.81 162.289 213.937 162.36 214.047C162.432 214.157 162.522 214.244 162.632 214.307C162.743 214.369 162.874 214.399 163.027 214.399C163.215 214.399 163.369 214.359 163.489 214.28C163.612 214.2 163.71 214.095 163.783 213.965C163.857 213.834 163.914 213.692 163.954 213.539V212.802C163.93 212.689 163.894 212.581 163.847 212.477C163.802 212.371 163.743 212.277 163.67 212.196C163.598 212.112 163.51 212.046 163.404 211.997C163.3 211.948 163.176 211.923 163.033 211.923C162.878 211.923 162.745 211.956 162.632 212.021C162.522 212.085 162.432 212.172 162.36 212.285C162.289 212.395 162.236 212.523 162.201 212.67C162.168 212.815 162.152 212.97 162.152 213.135ZM165.827 212.214V214.818H165.261V211.507H165.797L165.827 212.214ZM165.693 213.037L165.457 213.028C165.459 212.802 165.493 212.593 165.558 212.401C165.623 212.207 165.715 212.039 165.833 211.896C165.952 211.753 166.093 211.643 166.256 211.565C166.421 211.486 166.604 211.446 166.803 211.446C166.967 211.446 167.114 211.468 167.244 211.513C167.375 211.556 167.486 211.626 167.578 211.721C167.672 211.817 167.743 211.942 167.792 212.095C167.841 212.246 167.865 212.43 167.865 212.649V214.818H167.296V212.643C167.296 212.469 167.271 212.33 167.22 212.226C167.169 212.12 167.094 212.044 166.996 211.997C166.898 211.948 166.778 211.923 166.635 211.923C166.494 211.923 166.366 211.953 166.25 212.012C166.135 212.071 166.036 212.153 165.953 212.257C165.871 212.361 165.807 212.48 165.76 212.615C165.715 212.748 165.693 212.888 165.693 213.037ZM170.099 214.88C169.869 214.88 169.66 214.841 169.472 214.763C169.286 214.684 169.126 214.573 168.992 214.43C168.859 214.287 168.757 214.118 168.686 213.922C168.614 213.726 168.578 213.512 168.578 213.279V213.151C168.578 212.881 168.618 212.642 168.698 212.431C168.777 212.219 168.885 212.04 169.022 211.893C169.159 211.746 169.314 211.635 169.487 211.559C169.661 211.484 169.84 211.446 170.026 211.446C170.263 211.446 170.467 211.487 170.638 211.568C170.811 211.65 170.953 211.764 171.063 211.911C171.173 212.056 171.255 212.227 171.308 212.425C171.361 212.621 171.388 212.835 171.388 213.068V213.322H168.915V212.86H170.822V212.817C170.813 212.67 170.783 212.527 170.73 212.389C170.679 212.25 170.597 212.136 170.485 212.046C170.373 211.956 170.22 211.911 170.026 211.911C169.897 211.911 169.779 211.939 169.671 211.994C169.563 212.047 169.47 212.126 169.392 212.233C169.315 212.339 169.255 212.468 169.212 212.621C169.169 212.774 169.148 212.951 169.148 213.151V213.279C169.148 213.436 169.169 213.584 169.212 213.723C169.257 213.86 169.321 213.98 169.405 214.084C169.49 214.188 169.593 214.27 169.714 214.329C169.836 214.388 169.975 214.417 170.13 214.417C170.33 214.417 170.499 214.377 170.638 214.295C170.777 214.213 170.898 214.104 171.002 213.968L171.345 214.24C171.273 214.348 171.183 214.451 171.072 214.549C170.962 214.647 170.827 214.727 170.665 214.788C170.506 214.849 170.318 214.88 170.099 214.88ZM173.977 213.94C173.977 213.858 173.958 213.783 173.921 213.714C173.887 213.642 173.814 213.578 173.704 213.521C173.596 213.462 173.433 213.411 173.215 213.368C173.031 213.329 172.865 213.283 172.716 213.23C172.569 213.177 172.443 213.113 172.339 213.037C172.237 212.962 172.159 212.873 172.104 212.771C172.049 212.669 172.021 212.55 172.021 212.413C172.021 212.282 172.05 212.159 172.107 212.043C172.166 211.926 172.249 211.823 172.355 211.734C172.463 211.644 172.592 211.574 172.743 211.523C172.894 211.472 173.063 211.446 173.248 211.446C173.513 211.446 173.74 211.493 173.928 211.587C174.115 211.681 174.259 211.806 174.359 211.963C174.459 212.118 174.509 212.291 174.509 212.48H173.943C173.943 212.389 173.915 212.3 173.86 212.214C173.807 212.126 173.729 212.054 173.625 211.997C173.523 211.94 173.397 211.911 173.248 211.911C173.091 211.911 172.964 211.936 172.866 211.985C172.77 212.032 172.699 212.092 172.655 212.165C172.612 212.239 172.59 212.316 172.59 212.398C172.59 212.459 172.6 212.514 172.621 212.563C172.643 212.61 172.682 212.654 172.737 212.695C172.792 212.733 172.87 212.77 172.97 212.805C173.07 212.839 173.197 212.874 173.352 212.909C173.624 212.97 173.847 213.043 174.022 213.129C174.198 213.215 174.328 213.32 174.414 213.444C174.5 213.569 174.543 213.72 174.543 213.897C174.543 214.042 174.512 214.175 174.451 214.295C174.392 214.415 174.305 214.519 174.191 214.607C174.079 214.693 173.944 214.76 173.787 214.809C173.632 214.856 173.457 214.88 173.264 214.88C172.972 214.88 172.725 214.828 172.523 214.723C172.321 214.619 172.168 214.485 172.064 214.32C171.96 214.154 171.908 213.98 171.908 213.796H172.477C172.485 213.951 172.53 214.075 172.612 214.167C172.693 214.256 172.793 214.321 172.912 214.359C173.03 214.396 173.147 214.414 173.264 214.414C173.419 214.414 173.548 214.394 173.652 214.353C173.758 214.312 173.839 214.256 173.894 214.185C173.949 214.113 173.977 214.032 173.977 213.94ZM177.373 214.176V210.118H177.943V214.818H177.422L177.373 214.176ZM175.146 213.2V213.135C175.146 212.882 175.176 212.653 175.237 212.447C175.301 212.239 175.389 212.06 175.504 211.911C175.62 211.762 175.758 211.648 175.917 211.568C176.078 211.487 176.257 211.446 176.455 211.446C176.663 211.446 176.845 211.483 177 211.556C177.157 211.628 177.29 211.733 177.398 211.871C177.508 212.008 177.595 212.173 177.658 212.367C177.721 212.561 177.765 212.78 177.79 213.025V213.307C177.767 213.549 177.723 213.768 177.658 213.962C177.595 214.155 177.508 214.321 177.398 214.457C177.29 214.594 177.157 214.699 177 214.772C176.843 214.844 176.659 214.88 176.449 214.88C176.255 214.88 176.078 214.838 175.917 214.754C175.758 214.67 175.62 214.553 175.504 214.402C175.389 214.251 175.301 214.074 175.237 213.87C175.176 213.664 175.146 213.44 175.146 213.2ZM175.715 213.135V213.2C175.715 213.365 175.731 213.52 175.764 213.665C175.798 213.81 175.851 213.937 175.923 214.047C175.994 214.157 176.085 214.244 176.195 214.307C176.305 214.369 176.437 214.399 176.59 214.399C176.778 214.399 176.932 214.359 177.052 214.28C177.174 214.2 177.272 214.095 177.346 213.965C177.419 213.834 177.476 213.692 177.517 213.539V212.802C177.493 212.689 177.457 212.581 177.41 212.477C177.365 212.371 177.306 212.277 177.233 212.196C177.161 212.112 177.072 212.046 176.966 211.997C176.862 211.948 176.739 211.923 176.596 211.923C176.441 211.923 176.307 211.956 176.195 212.021C176.085 212.085 175.994 212.172 175.923 212.285C175.851 212.395 175.798 212.523 175.764 212.67C175.731 212.815 175.715 212.97 175.715 213.135ZM180.776 214.252V212.548C180.776 212.417 180.75 212.304 180.697 212.208C180.646 212.11 180.568 212.035 180.464 211.982C180.36 211.929 180.232 211.902 180.079 211.902C179.936 211.902 179.81 211.926 179.702 211.975C179.596 212.024 179.512 212.089 179.451 212.168C179.392 212.248 179.362 212.333 179.362 212.425H178.796C178.796 212.307 178.827 212.19 178.888 212.073C178.949 211.957 179.037 211.852 179.151 211.758C179.268 211.662 179.406 211.587 179.568 211.532C179.731 211.475 179.912 211.446 180.112 211.446C180.353 211.446 180.565 211.487 180.749 211.568C180.934 211.65 181.079 211.773 181.183 211.939C181.289 212.102 181.342 212.307 181.342 212.554V214.096C181.342 214.206 181.352 214.324 181.37 214.448C181.39 214.573 181.42 214.68 181.459 214.769V214.818H180.868C180.84 214.753 180.817 214.666 180.801 214.558C180.784 214.448 180.776 214.346 180.776 214.252ZM180.874 212.811L180.88 213.209H180.308C180.147 213.209 180.003 213.222 179.877 213.248C179.75 213.273 179.644 213.311 179.558 213.362C179.473 213.413 179.407 213.477 179.362 213.555C179.318 213.63 179.295 213.719 179.295 213.821C179.295 213.925 179.319 214.02 179.366 214.105C179.412 214.191 179.483 214.259 179.577 214.31C179.673 214.359 179.79 214.384 179.929 214.384C180.102 214.384 180.255 214.347 180.388 214.274C180.52 214.2 180.625 214.11 180.703 214.004C180.782 213.898 180.825 213.795 180.831 213.695L181.073 213.968C181.059 214.053 181.02 214.148 180.957 214.252C180.894 214.356 180.809 214.456 180.703 214.552C180.599 214.646 180.474 214.725 180.329 214.788C180.187 214.849 180.026 214.88 179.846 214.88C179.622 214.88 179.425 214.836 179.255 214.748C179.088 214.66 178.958 214.543 178.864 214.396C178.772 214.247 178.726 214.081 178.726 213.897C178.726 213.72 178.761 213.564 178.83 213.429C178.899 213.292 178.999 213.179 179.13 213.089C179.26 212.998 179.418 212.928 179.601 212.881C179.785 212.834 179.99 212.811 180.216 212.811H180.874ZM183.114 214.476L184.035 211.507H184.641L183.313 215.329C183.283 215.411 183.242 215.499 183.191 215.593C183.142 215.688 183.079 215.779 183.001 215.865C182.924 215.951 182.83 216.02 182.719 216.073C182.611 216.128 182.482 216.156 182.331 216.156C182.286 216.156 182.229 216.15 182.159 216.137C182.09 216.125 182.041 216.115 182.013 216.107L182.01 215.648C182.026 215.65 182.051 215.652 182.086 215.654C182.123 215.658 182.148 215.66 182.163 215.66C182.291 215.66 182.4 215.643 182.49 215.608C182.58 215.575 182.655 215.519 182.716 215.44C182.78 215.362 182.834 215.255 182.879 215.118L183.114 214.476ZM182.438 211.507L183.298 214.078L183.445 214.675L183.038 214.883L181.82 211.507H182.438Z" fill="#141414"/>
<path d="M192.635 210.363V214.818H192.053V210.363H192.635ZM194.067 210.363V210.846H190.624V210.363H194.067ZM195.208 210.118V214.818H194.642V210.118H195.208ZM195.074 213.037L194.838 213.028C194.84 212.802 194.874 212.593 194.939 212.401C195.004 212.207 195.096 212.039 195.215 211.896C195.333 211.753 195.474 211.643 195.637 211.565C195.802 211.486 195.985 211.446 196.185 211.446C196.348 211.446 196.495 211.468 196.625 211.513C196.756 211.556 196.867 211.626 196.959 211.721C197.053 211.817 197.124 211.942 197.173 212.095C197.222 212.246 197.247 212.43 197.247 212.649V214.818H196.677V212.643C196.677 212.469 196.652 212.33 196.601 212.226C196.55 212.12 196.475 212.044 196.377 211.997C196.28 211.948 196.159 211.923 196.016 211.923C195.876 211.923 195.747 211.953 195.631 212.012C195.517 212.071 195.418 212.153 195.334 212.257C195.252 212.361 195.188 212.48 195.141 212.615C195.096 212.748 195.074 212.888 195.074 213.037ZM200.12 214.053V211.507H200.689V214.818H200.148L200.12 214.053ZM200.227 213.356L200.463 213.349C200.463 213.57 200.439 213.774 200.392 213.962C200.348 214.147 200.274 214.308 200.172 214.445C200.07 214.582 199.936 214.689 199.771 214.766C199.606 214.842 199.405 214.88 199.168 214.88C199.007 214.88 198.859 214.856 198.725 214.809C198.592 214.762 198.478 214.69 198.382 214.592C198.286 214.494 198.212 214.366 198.158 214.209C198.107 214.052 198.082 213.864 198.082 213.643V211.507H198.648V213.649C198.648 213.798 198.664 213.922 198.697 214.02C198.732 214.116 198.778 214.192 198.835 214.249C198.894 214.304 198.959 214.343 199.031 214.365C199.104 214.388 199.18 214.399 199.257 214.399C199.498 214.399 199.689 214.353 199.829 214.261C199.97 214.168 200.071 214.042 200.132 213.885C200.196 213.726 200.227 213.549 200.227 213.356ZM202.118 212.027V214.818H201.552V211.507H202.103L202.118 212.027ZM203.153 211.489L203.15 212.015C203.103 212.005 203.058 211.999 203.015 211.997C202.974 211.993 202.927 211.991 202.874 211.991C202.744 211.991 202.628 212.011 202.528 212.052C202.428 212.093 202.344 212.15 202.274 212.223C202.205 212.297 202.15 212.384 202.109 212.487C202.07 212.586 202.045 212.697 202.033 212.817L201.874 212.909C201.874 212.709 201.893 212.521 201.932 212.346C201.972 212.17 202.035 212.015 202.118 211.881C202.202 211.744 202.308 211.638 202.437 211.562C202.567 211.485 202.722 211.446 202.902 211.446C202.943 211.446 202.989 211.451 203.043 211.461C203.096 211.47 203.132 211.479 203.153 211.489ZM205.604 213.94C205.604 213.858 205.586 213.783 205.549 213.714C205.514 213.642 205.442 213.578 205.332 213.521C205.223 213.462 205.06 213.411 204.842 213.368C204.658 213.329 204.492 213.283 204.343 213.23C204.196 213.177 204.071 213.113 203.967 213.037C203.865 212.962 203.786 212.873 203.731 212.771C203.676 212.669 203.648 212.55 203.648 212.413C203.648 212.282 203.677 212.159 203.734 212.043C203.793 211.926 203.876 211.823 203.982 211.734C204.09 211.644 204.22 211.574 204.371 211.523C204.522 211.472 204.69 211.446 204.876 211.446C205.141 211.446 205.367 211.493 205.555 211.587C205.743 211.681 205.886 211.806 205.986 211.963C206.086 212.118 206.136 212.291 206.136 212.48H205.57C205.57 212.389 205.543 212.3 205.488 212.214C205.435 212.126 205.356 212.054 205.252 211.997C205.15 211.94 205.025 211.911 204.876 211.911C204.719 211.911 204.591 211.936 204.493 211.985C204.397 212.032 204.327 212.092 204.282 212.165C204.239 212.239 204.218 212.316 204.218 212.398C204.218 212.459 204.228 212.514 204.248 212.563C204.271 212.61 204.309 212.654 204.365 212.695C204.42 212.733 204.497 212.77 204.597 212.805C204.697 212.839 204.825 212.874 204.98 212.909C205.251 212.97 205.474 213.043 205.65 213.129C205.825 213.215 205.956 213.32 206.042 213.444C206.127 213.569 206.17 213.72 206.17 213.897C206.17 214.042 206.139 214.175 206.078 214.295C206.019 214.415 205.932 214.519 205.818 214.607C205.706 214.693 205.571 214.76 205.414 214.809C205.259 214.856 205.085 214.88 204.891 214.88C204.599 214.88 204.352 214.828 204.15 214.723C203.948 214.619 203.795 214.485 203.691 214.32C203.587 214.154 203.535 213.98 203.535 213.796H204.104C204.113 213.951 204.157 214.075 204.239 214.167C204.321 214.256 204.421 214.321 204.539 214.359C204.657 214.396 204.775 214.414 204.891 214.414C205.046 214.414 205.175 214.394 205.28 214.353C205.386 214.312 205.466 214.256 205.521 214.185C205.576 214.113 205.604 214.032 205.604 213.94ZM209.001 214.176V210.118H209.57V214.818H209.05L209.001 214.176ZM206.773 213.2V213.135C206.773 212.882 206.804 212.653 206.865 212.447C206.928 212.239 207.017 212.06 207.131 211.911C207.247 211.762 207.385 211.648 207.544 211.568C207.705 211.487 207.885 211.446 208.083 211.446C208.291 211.446 208.472 211.483 208.627 211.556C208.784 211.628 208.917 211.733 209.025 211.871C209.135 212.008 209.222 212.173 209.285 212.367C209.349 212.561 209.392 212.78 209.417 213.025V213.307C209.394 213.549 209.351 213.768 209.285 213.962C209.222 214.155 209.135 214.321 209.025 214.457C208.917 214.594 208.784 214.699 208.627 214.772C208.47 214.844 208.287 214.88 208.077 214.88C207.883 214.88 207.705 214.838 207.544 214.754C207.385 214.67 207.247 214.553 207.131 214.402C207.017 214.251 206.928 214.074 206.865 213.87C206.804 213.664 206.773 213.44 206.773 213.2ZM207.342 213.135V213.2C207.342 213.365 207.358 213.52 207.391 213.665C207.426 213.81 207.479 213.937 207.55 214.047C207.622 214.157 207.712 214.244 207.823 214.307C207.933 214.369 208.064 214.399 208.217 214.399C208.405 214.399 208.559 214.359 208.679 214.28C208.802 214.2 208.9 214.095 208.973 213.965C209.047 213.834 209.104 213.692 209.145 213.539V212.802C209.12 212.689 209.084 212.581 209.037 212.477C208.993 212.371 208.933 212.277 208.86 212.196C208.789 212.112 208.7 212.046 208.594 211.997C208.49 211.948 208.366 211.923 208.223 211.923C208.068 211.923 207.935 211.956 207.823 212.021C207.712 212.085 207.622 212.172 207.55 212.285C207.479 212.395 207.426 212.523 207.391 212.67C207.358 212.815 207.342 212.97 207.342 213.135ZM212.404 214.252V212.548C212.404 212.417 212.377 212.304 212.324 212.208C212.273 212.11 212.196 212.035 212.091 211.982C211.987 211.929 211.859 211.902 211.706 211.902C211.563 211.902 211.438 211.926 211.33 211.975C211.223 212.024 211.14 212.089 211.079 212.168C211.019 212.248 210.99 212.333 210.99 212.425H210.424C210.424 212.307 210.454 212.19 210.516 212.073C210.577 211.957 210.664 211.852 210.779 211.758C210.895 211.662 211.034 211.587 211.195 211.532C211.358 211.475 211.54 211.446 211.74 211.446C211.98 211.446 212.192 211.487 212.376 211.568C212.562 211.65 212.707 211.773 212.811 211.939C212.917 212.102 212.97 212.307 212.97 212.554V214.096C212.97 214.206 212.979 214.324 212.997 214.448C213.018 214.573 213.047 214.68 213.086 214.769V214.818H212.495C212.467 214.753 212.444 214.666 212.428 214.558C212.412 214.448 212.404 214.346 212.404 214.252ZM212.502 212.811L212.508 213.209H211.935C211.774 213.209 211.63 213.222 211.504 213.248C211.377 213.273 211.271 213.311 211.186 213.362C211.1 213.413 211.035 213.477 210.99 213.555C210.945 213.63 210.923 213.719 210.923 213.821C210.923 213.925 210.946 214.02 210.993 214.105C211.04 214.191 211.11 214.259 211.204 214.31C211.3 214.359 211.417 214.384 211.556 214.384C211.729 214.384 211.882 214.347 212.015 214.274C212.148 214.2 212.253 214.11 212.33 214.004C212.41 213.898 212.453 213.795 212.459 213.695L212.7 213.968C212.686 214.053 212.647 214.148 212.584 214.252C212.521 214.356 212.436 214.456 212.33 214.552C212.226 214.646 212.102 214.725 211.957 214.788C211.814 214.849 211.653 214.88 211.473 214.88C211.249 214.88 211.052 214.836 210.883 214.748C210.715 214.66 210.585 214.543 210.491 214.396C210.399 214.247 210.353 214.081 210.353 213.897C210.353 213.72 210.388 213.564 210.457 213.429C210.527 213.292 210.627 213.179 210.757 213.089C210.888 212.998 211.045 212.928 211.229 212.881C211.412 212.834 211.617 212.811 211.844 212.811H212.502ZM214.742 214.476L215.663 211.507H216.269L214.941 215.329C214.91 215.411 214.869 215.499 214.818 215.593C214.769 215.688 214.706 215.779 214.628 215.865C214.551 215.951 214.457 216.02 214.347 216.073C214.239 216.128 214.109 216.156 213.958 216.156C213.913 216.156 213.856 216.15 213.787 216.137C213.717 216.125 213.669 216.115 213.64 216.107L213.637 215.648C213.653 215.65 213.679 215.652 213.713 215.654C213.75 215.658 213.776 215.66 213.79 215.66C213.918 215.66 214.028 215.643 214.117 215.608C214.207 215.575 214.283 215.519 214.344 215.44C214.407 215.362 214.461 215.255 214.506 215.118L214.742 214.476ZM214.065 211.507L214.925 214.078L215.072 214.675L214.665 214.883L213.447 211.507H214.065Z" fill="#141414"/>
<path d="M231.319 210.363V214.818H230.728V210.363H231.319ZM233.185 212.367V212.851H231.19V212.367H233.185ZM233.488 210.363V210.846H231.19V210.363H233.488ZM234.593 212.027V214.818H234.027V211.507H234.578L234.593 212.027ZM235.627 211.489L235.624 212.015C235.577 212.005 235.533 211.999 235.49 211.997C235.449 211.993 235.402 211.991 235.349 211.991C235.218 211.991 235.103 212.011 235.003 212.052C234.903 212.093 234.819 212.15 234.749 212.223C234.68 212.297 234.625 212.384 234.584 212.487C234.545 212.586 234.52 212.697 234.507 212.817L234.348 212.909C234.348 212.709 234.368 212.521 234.406 212.346C234.447 212.17 234.509 212.015 234.593 211.881C234.677 211.744 234.783 211.638 234.911 211.562C235.042 211.485 235.197 211.446 235.377 211.446C235.417 211.446 235.464 211.451 235.517 211.461C235.57 211.47 235.607 211.479 235.627 211.489ZM236.766 211.507V214.818H236.197V211.507H236.766ZM236.154 210.629C236.154 210.537 236.181 210.46 236.236 210.396C236.294 210.333 236.377 210.302 236.487 210.302C236.595 210.302 236.678 210.333 236.735 210.396C236.794 210.46 236.824 210.537 236.824 210.629C236.824 210.717 236.794 210.792 236.735 210.855C236.678 210.917 236.595 210.947 236.487 210.947C236.377 210.947 236.294 210.917 236.236 210.855C236.181 210.792 236.154 210.717 236.154 210.629ZM239.762 214.176V210.118H240.331V214.818H239.811L239.762 214.176ZM237.534 213.2V213.135C237.534 212.882 237.565 212.653 237.626 212.447C237.689 212.239 237.778 212.06 237.892 211.911C238.008 211.762 238.146 211.648 238.305 211.568C238.466 211.487 238.646 211.446 238.844 211.446C239.052 211.446 239.233 211.483 239.388 211.556C239.546 211.628 239.678 211.733 239.786 211.871C239.896 212.008 239.983 212.173 240.046 212.367C240.11 212.561 240.153 212.78 240.178 213.025V213.307C240.156 213.549 240.112 213.768 240.046 213.962C239.983 214.155 239.896 214.321 239.786 214.457C239.678 214.594 239.546 214.699 239.388 214.772C239.231 214.844 239.048 214.88 238.838 214.88C238.644 214.88 238.466 214.838 238.305 214.754C238.146 214.67 238.008 214.553 237.892 214.402C237.778 214.251 237.689 214.074 237.626 213.87C237.565 213.664 237.534 213.44 237.534 213.2ZM238.103 213.135V213.2C238.103 213.365 238.119 213.52 238.152 213.665C238.187 213.81 238.24 213.937 238.311 214.047C238.383 214.157 238.473 214.244 238.584 214.307C238.694 214.369 238.825 214.399 238.978 214.399C239.166 214.399 239.32 214.359 239.44 214.28C239.563 214.2 239.661 214.095 239.734 213.965C239.808 213.834 239.865 213.692 239.906 213.539V212.802C239.881 212.689 239.845 212.581 239.798 212.477C239.754 212.371 239.694 212.277 239.621 212.196C239.55 212.112 239.461 212.046 239.355 211.997C239.251 211.948 239.127 211.923 238.984 211.923C238.829 211.923 238.696 211.956 238.584 212.021C238.473 212.085 238.383 212.172 238.311 212.285C238.24 212.395 238.187 212.523 238.152 212.67C238.119 212.815 238.103 212.97 238.103 213.135ZM243.165 214.252V212.548C243.165 212.417 243.138 212.304 243.085 212.208C243.034 212.11 242.957 212.035 242.853 211.982C242.748 211.929 242.62 211.902 242.467 211.902C242.324 211.902 242.199 211.926 242.091 211.975C241.984 212.024 241.901 212.089 241.84 212.168C241.78 212.248 241.751 212.333 241.751 212.425H241.185C241.185 212.307 241.215 212.19 241.277 212.073C241.338 211.957 241.425 211.852 241.54 211.758C241.656 211.662 241.795 211.587 241.956 211.532C242.119 211.475 242.301 211.446 242.501 211.446C242.741 211.446 242.954 211.487 243.137 211.568C243.323 211.65 243.468 211.773 243.572 211.939C243.678 212.102 243.731 212.307 243.731 212.554V214.096C243.731 214.206 243.74 214.324 243.758 214.448C243.779 214.573 243.808 214.68 243.847 214.769V214.818H243.256C243.228 214.753 243.205 214.666 243.189 214.558C243.173 214.448 243.165 214.346 243.165 214.252ZM243.263 212.811L243.269 213.209H242.696C242.535 213.209 242.391 213.222 242.265 213.248C242.139 213.273 242.032 213.311 241.947 213.362C241.861 213.413 241.796 213.477 241.751 213.555C241.706 213.63 241.684 213.719 241.684 213.821C241.684 213.925 241.707 214.02 241.754 214.105C241.801 214.191 241.871 214.259 241.965 214.31C242.061 214.359 242.178 214.384 242.317 214.384C242.49 214.384 242.643 214.347 242.776 214.274C242.909 214.2 243.014 214.11 243.091 214.004C243.171 213.898 243.214 213.795 243.22 213.695L243.462 213.968C243.447 214.053 243.408 214.148 243.345 214.252C243.282 214.356 243.197 214.456 243.091 214.552C242.987 214.646 242.863 214.725 242.718 214.788C242.575 214.849 242.414 214.88 242.234 214.88C242.01 214.88 241.813 214.836 241.644 214.748C241.476 214.66 241.346 214.543 241.252 214.396C241.16 214.247 241.114 214.081 241.114 213.897C241.114 213.72 241.149 213.564 241.218 213.429C241.288 213.292 241.388 213.179 241.518 213.089C241.649 212.998 241.806 212.928 241.99 212.881C242.173 212.834 242.378 212.811 242.605 212.811H243.263ZM245.503 214.476L246.424 211.507H247.03L245.702 215.329C245.671 215.411 245.63 215.499 245.579 215.593C245.53 215.688 245.467 215.779 245.389 215.865C245.312 215.951 245.218 216.02 245.108 216.073C245 216.128 244.87 216.156 244.719 216.156C244.674 216.156 244.617 216.15 244.548 216.137C244.479 216.125 244.43 216.115 244.401 216.107L244.398 215.648C244.414 215.65 244.44 215.652 244.474 215.654C244.511 215.658 244.537 215.66 244.551 215.66C244.679 215.66 244.789 215.643 244.878 215.608C244.968 215.575 245.044 215.519 245.105 215.44C245.168 215.362 245.222 215.255 245.267 215.118L245.503 214.476ZM244.826 211.507L245.686 214.078L245.833 214.675L245.426 214.883L244.208 211.507H244.826Z" fill="#141414"/>
<path d="M262.978 213.692C262.978 213.588 262.962 213.496 262.929 213.417C262.899 213.335 262.844 213.262 262.764 213.196C262.687 213.131 262.578 213.069 262.44 213.01C262.303 212.951 262.13 212.89 261.919 212.829C261.699 212.764 261.5 212.692 261.323 212.612C261.145 212.53 260.993 212.438 260.867 212.333C260.74 212.229 260.643 212.11 260.576 211.975C260.509 211.841 260.475 211.687 260.475 211.513C260.475 211.34 260.511 211.18 260.582 211.033C260.654 210.886 260.756 210.759 260.888 210.65C261.023 210.54 261.183 210.455 261.369 210.393C261.554 210.332 261.761 210.302 261.99 210.302C262.324 210.302 262.608 210.366 262.841 210.494C263.075 210.621 263.254 210.787 263.376 210.993C263.498 211.197 263.56 211.415 263.56 211.648H262.972C262.972 211.481 262.936 211.333 262.865 211.204C262.794 211.074 262.686 210.972 262.541 210.898C262.396 210.823 262.212 210.785 261.99 210.785C261.78 210.785 261.606 210.817 261.47 210.88C261.333 210.943 261.231 211.029 261.164 211.137C261.098 211.245 261.066 211.369 261.066 211.507C261.066 211.601 261.085 211.687 261.124 211.764C261.165 211.84 261.227 211.91 261.31 211.975C261.396 212.041 261.504 212.101 261.635 212.156C261.767 212.211 261.926 212.264 262.109 212.315C262.362 212.387 262.58 212.466 262.764 212.554C262.948 212.642 263.099 212.74 263.217 212.851C263.337 212.959 263.426 213.082 263.483 213.221C263.542 213.358 263.572 213.513 263.572 213.686C263.572 213.868 263.535 214.032 263.462 214.179C263.388 214.326 263.283 214.451 263.147 214.555C263.01 214.659 262.846 214.74 262.654 214.797C262.464 214.852 262.252 214.88 262.017 214.88C261.811 214.88 261.608 214.851 261.408 214.794C261.211 214.737 261.03 214.651 260.867 214.537C260.706 214.423 260.576 214.282 260.478 214.115C260.382 213.945 260.334 213.749 260.334 213.527H260.922C260.922 213.68 260.951 213.812 261.011 213.922C261.07 214.03 261.15 214.12 261.252 214.191C261.356 214.262 261.474 214.315 261.604 214.35C261.737 214.383 261.875 214.399 262.017 214.399C262.223 214.399 262.398 214.371 262.541 214.313C262.683 214.256 262.792 214.175 262.865 214.069C262.941 213.963 262.978 213.837 262.978 213.692ZM266.191 214.252V212.548C266.191 212.417 266.165 212.304 266.112 212.208C266.061 212.11 265.983 212.035 265.879 211.982C265.775 211.929 265.647 211.902 265.494 211.902C265.351 211.902 265.225 211.926 265.117 211.975C265.011 212.024 264.928 212.089 264.866 212.168C264.807 212.248 264.778 212.333 264.778 212.425H264.212C264.212 212.307 264.242 212.19 264.303 212.073C264.365 211.957 264.452 211.852 264.567 211.758C264.683 211.662 264.822 211.587 264.983 211.532C265.146 211.475 265.327 211.446 265.527 211.446C265.768 211.446 265.98 211.487 266.164 211.568C266.35 211.65 266.494 211.773 266.598 211.939C266.705 212.102 266.758 212.307 266.758 212.554V214.096C266.758 214.206 266.767 214.324 266.785 214.448C266.806 214.573 266.835 214.68 266.874 214.769V214.818H266.283C266.255 214.753 266.232 214.666 266.216 214.558C266.2 214.448 266.191 214.346 266.191 214.252ZM266.289 212.811L266.296 213.209H265.723C265.562 213.209 265.418 213.222 265.292 213.248C265.165 213.273 265.059 213.311 264.974 213.362C264.888 213.413 264.823 213.477 264.778 213.555C264.733 213.63 264.71 213.719 264.71 213.821C264.71 213.925 264.734 214.02 264.781 214.105C264.828 214.191 264.898 214.259 264.992 214.31C265.088 214.359 265.205 214.384 265.344 214.384C265.517 214.384 265.67 214.347 265.803 214.274C265.935 214.2 266.04 214.11 266.118 214.004C266.198 213.898 266.24 213.795 266.247 213.695L266.488 213.968C266.474 214.053 266.435 214.148 266.372 214.252C266.309 214.356 266.224 214.456 266.118 214.552C266.014 214.646 265.89 214.725 265.745 214.788C265.602 214.849 265.441 214.88 265.261 214.88C265.037 214.88 264.84 214.836 264.671 214.748C264.503 214.66 264.373 214.543 264.279 214.396C264.187 214.247 264.141 214.081 264.141 213.897C264.141 213.72 264.176 213.564 264.245 213.429C264.315 213.292 264.415 213.179 264.545 213.089C264.676 212.998 264.833 212.928 265.016 212.881C265.2 212.834 265.405 212.811 265.631 212.811H266.289ZM269.034 211.507V211.942H267.244V211.507H269.034ZM267.85 210.702H268.416V213.998C268.416 214.11 268.434 214.195 268.468 214.252C268.503 214.309 268.548 214.347 268.603 214.365C268.658 214.384 268.717 214.393 268.78 214.393C268.827 214.393 268.876 214.389 268.927 214.381C268.98 214.371 269.02 214.362 269.047 214.356L269.05 214.818C269.005 214.833 268.946 214.846 268.872 214.858C268.801 214.872 268.714 214.88 268.612 214.88C268.473 214.88 268.346 214.852 268.23 214.797C268.113 214.742 268.02 214.65 267.951 214.522C267.884 214.391 267.85 214.216 267.85 213.995V210.702ZM271.724 214.053V211.507H272.293V214.818H271.752L271.724 214.053ZM271.831 213.356L272.067 213.349C272.067 213.57 272.044 213.774 271.997 213.962C271.952 214.147 271.878 214.308 271.776 214.445C271.674 214.582 271.541 214.689 271.375 214.766C271.21 214.842 271.009 214.88 270.773 214.88C270.611 214.88 270.463 214.856 270.329 214.809C270.196 214.762 270.082 214.69 269.986 214.592C269.89 214.494 269.816 214.366 269.763 214.209C269.712 214.052 269.686 213.864 269.686 213.643V211.507H270.252V213.649C270.252 213.798 270.269 213.922 270.301 214.02C270.336 214.116 270.382 214.192 270.439 214.249C270.498 214.304 270.563 214.343 270.635 214.365C270.708 214.388 270.784 214.399 270.861 214.399C271.102 214.399 271.293 214.353 271.434 214.261C271.574 214.168 271.675 214.042 271.737 213.885C271.8 213.726 271.831 213.549 271.831 213.356ZM273.723 212.027V214.818H273.156V211.507H273.707L273.723 212.027ZM274.757 211.489L274.754 212.015C274.707 212.005 274.662 211.999 274.619 211.997C274.578 211.993 274.531 211.991 274.478 211.991C274.348 211.991 274.233 212.011 274.133 212.052C274.033 212.093 273.948 212.15 273.879 212.223C273.809 212.297 273.754 212.384 273.713 212.487C273.675 212.586 273.649 212.697 273.637 212.817L273.478 212.909C273.478 212.709 273.497 212.521 273.536 212.346C273.577 212.17 273.639 212.015 273.723 211.881C273.806 211.744 273.912 211.638 274.041 211.562C274.171 211.485 274.326 211.446 274.506 211.446C274.547 211.446 274.594 211.451 274.647 211.461C274.7 211.47 274.737 211.479 274.757 211.489ZM277.306 214.176V210.118H277.875V214.818H277.355L277.306 214.176ZM275.078 213.2V213.135C275.078 212.882 275.109 212.653 275.17 212.447C275.233 212.239 275.322 212.06 275.436 211.911C275.553 211.762 275.69 211.648 275.849 211.568C276.011 211.487 276.19 211.446 276.388 211.446C276.596 211.446 276.778 211.483 276.933 211.556C277.09 211.628 277.222 211.733 277.331 211.871C277.441 212.008 277.527 212.173 277.591 212.367C277.654 212.561 277.698 212.78 277.722 213.025V213.307C277.7 213.549 277.656 213.768 277.591 213.962C277.527 214.155 277.441 214.321 277.331 214.457C277.222 214.594 277.09 214.699 276.933 214.772C276.776 214.844 276.592 214.88 276.382 214.88C276.188 214.88 276.011 214.838 275.849 214.754C275.69 214.67 275.553 214.553 275.436 214.402C275.322 214.251 275.233 214.074 275.17 213.87C275.109 213.664 275.078 213.44 275.078 213.2ZM275.647 213.135V213.2C275.647 213.365 275.664 213.52 275.696 213.665C275.731 213.81 275.784 213.937 275.856 214.047C275.927 214.157 276.018 214.244 276.128 214.307C276.238 214.369 276.37 214.399 276.523 214.399C276.71 214.399 276.864 214.359 276.985 214.28C277.107 214.2 277.205 214.095 277.278 213.965C277.352 213.834 277.409 213.692 277.45 213.539V212.802C277.425 212.689 277.39 212.581 277.343 212.477C277.298 212.371 277.239 212.277 277.165 212.196C277.094 212.112 277.005 212.046 276.899 211.997C276.795 211.948 276.672 211.923 276.529 211.923C276.374 211.923 276.24 211.956 276.128 212.021C276.018 212.085 275.927 212.172 275.856 212.285C275.784 212.395 275.731 212.523 275.696 212.67C275.664 212.815 275.647 212.97 275.647 213.135ZM280.709 214.252V212.548C280.709 212.417 280.682 212.304 280.629 212.208C280.578 212.11 280.501 212.035 280.397 211.982C280.293 211.929 280.164 211.902 280.011 211.902C279.868 211.902 279.743 211.926 279.635 211.975C279.529 212.024 279.445 212.089 279.384 212.168C279.325 212.248 279.295 212.333 279.295 212.425H278.729C278.729 212.307 278.76 212.19 278.821 212.073C278.882 211.957 278.97 211.852 279.084 211.758C279.2 211.662 279.339 211.587 279.5 211.532C279.663 211.475 279.845 211.446 280.045 211.446C280.286 211.446 280.498 211.487 280.681 211.568C280.867 211.65 281.012 211.773 281.116 211.939C281.222 212.102 281.275 212.307 281.275 212.554V214.096C281.275 214.206 281.284 214.324 281.303 214.448C281.323 214.573 281.353 214.68 281.391 214.769V214.818H280.801C280.772 214.753 280.75 214.666 280.733 214.558C280.717 214.448 280.709 214.346 280.709 214.252ZM280.807 212.811L280.813 213.209H280.241C280.08 213.209 279.936 213.222 279.809 213.248C279.683 213.273 279.577 213.311 279.491 213.362C279.405 213.413 279.34 213.477 279.295 213.555C279.25 213.63 279.228 213.719 279.228 213.821C279.228 213.925 279.251 214.02 279.298 214.105C279.345 214.191 279.416 214.259 279.509 214.31C279.605 214.359 279.723 214.384 279.861 214.384C280.035 214.384 280.188 214.347 280.32 214.274C280.453 214.2 280.558 214.11 280.636 214.004C280.715 213.898 280.758 213.795 280.764 213.695L281.006 213.968C280.992 214.053 280.953 214.148 280.89 214.252C280.826 214.356 280.742 214.456 280.636 214.552C280.531 214.646 280.407 214.725 280.262 214.788C280.119 214.849 279.958 214.88 279.779 214.88C279.554 214.88 279.357 214.836 279.188 214.748C279.021 214.66 278.89 214.543 278.796 214.396C278.705 214.247 278.659 214.081 278.659 213.897C278.659 213.72 278.693 213.564 278.763 213.429C278.832 213.292 278.932 213.179 279.063 213.089C279.193 212.998 279.35 212.928 279.534 212.881C279.717 212.834 279.922 212.811 280.149 212.811H280.807ZM283.047 214.476L283.968 211.507H284.574L283.246 215.329C283.215 215.411 283.174 215.499 283.123 215.593C283.074 215.688 283.011 215.779 282.934 215.865C282.856 215.951 282.762 216.02 282.652 216.073C282.544 216.128 282.415 216.156 282.264 216.156C282.219 216.156 282.162 216.15 282.092 216.137C282.023 216.125 281.974 216.115 281.945 216.107L281.942 215.648C281.959 215.65 281.984 215.652 282.019 215.654C282.055 215.658 282.081 215.66 282.095 215.66C282.224 215.66 282.333 215.643 282.423 215.608C282.512 215.575 282.588 215.519 282.649 215.44C282.712 215.362 282.766 215.255 282.811 215.118L283.047 214.476ZM282.371 211.507L283.231 214.078L283.377 214.675L282.97 214.883L281.752 211.507H282.371Z" fill="#141414"/>
<path d="M300.266 213.692C300.266 213.588 300.25 213.496 300.217 213.417C300.187 213.335 300.132 213.262 300.052 213.196C299.975 213.131 299.866 213.069 299.728 213.01C299.591 212.951 299.418 212.89 299.207 212.829C298.987 212.764 298.788 212.692 298.611 212.612C298.433 212.53 298.281 212.438 298.155 212.333C298.028 212.229 297.931 212.11 297.864 211.975C297.797 211.841 297.763 211.687 297.763 211.513C297.763 211.34 297.799 211.18 297.87 211.033C297.942 210.886 298.044 210.759 298.176 210.65C298.311 210.54 298.471 210.455 298.657 210.393C298.842 210.332 299.049 210.302 299.278 210.302C299.612 210.302 299.896 210.366 300.129 210.494C300.363 210.621 300.542 210.787 300.664 210.993C300.787 211.197 300.848 211.415 300.848 211.648H300.26C300.26 211.481 300.224 211.333 300.153 211.204C300.082 211.074 299.974 210.972 299.829 210.898C299.684 210.823 299.5 210.785 299.278 210.785C299.068 210.785 298.894 210.817 298.758 210.88C298.621 210.943 298.519 211.029 298.452 211.137C298.386 211.245 298.354 211.369 298.354 211.507C298.354 211.601 298.373 211.687 298.412 211.764C298.453 211.84 298.515 211.91 298.599 211.975C298.684 212.041 298.792 212.101 298.923 212.156C299.055 212.211 299.214 212.264 299.397 212.315C299.65 212.387 299.868 212.466 300.052 212.554C300.236 212.642 300.387 212.74 300.505 212.851C300.625 212.959 300.714 213.082 300.771 213.221C300.83 213.358 300.86 213.513 300.86 213.686C300.86 213.868 300.823 214.032 300.75 214.179C300.676 214.326 300.571 214.451 300.435 214.555C300.298 214.659 300.134 214.74 299.942 214.797C299.752 214.852 299.54 214.88 299.305 214.88C299.099 214.88 298.896 214.851 298.696 214.794C298.499 214.737 298.318 214.651 298.155 214.537C297.994 214.423 297.864 214.282 297.766 214.115C297.67 213.945 297.622 213.749 297.622 213.527H298.21C298.21 213.68 298.239 213.812 298.299 213.922C298.358 214.03 298.438 214.12 298.54 214.191C298.644 214.262 298.762 214.315 298.892 214.35C299.025 214.383 299.163 214.399 299.305 214.399C299.511 214.399 299.686 214.371 299.829 214.313C299.972 214.256 300.08 214.175 300.153 214.069C300.229 213.963 300.266 213.837 300.266 213.692ZM303.553 214.053V211.507H304.122V214.818H303.58L303.553 214.053ZM303.66 213.356L303.896 213.349C303.896 213.57 303.872 213.774 303.825 213.962C303.78 214.147 303.707 214.308 303.605 214.445C303.503 214.582 303.369 214.689 303.204 214.766C303.039 214.842 302.838 214.88 302.601 214.88C302.44 214.88 302.292 214.856 302.157 214.809C302.025 214.762 301.911 214.69 301.815 214.592C301.719 214.494 301.644 214.366 301.591 214.209C301.54 214.052 301.515 213.864 301.515 213.643V211.507H302.081V213.649C302.081 213.798 302.097 213.922 302.13 214.02C302.165 214.116 302.211 214.192 302.268 214.249C302.327 214.304 302.392 214.343 302.464 214.365C302.537 214.388 302.612 214.399 302.69 214.399C302.931 214.399 303.121 214.353 303.262 214.261C303.403 214.168 303.504 214.042 303.565 213.885C303.628 213.726 303.66 213.549 303.66 213.356ZM305.551 212.214V214.818H304.985V211.507H305.521L305.551 212.214ZM305.417 213.037L305.181 213.028C305.183 212.802 305.217 212.593 305.282 212.401C305.347 212.207 305.439 212.039 305.557 211.896C305.676 211.753 305.816 211.643 305.98 211.565C306.145 211.486 306.328 211.446 306.527 211.446C306.691 211.446 306.838 211.468 306.968 211.513C307.099 211.556 307.21 211.626 307.302 211.721C307.396 211.817 307.467 211.942 307.516 212.095C307.565 212.246 307.589 212.43 307.589 212.649V214.818H307.02V212.643C307.02 212.469 306.995 212.33 306.944 212.226C306.893 212.12 306.818 212.044 306.72 211.997C306.622 211.948 306.502 211.923 306.359 211.923C306.218 211.923 306.09 211.953 305.974 212.012C305.859 212.071 305.76 212.153 305.677 212.257C305.595 212.361 305.531 212.48 305.484 212.615C305.439 212.748 305.417 212.888 305.417 213.037ZM310.536 214.176V210.118H311.105V214.818H310.585L310.536 214.176ZM308.308 213.2V213.135C308.308 212.882 308.339 212.653 308.4 212.447C308.464 212.239 308.552 212.06 308.667 211.911C308.783 211.762 308.92 211.648 309.08 211.568C309.241 211.487 309.42 211.446 309.618 211.446C309.826 211.446 310.008 211.483 310.163 211.556C310.32 211.628 310.453 211.733 310.561 211.871C310.671 212.008 310.758 212.173 310.821 212.367C310.884 212.561 310.928 212.78 310.952 213.025V213.307C310.93 213.549 310.886 213.768 310.821 213.962C310.758 214.155 310.671 214.321 310.561 214.457C310.453 214.594 310.32 214.699 310.163 214.772C310.006 214.844 309.822 214.88 309.612 214.88C309.418 214.88 309.241 214.838 309.08 214.754C308.92 214.67 308.783 214.553 308.667 214.402C308.552 214.251 308.464 214.074 308.4 213.87C308.339 213.664 308.308 213.44 308.308 213.2ZM308.878 213.135V213.2C308.878 213.365 308.894 213.52 308.927 213.665C308.961 213.81 309.014 213.937 309.086 214.047C309.157 214.157 309.248 214.244 309.358 214.307C309.468 214.369 309.6 214.399 309.753 214.399C309.941 214.399 310.095 214.359 310.215 214.28C310.337 214.2 310.435 214.095 310.509 213.965C310.582 213.834 310.639 213.692 310.68 213.539V212.802C310.656 212.689 310.62 212.581 310.573 212.477C310.528 212.371 310.469 212.277 310.396 212.196C310.324 212.112 310.235 212.046 310.129 211.997C310.025 211.948 309.902 211.923 309.759 211.923C309.604 211.923 309.47 211.956 309.358 212.021C309.248 212.085 309.157 212.172 309.086 212.285C309.014 212.395 308.961 212.523 308.927 212.67C308.894 212.815 308.878 212.97 308.878 213.135ZM313.939 214.252V212.548C313.939 212.417 313.913 212.304 313.86 212.208C313.809 212.11 313.731 212.035 313.627 211.982C313.523 211.929 313.394 211.902 313.241 211.902C313.099 211.902 312.973 211.926 312.865 211.975C312.759 212.024 312.675 212.089 312.614 212.168C312.555 212.248 312.525 212.333 312.525 212.425H311.959C311.959 212.307 311.99 212.19 312.051 212.073C312.112 211.957 312.2 211.852 312.314 211.758C312.431 211.662 312.569 211.587 312.73 211.532C312.894 211.475 313.075 211.446 313.275 211.446C313.516 211.446 313.728 211.487 313.912 211.568C314.097 211.65 314.242 211.773 314.346 211.939C314.452 212.102 314.505 212.307 314.505 212.554V214.096C314.505 214.206 314.515 214.324 314.533 214.448C314.553 214.573 314.583 214.68 314.622 214.769V214.818H314.031C314.002 214.753 313.98 214.666 313.964 214.558C313.947 214.448 313.939 214.346 313.939 214.252ZM314.037 212.811L314.043 213.209H313.471C313.31 213.209 313.166 213.222 313.04 213.248C312.913 213.273 312.807 213.311 312.721 213.362C312.636 213.413 312.57 213.477 312.525 213.555C312.481 213.63 312.458 213.719 312.458 213.821C312.458 213.925 312.482 214.02 312.528 214.105C312.575 214.191 312.646 214.259 312.74 214.31C312.835 214.359 312.953 214.384 313.092 214.384C313.265 214.384 313.418 214.347 313.551 214.274C313.683 214.2 313.788 214.11 313.866 214.004C313.945 213.898 313.988 213.795 313.994 213.695L314.236 213.968C314.222 214.053 314.183 214.148 314.12 214.252C314.057 214.356 313.972 214.456 313.866 214.552C313.762 214.646 313.637 214.725 313.492 214.788C313.35 214.849 313.188 214.88 313.009 214.88C312.784 214.88 312.588 214.836 312.418 214.748C312.251 214.66 312.12 214.543 312.027 214.396C311.935 214.247 311.889 214.081 311.889 213.897C311.889 213.72 311.924 213.564 311.993 213.429C312.062 213.292 312.162 213.179 312.293 213.089C312.423 212.998 312.58 212.928 312.764 212.881C312.948 212.834 313.153 212.811 313.379 212.811H314.037ZM316.277 214.476L317.198 211.507H317.804L316.476 215.329C316.445 215.411 316.405 215.499 316.354 215.593C316.305 215.688 316.241 215.779 316.164 215.865C316.086 215.951 315.993 216.02 315.882 216.073C315.774 216.128 315.645 216.156 315.494 216.156C315.449 216.156 315.392 216.15 315.322 216.137C315.253 216.125 315.204 216.115 315.176 216.107L315.172 215.648C315.189 215.65 315.214 215.652 315.249 215.654C315.286 215.658 315.311 215.66 315.325 215.66C315.454 215.66 315.563 215.643 315.653 215.608C315.743 215.575 315.818 215.519 315.879 215.44C315.943 215.362 315.997 215.255 316.042 215.118L316.277 214.476ZM315.601 211.507L316.461 214.078L316.608 214.675L316.201 214.883L314.983 211.507H315.601Z" fill="#141414"/>
<path opacity="0.2" fill-rule="evenodd" clip-rule="evenodd" d="M100.14 193.072L134.784 167.858L169.428 142.644L204.072 117.43L238.716 180.465L273.36 155.251L308.004 130.037V205.678H100.14V193.072Z" fill="#6200EE"/>
<path d="M100.14 193.072L134.784 167.858L169.428 142.644L204.072 117.43L238.716 180.465L273.36 155.251L308.004 130.037" stroke="#CEB0FA" stroke-width="1.04454" stroke-linejoin="round"/>
<path d="M100.141 194.902C101.151 194.902 101.969 194.082 101.969 193.072C101.969 192.063 101.151 191.242 100.141 191.242C99.1303 191.242 98.3127 192.063 98.3127 193.072C98.3127 194.082 99.1303 194.902 100.141 194.902Z" fill="white" stroke="#CEB0FA" stroke-width="1.04454"/>
<path d="M134.784 169.689C135.795 169.689 136.612 168.868 136.612 167.859C136.612 166.849 135.795 166.029 134.784 166.029C133.774 166.029 132.956 166.849 132.956 167.859C132.956 168.868 133.774 169.689 134.784 169.689Z" fill="white" stroke="#CEB0FA" stroke-width="1.04454"/>
<path d="M169.428 144.474C170.438 144.474 171.256 143.654 171.256 142.644C171.256 141.634 170.438 140.814 169.428 140.814C168.417 140.814 167.6 141.634 167.6 142.644C167.6 143.654 168.417 144.474 169.428 144.474Z" fill="white" stroke="#CEB0FA" stroke-width="1.04454"/>
<path d="M204.072 119.261C205.083 119.261 205.9 118.441 205.9 117.431C205.9 116.421 205.083 115.601 204.072 115.601C203.062 115.601 202.244 116.421 202.244 117.431C202.244 118.441 203.062 119.261 204.072 119.261Z" fill="white" stroke="#CEB0FA" stroke-width="1.04454"/>
<path d="M238.716 182.296C239.726 182.296 240.544 181.475 240.544 180.465C240.544 179.456 239.726 178.635 238.716 178.635C237.705 178.635 236.888 179.456 236.888 180.465C236.888 181.475 237.705 182.296 238.716 182.296Z" fill="white" stroke="#CEB0FA" stroke-width="1.04454"/>
<path d="M273.359 157.082C274.37 157.082 275.187 156.262 275.187 155.252C275.187 154.242 274.37 153.422 273.359 153.422C272.349 153.422 271.531 154.242 271.531 155.252C271.531 156.262 272.349 157.082 273.359 157.082Z" fill="white" stroke="#CEB0FA" stroke-width="1.04454"/>
<path d="M308.005 131.868C309.015 131.868 309.833 131.048 309.833 130.038C309.833 129.028 309.015 128.208 308.005 128.208C306.995 128.208 306.177 129.028 306.177 130.038C306.177 131.048 306.995 131.868 308.005 131.868Z" fill="white" stroke="#CEB0FA" stroke-width="1.04454"/>
</g>
<defs>
<filter id="filter0_d_73_3171" x="50.1028" y="42.1028" width="301.709" height="207.661" filterUnits="userSpaceOnUse" color-interpolation-filters="sRGB">
<feFlood flood-opacity="0" result="BackgroundImageFix"/>
<feColorMatrix in="SourceAlpha" type="matrix" values="0 0 0 0 0 0 0 0 0 0 0 0 0 0 0 0 0 0 127 0" result="hardAlpha"/>
<feOffset/>
<feGaussianBlur stdDeviation="12.1986"/>
<feComposite in2="hardAlpha" operator="out"/>
<feColorMatrix type="matrix" values="0 0 0 0 0 0 0 0 0 0 0 0 0 0 0 0 0 0 0.1 0"/>
<feBlend mode="normal" in2="BackgroundImageFix" result="effect1_dropShadow_73_3171"/>
<feBlend mode="normal" in="SourceGraphic" in2="effect1_dropShadow_73_3171" result="shape"/>
</filter>
</defs>
</svg>
