<svg width="376" height="439" viewBox="0 0 376 439" fill="none" xmlns="http://www.w3.org/2000/svg">
<g filter="url(#filter0_d_73_3274)">
<rect x="10.5" y="8" width="355" height="419" fill="white"/>
</g>
<path d="M55.179 45.1847H52.9631C52.8778 44.7112 52.7192 44.2945 52.4872 43.9347C52.2552 43.5748 51.9711 43.2694 51.6349 43.0185C51.2988 42.7675 50.9223 42.5781 50.5057 42.4503C50.0938 42.3224 49.6558 42.2585 49.1918 42.2585C48.3537 42.2585 47.6032 42.4692 46.9403 42.8906C46.2822 43.312 45.7614 43.9299 45.3778 44.7443C44.9991 45.5587 44.8097 46.553 44.8097 47.7273C44.8097 48.911 44.9991 49.91 45.3778 50.7244C45.7614 51.5388 46.2846 52.1544 46.9474 52.571C47.6103 52.9877 48.3561 53.196 49.1847 53.196C49.6439 53.196 50.0795 53.1345 50.4915 53.0114C50.9081 52.8835 51.2846 52.6965 51.6207 52.4503C51.9569 52.2041 52.241 51.9034 52.473 51.5483C52.7098 51.1884 52.8731 50.7765 52.9631 50.3125L55.179 50.3196C55.0606 51.0346 54.831 51.6927 54.4901 52.294C54.1539 52.8906 53.7206 53.4067 53.1903 53.8423C52.6648 54.2732 52.0634 54.607 51.3864 54.8438C50.7093 55.0805 49.9706 55.1989 49.1705 55.1989C47.911 55.1989 46.7888 54.9006 45.804 54.304C44.8191 53.7027 44.0426 52.8433 43.4744 51.7259C42.911 50.6084 42.6293 49.2756 42.6293 47.7273C42.6293 46.1742 42.9134 44.8414 43.4815 43.7287C44.0497 42.6113 44.8262 41.7543 45.8111 41.1577C46.7959 40.5563 47.9157 40.2557 49.1705 40.2557C49.9422 40.2557 50.6619 40.367 51.3295 40.5895C52.0019 40.8073 52.6056 41.1293 53.1406 41.5554C53.6757 41.9768 54.1184 42.4929 54.4688 43.1037C54.8191 43.7098 55.0559 44.4034 55.179 45.1847ZM60.8093 55.2415C60.118 55.2415 59.493 55.1136 58.9343 54.858C58.3756 54.5975 57.9329 54.2211 57.6062 53.7287C57.2842 53.2363 57.1232 52.6326 57.1232 51.9176C57.1232 51.3021 57.2416 50.7955 57.4783 50.3977C57.7151 50 58.0347 49.6851 58.4371 49.4531C58.8396 49.2211 59.2894 49.0459 59.7866 48.9276C60.2837 48.8092 60.7904 48.7192 61.3065 48.6577C61.9599 48.5819 62.4902 48.5204 62.8974 48.473C63.3046 48.4209 63.6005 48.3381 63.7852 48.2244C63.9698 48.1108 64.0621 47.9261 64.0621 47.6705V47.6207C64.0621 47.0005 63.887 46.5199 63.5366 46.179C63.1909 45.8381 62.6748 45.6676 61.9883 45.6676C61.2733 45.6676 60.7099 45.8262 60.2979 46.1435C59.8907 46.456 59.609 46.804 59.4528 47.1875L57.457 46.733C57.6938 46.0701 58.0394 45.535 58.494 45.1278C58.9532 44.7159 59.4812 44.4176 60.0778 44.233C60.6744 44.0436 61.3017 43.9489 61.9599 43.9489C62.3955 43.9489 62.8571 44.0009 63.3448 44.1051C63.8372 44.2045 64.2965 44.3892 64.7227 44.6591C65.1535 44.929 65.5063 45.3149 65.7809 45.8168C66.0555 46.3139 66.1928 46.9602 66.1928 47.7557V55H64.119V53.5085H64.0337C63.8964 53.7831 63.6905 54.053 63.4158 54.3182C63.1412 54.5833 62.7885 54.8035 62.3576 54.9787C61.9267 55.1539 61.4106 55.2415 60.8093 55.2415ZM61.271 53.5369C61.8581 53.5369 62.36 53.4209 62.7766 53.1889C63.198 52.9569 63.5176 52.6539 63.7354 52.2798C63.958 51.901 64.0692 51.4962 64.0692 51.0653V49.6591C63.9935 49.7348 63.8467 49.8059 63.6289 49.8722C63.4158 49.9337 63.172 49.9882 62.8974 50.0355C62.6228 50.0781 62.3552 50.1184 62.0948 50.1562C61.8344 50.1894 61.6166 50.2178 61.4414 50.2415C61.0295 50.2936 60.6531 50.3812 60.3121 50.5043C59.976 50.6274 59.7061 50.8049 59.5025 51.0369C59.3036 51.2642 59.2042 51.5672 59.2042 51.946C59.2042 52.4716 59.3983 52.8693 59.7866 53.1392C60.1748 53.4044 60.6696 53.5369 61.271 53.5369ZM77.196 46.7543L75.2713 47.0952C75.1908 46.849 75.063 46.6146 74.8878 46.392C74.7173 46.1695 74.4853 45.9872 74.1918 45.8452C73.8982 45.7031 73.5313 45.6321 73.0909 45.6321C72.4896 45.6321 71.9877 45.767 71.5852 46.0369C71.1828 46.3021 70.9815 46.6454 70.9815 47.0668C70.9815 47.4313 71.1165 47.7249 71.3864 47.9474C71.6563 48.17 72.0919 48.3523 72.6932 48.4943L74.4261 48.892C75.4299 49.1241 76.178 49.4815 76.6705 49.9645C77.1629 50.4474 77.4091 51.0748 77.4091 51.8466C77.4091 52.5 77.2197 53.0824 76.8409 53.5938C76.4669 54.1004 75.9437 54.4981 75.2713 54.7869C74.6037 55.0758 73.8295 55.2202 72.9489 55.2202C71.7273 55.2202 70.7306 54.9598 69.9588 54.4389C69.187 53.9134 68.7135 53.1676 68.5384 52.2017L70.5909 51.8892C70.7188 52.4242 70.9815 52.8291 71.3793 53.1037C71.777 53.3736 72.2955 53.5085 72.9347 53.5085C73.6307 53.5085 74.187 53.3641 74.6037 53.0753C75.0204 52.7817 75.2287 52.4242 75.2287 52.0028C75.2287 51.6619 75.1009 51.3755 74.8452 51.1435C74.5942 50.9115 74.2083 50.7363 73.6875 50.6179L71.8409 50.2131C70.8229 49.9811 70.0701 49.6117 69.5824 49.1051C69.0994 48.5985 68.858 47.9569 68.858 47.1804C68.858 46.5365 69.0379 45.973 69.3977 45.4901C69.7576 45.0071 70.2547 44.6307 70.8892 44.3608C71.5237 44.0862 72.2505 43.9489 73.0696 43.9489C74.2486 43.9489 75.1766 44.2045 75.8537 44.7159C76.5308 45.2225 76.9782 45.902 77.196 46.7543ZM81.8675 48.5227V55H79.744V40.4545H81.8391V45.8665H81.9741C82.2298 45.2794 82.6204 44.813 83.146 44.4673C83.6715 44.1217 84.3581 43.9489 85.2056 43.9489C85.9537 43.9489 86.6071 44.1027 87.1658 44.4105C87.7293 44.7183 88.1649 45.1776 88.4727 45.7884C88.7852 46.3944 88.9414 47.152 88.9414 48.0611V55H86.8178V48.3168C86.8178 47.5166 86.6119 46.8963 86.1999 46.456C85.788 46.0109 85.2151 45.7884 84.4812 45.7884C83.9793 45.7884 83.5295 45.8949 83.1317 46.108C82.7388 46.321 82.4286 46.6335 82.2013 47.0455C81.9788 47.4527 81.8675 47.9451 81.8675 48.5227ZM91.9457 55V40.4545H100.966V42.3438H94.1403V46.7756H100.319V48.6577H94.1403V55H91.9457ZM105.618 40.4545V55H103.494V40.4545H105.618ZM113.07 55.2202C112.047 55.2202 111.154 54.9858 110.392 54.517C109.63 54.0483 109.038 53.3925 108.616 52.5497C108.195 51.7069 107.984 50.7221 107.984 49.5952C107.984 48.4635 108.195 47.474 108.616 46.6264C109.038 45.7789 109.63 45.1207 110.392 44.652C111.154 44.1832 112.047 43.9489 113.07 43.9489C114.092 43.9489 114.985 44.1832 115.747 44.652C116.509 45.1207 117.101 45.7789 117.523 46.6264C117.944 47.474 118.155 48.4635 118.155 49.5952C118.155 50.7221 117.944 51.7069 117.523 52.5497C117.101 53.3925 116.509 54.0483 115.747 54.517C114.985 54.9858 114.092 55.2202 113.07 55.2202ZM113.077 53.4375C113.74 53.4375 114.289 53.2623 114.724 52.9119C115.16 52.5616 115.482 52.0952 115.69 51.5128C115.903 50.9304 116.01 50.2888 116.01 49.5881C116.01 48.892 115.903 48.2528 115.69 47.6705C115.482 47.0833 115.16 46.6122 114.724 46.2571C114.289 45.902 113.74 45.7244 113.077 45.7244C112.409 45.7244 111.855 45.902 111.415 46.2571C110.979 46.6122 110.655 47.0833 110.442 47.6705C110.233 48.2528 110.129 48.892 110.129 49.5881C110.129 50.2888 110.233 50.9304 110.442 51.5128C110.655 52.0952 110.979 52.5616 111.415 52.9119C111.855 53.2623 112.409 53.4375 113.077 53.4375ZM122.558 55L119.348 44.0909H121.543L123.68 52.1023H123.787L125.932 44.0909H128.126L130.257 52.0668H130.364L132.487 44.0909H134.682L131.479 55H129.312L127.097 47.1236H126.933L124.717 55H122.558Z" fill="black"/>
<path d="M47.3295 108.455C47.2784 108.023 47.071 107.688 46.7074 107.449C46.3438 107.21 45.8977 107.091 45.3693 107.091C44.983 107.091 44.6449 107.153 44.3551 107.278C44.0682 107.403 43.8438 107.575 43.6818 107.794C43.5227 108.013 43.4432 108.261 43.4432 108.54C43.4432 108.773 43.4986 108.973 43.6094 109.141C43.723 109.305 43.8679 109.443 44.044 109.554C44.2202 109.662 44.4048 109.751 44.598 109.822C44.7912 109.891 44.9688 109.946 45.1307 109.989L46.017 110.227C46.2443 110.287 46.4972 110.369 46.7756 110.474C47.0568 110.58 47.3253 110.723 47.581 110.905C47.8395 111.084 48.0526 111.314 48.2202 111.595C48.3878 111.876 48.4716 112.222 48.4716 112.631C48.4716 113.102 48.348 113.528 48.1009 113.909C47.8565 114.29 47.4986 114.592 47.027 114.817C46.5582 115.041 45.9886 115.153 45.3182 115.153C44.6932 115.153 44.152 115.053 43.6946 114.851C43.2401 114.649 42.8821 114.368 42.6207 114.007C42.3622 113.646 42.2159 113.227 42.1818 112.75H43.2727C43.3011 113.08 43.4119 113.352 43.6051 113.568C43.8011 113.781 44.0483 113.94 44.3466 114.045C44.6477 114.148 44.9716 114.199 45.3182 114.199C45.7216 114.199 46.0838 114.134 46.4048 114.003C46.7259 113.869 46.9801 113.685 47.1676 113.449C47.3551 113.21 47.4489 112.932 47.4489 112.614C47.4489 112.324 47.3679 112.088 47.206 111.906C47.044 111.724 46.831 111.577 46.5668 111.463C46.3026 111.349 46.017 111.25 45.7102 111.165L44.6364 110.858C43.9545 110.662 43.4148 110.382 43.017 110.018C42.6193 109.655 42.4205 109.179 42.4205 108.591C42.4205 108.102 42.5526 107.676 42.8168 107.312C43.0838 106.946 43.4418 106.662 43.8906 106.46C44.3423 106.256 44.8466 106.153 45.4034 106.153C45.9659 106.153 46.4659 106.254 46.9034 106.456C47.3409 106.655 47.6875 106.928 47.9432 107.274C48.2017 107.621 48.3381 108.014 48.3523 108.455H47.3295ZM52.8171 115.136C52.1864 115.136 51.6424 114.997 51.185 114.719C50.7305 114.438 50.3796 114.045 50.1325 113.543C49.8881 113.037 49.766 112.449 49.766 111.778C49.766 111.108 49.8881 110.517 50.1325 110.006C50.3796 109.491 50.7234 109.091 51.1637 108.804C51.6069 108.514 52.1239 108.369 52.7148 108.369C53.0558 108.369 53.3924 108.426 53.7248 108.54C54.0572 108.653 54.3597 108.838 54.6325 109.094C54.9052 109.347 55.1225 109.682 55.2844 110.099C55.4464 110.517 55.5273 111.031 55.5273 111.642V112.068H50.4819V111.199H54.5046C54.5046 110.83 54.4308 110.5 54.283 110.21C54.1381 109.92 53.9308 109.692 53.6609 109.524C53.3938 109.357 53.0785 109.273 52.7148 109.273C52.3143 109.273 51.9677 109.372 51.6751 109.571C51.3853 109.767 51.1623 110.023 51.006 110.338C50.8498 110.653 50.7717 110.991 50.7717 111.352V111.932C50.7717 112.426 50.8569 112.845 51.0273 113.189C51.2006 113.53 51.4407 113.79 51.7475 113.969C52.0543 114.145 52.4109 114.233 52.8171 114.233C53.0813 114.233 53.32 114.196 53.533 114.122C53.7489 114.045 53.935 113.932 54.0913 113.781C54.2475 113.628 54.3683 113.437 54.4535 113.21L55.4251 113.483C55.3228 113.812 55.1509 114.102 54.9094 114.352C54.668 114.599 54.3697 114.793 54.0146 114.932C53.6594 115.068 53.2603 115.136 52.8171 115.136ZM59.7163 115.136C59.1026 115.136 58.5742 114.991 58.131 114.702C57.6879 114.412 57.3469 114.013 57.1083 113.504C56.8697 112.996 56.7504 112.415 56.7504 111.761C56.7504 111.097 56.8725 110.51 57.1168 110.001C57.364 109.49 57.7077 109.091 58.1481 108.804C58.5913 108.514 59.1083 108.369 59.6992 108.369C60.1594 108.369 60.5742 108.455 60.9435 108.625C61.3129 108.795 61.6154 109.034 61.8512 109.341C62.087 109.648 62.2333 110.006 62.2901 110.415H61.2844C61.2077 110.116 61.0373 109.852 60.7731 109.622C60.5117 109.389 60.1594 109.273 59.7163 109.273C59.3242 109.273 58.9805 109.375 58.685 109.58C58.3924 109.781 58.1637 110.067 57.9989 110.436C57.837 110.803 57.756 111.233 57.756 111.727C57.756 112.233 57.8356 112.673 57.9947 113.048C58.1566 113.423 58.3839 113.714 58.6765 113.922C58.9719 114.129 59.3185 114.233 59.7163 114.233C59.9776 114.233 60.2148 114.188 60.4279 114.097C60.641 114.006 60.8214 113.875 60.9691 113.705C61.1168 113.534 61.2219 113.33 61.2844 113.091H62.2901C62.2333 113.477 62.0927 113.825 61.8683 114.135C61.6467 114.442 61.3526 114.686 60.9862 114.868C60.6225 115.047 60.1992 115.136 59.7163 115.136ZM66.4194 115.136C65.8285 115.136 65.31 114.996 64.864 114.714C64.4208 114.433 64.0742 114.04 63.8242 113.534C63.5771 113.028 63.4535 112.437 63.4535 111.761C63.4535 111.08 63.5771 110.484 63.8242 109.976C64.0742 109.467 64.4208 109.072 64.864 108.791C65.31 108.51 65.8285 108.369 66.4194 108.369C67.0103 108.369 67.5273 108.51 67.9705 108.791C68.4165 109.072 68.7631 109.467 69.0103 109.976C69.2603 110.484 69.3853 111.08 69.3853 111.761C69.3853 112.437 69.2603 113.028 69.0103 113.534C68.7631 114.04 68.4165 114.433 67.9705 114.714C67.5273 114.996 67.0103 115.136 66.4194 115.136ZM66.4194 114.233C66.8683 114.233 67.2376 114.118 67.5273 113.888C67.8171 113.658 68.0316 113.355 68.1708 112.98C68.31 112.605 68.3796 112.199 68.3796 111.761C68.3796 111.324 68.31 110.916 68.1708 110.538C68.0316 110.161 67.8171 109.855 67.5273 109.622C67.2376 109.389 66.8683 109.273 66.4194 109.273C65.9705 109.273 65.6012 109.389 65.3114 109.622C65.0217 109.855 64.8072 110.161 64.668 110.538C64.5288 110.916 64.4592 111.324 64.4592 111.761C64.4592 112.199 64.5288 112.605 64.668 112.98C64.8072 113.355 65.0217 113.658 65.3114 113.888C65.6012 114.118 65.9705 114.233 66.4194 114.233ZM71.9261 111.062V115H70.9205V108.455H71.892V109.477H71.9773C72.1307 109.145 72.3636 108.878 72.6761 108.676C72.9886 108.472 73.392 108.369 73.8864 108.369C74.3295 108.369 74.7173 108.46 75.0497 108.642C75.3821 108.821 75.6406 109.094 75.8253 109.46C76.0099 109.824 76.1023 110.284 76.1023 110.841V115H75.0966V110.909C75.0966 110.395 74.9631 109.994 74.696 109.707C74.429 109.418 74.0625 109.273 73.5966 109.273C73.2756 109.273 72.9886 109.342 72.7358 109.482C72.4858 109.621 72.2884 109.824 72.1435 110.091C71.9986 110.358 71.9261 110.682 71.9261 111.062ZM80.4116 115.136C79.8661 115.136 79.3846 114.999 78.967 114.723C78.5494 114.445 78.2227 114.053 77.9869 113.547C77.7511 113.038 77.6332 112.438 77.6332 111.744C77.6332 111.057 77.7511 110.46 77.9869 109.955C78.2227 109.449 78.5508 109.058 78.9712 108.783C79.3917 108.507 79.8775 108.369 80.4286 108.369C80.8548 108.369 81.1914 108.44 81.4386 108.582C81.6886 108.722 81.8789 108.881 82.0096 109.06C82.1431 109.236 82.2468 109.381 82.3207 109.494H82.4059V106.273H83.4116V115H82.44V113.994H82.3207C82.2468 114.114 82.1417 114.264 82.0053 114.446C81.869 114.625 81.6744 114.786 81.4215 114.928C81.1687 115.067 80.832 115.136 80.4116 115.136ZM80.5479 114.233C80.9513 114.233 81.2923 114.128 81.5707 113.918C81.8491 113.705 82.0607 113.411 82.2056 113.036C82.3505 112.658 82.4229 112.222 82.4229 111.727C82.4229 111.239 82.3519 110.811 82.2099 110.445C82.0678 110.075 81.8576 109.788 81.5792 109.584C81.3008 109.376 80.957 109.273 80.5479 109.273C80.1218 109.273 79.7667 109.382 79.4826 109.601C79.2013 109.817 78.9897 110.111 78.8477 110.483C78.7085 110.852 78.6388 111.267 78.6388 111.727C78.6388 112.193 78.7099 112.616 78.8519 112.997C78.9968 113.375 79.2099 113.676 79.4911 113.901C79.7752 114.122 80.1275 114.233 80.5479 114.233ZM87.3192 115.153C86.9045 115.153 86.5281 115.075 86.19 114.919C85.8519 114.76 85.5835 114.531 85.3846 114.233C85.1857 113.932 85.0863 113.568 85.0863 113.142C85.0863 112.767 85.1602 112.463 85.3079 112.23C85.4556 111.994 85.6531 111.81 85.9002 111.676C86.1474 111.543 86.4201 111.443 86.7184 111.378C87.0195 111.31 87.3221 111.256 87.6261 111.216C88.0238 111.165 88.3462 111.126 88.5934 111.101C88.8434 111.072 89.0252 111.026 89.1388 110.96C89.2553 110.895 89.3136 110.781 89.3136 110.619V110.585C89.3136 110.165 89.1985 109.838 88.9684 109.605C88.7411 109.372 88.396 109.256 87.9329 109.256C87.4528 109.256 87.0763 109.361 86.8036 109.571C86.5309 109.781 86.3391 110.006 86.2283 110.244L85.2738 109.903C85.4442 109.506 85.6715 109.196 85.9556 108.974C86.2425 108.75 86.555 108.594 86.8931 108.506C87.234 108.415 87.5692 108.369 87.8988 108.369C88.109 108.369 88.3505 108.395 88.6232 108.446C88.8988 108.494 89.1644 108.595 89.4201 108.749C89.6786 108.902 89.8931 109.134 90.0636 109.443C90.234 109.753 90.3192 110.168 90.3192 110.688V115H89.3136V114.114H89.2624C89.1942 114.256 89.0806 114.408 88.9215 114.57C88.7624 114.732 88.5508 114.869 88.2866 114.983C88.0224 115.097 87.6999 115.153 87.3192 115.153ZM87.4727 114.25C87.8704 114.25 88.2056 114.172 88.4783 114.016C88.7539 113.859 88.9613 113.658 89.1005 113.411C89.2425 113.163 89.3136 112.903 89.3136 112.631V111.71C89.271 111.761 89.1772 111.808 89.0323 111.851C88.8903 111.891 88.7255 111.926 88.538 111.957C88.3533 111.986 88.1729 112.011 87.9968 112.034C87.8235 112.054 87.6829 112.071 87.5749 112.085C87.3136 112.119 87.0692 112.175 86.842 112.251C86.6175 112.325 86.4357 112.437 86.2965 112.588C86.1602 112.736 86.092 112.937 86.092 113.193C86.092 113.543 86.2212 113.807 86.4798 113.986C86.7411 114.162 87.0721 114.25 87.4727 114.25ZM92.1548 115V108.455H93.1264V109.443H93.1946C93.3139 109.119 93.5298 108.857 93.8423 108.655C94.1548 108.453 94.5071 108.352 94.8991 108.352C94.973 108.352 95.0653 108.354 95.1761 108.357C95.2869 108.359 95.3707 108.364 95.4276 108.369V109.392C95.3935 109.384 95.3153 109.371 95.1932 109.354C95.0739 109.334 94.9474 109.324 94.8139 109.324C94.4957 109.324 94.2116 109.391 93.9616 109.524C93.7145 109.655 93.5185 109.837 93.3736 110.07C93.2315 110.3 93.1605 110.562 93.1605 110.858V115H92.1548ZM97.4666 117.455C97.2962 117.455 97.1442 117.44 97.0107 117.412C96.8771 117.386 96.7848 117.361 96.7337 117.335L96.9893 116.449C97.2337 116.511 97.4496 116.534 97.6371 116.517C97.8246 116.5 97.9908 116.416 98.1357 116.266C98.2834 116.118 98.4183 115.878 98.5405 115.545L98.728 115.034L96.3075 108.455H97.3984L99.2053 113.67H99.2734L101.08 108.455H102.171L99.3928 115.955C99.2678 116.293 99.1129 116.572 98.9283 116.794C98.7436 117.018 98.5291 117.185 98.2848 117.293C98.0433 117.401 97.7706 117.455 97.4666 117.455ZM109.72 108.455V109.307H106.328V108.455H109.72ZM107.317 106.886H108.322V113.125C108.322 113.409 108.364 113.622 108.446 113.764C108.531 113.903 108.639 113.997 108.77 114.045C108.903 114.091 109.044 114.114 109.192 114.114C109.303 114.114 109.393 114.108 109.464 114.097C109.536 114.082 109.592 114.071 109.635 114.062L109.839 114.966C109.771 114.991 109.676 115.017 109.554 115.043C109.432 115.071 109.277 115.085 109.089 115.085C108.805 115.085 108.527 115.024 108.254 114.902C107.984 114.78 107.76 114.594 107.581 114.344C107.405 114.094 107.317 113.778 107.317 113.398V106.886ZM113.907 115.136C113.276 115.136 112.732 114.997 112.275 114.719C111.82 114.438 111.469 114.045 111.222 113.543C110.978 113.037 110.856 112.449 110.856 111.778C110.856 111.108 110.978 110.517 111.222 110.006C111.469 109.491 111.813 109.091 112.254 108.804C112.697 108.514 113.214 108.369 113.805 108.369C114.146 108.369 114.482 108.426 114.815 108.54C115.147 108.653 115.45 108.838 115.722 109.094C115.995 109.347 116.212 109.682 116.374 110.099C116.536 110.517 116.617 111.031 116.617 111.642V112.068H111.572V111.199H115.594C115.594 110.83 115.521 110.5 115.373 110.21C115.228 109.92 115.021 109.692 114.751 109.524C114.484 109.357 114.168 109.273 113.805 109.273C113.404 109.273 113.058 109.372 112.765 109.571C112.475 109.767 112.252 110.023 112.096 110.338C111.94 110.653 111.862 110.991 111.862 111.352V111.932C111.862 112.426 111.947 112.845 112.117 113.189C112.29 113.53 112.531 113.79 112.837 113.969C113.144 114.145 113.501 114.233 113.907 114.233C114.171 114.233 114.41 114.196 114.623 114.122C114.839 114.045 115.025 113.932 115.181 113.781C115.337 113.628 115.458 113.437 115.543 113.21L116.515 113.483C116.413 113.812 116.241 114.102 115.999 114.352C115.758 114.599 115.46 114.793 115.104 114.932C114.749 115.068 114.35 115.136 113.907 115.136ZM118.721 108.455L120.289 111.131L121.858 108.455H123.017L120.903 111.727L123.017 115H121.858L120.289 112.46L118.721 115H117.562L119.642 111.727L117.562 108.455H118.721ZM127.298 108.455V109.307H123.906V108.455H127.298ZM124.895 106.886H125.901V113.125C125.901 113.409 125.942 113.622 126.024 113.764C126.109 113.903 126.217 113.997 126.348 114.045C126.482 114.091 126.622 114.114 126.77 114.114C126.881 114.114 126.972 114.108 127.043 114.097C127.114 114.082 127.17 114.071 127.213 114.062L127.418 114.966C127.349 114.991 127.254 115.017 127.132 115.043C127.01 115.071 126.855 115.085 126.668 115.085C126.384 115.085 126.105 115.024 125.832 114.902C125.563 114.78 125.338 114.594 125.159 114.344C124.983 114.094 124.895 113.778 124.895 113.398V106.886Z" fill="#4F4F4F"/>
<path d="M50.9205 95.9091V66.8182H52.7841V95.9091H50.9205ZM56.75 75.8409C56.6288 74.7652 56.1288 73.9318 55.25 73.3409C54.3712 72.7424 53.2652 72.4432 51.9318 72.4432C50.9773 72.4432 50.1515 72.5947 49.4545 72.8977C48.7576 73.1932 48.2159 73.6023 47.8295 74.125C47.4508 74.6402 47.2614 75.2273 47.2614 75.8864C47.2614 76.4394 47.3902 76.9167 47.6477 77.3182C47.9129 77.7197 48.2576 78.0568 48.6818 78.3295C49.1136 78.5947 49.5758 78.8182 50.0682 79C50.5606 79.1742 51.0341 79.3182 51.4886 79.4318L53.7614 80.0227C54.5038 80.2045 55.2652 80.4508 56.0455 80.7614C56.8258 81.072 57.5492 81.4811 58.2159 81.9886C58.8826 82.4962 59.4205 83.125 59.8295 83.875C60.2462 84.625 60.4545 85.5227 60.4545 86.5682C60.4545 87.8864 60.1136 89.0568 59.4318 90.0795C58.7576 91.1023 57.7765 91.9091 56.4886 92.5C55.2083 93.0909 53.6591 93.3864 51.8409 93.3864C50.0985 93.3864 48.5909 93.1098 47.3182 92.5568C46.0455 92.0038 45.0492 91.2197 44.3295 90.2045C43.6098 89.1818 43.2121 87.9697 43.1364 86.5682H46.6591C46.7273 87.4091 47 88.1098 47.4773 88.6705C47.9621 89.2235 48.5795 89.6364 49.3295 89.9091C50.0871 90.1742 50.9167 90.3068 51.8182 90.3068C52.8106 90.3068 53.6932 90.1515 54.4659 89.8409C55.2462 89.5227 55.8598 89.0833 56.3068 88.5227C56.7538 87.9545 56.9773 87.2917 56.9773 86.5341C56.9773 85.8447 56.7803 85.2803 56.3864 84.8409C56 84.4015 55.4735 84.0379 54.8068 83.75C54.1477 83.4621 53.4015 83.2083 52.5682 82.9886L49.8182 82.2386C47.9545 81.7311 46.4773 80.9848 45.3864 80C44.303 79.0152 43.7614 77.7121 43.7614 76.0909C43.7614 74.75 44.125 73.5795 44.8523 72.5795C45.5795 71.5795 46.5644 70.803 47.8068 70.25C49.0492 69.6894 50.4508 69.4091 52.0114 69.4091C53.5871 69.4091 54.9773 69.6856 56.1818 70.2386C57.3939 70.7917 58.3485 71.553 59.0455 72.5227C59.7424 73.4848 60.1061 74.5909 60.1364 75.8409H56.75ZM72.0142 93.3182C70.59 93.3182 69.3097 93.0455 68.1733 92.5C67.0445 91.947 66.143 91.1894 65.4688 90.2273C64.7945 89.2652 64.4347 88.1667 64.3892 86.9318H67.7983C67.8816 87.9318 68.3248 88.7538 69.1278 89.3977C69.9309 90.0417 70.893 90.3636 72.0142 90.3636C72.9081 90.3636 73.6998 90.1591 74.3892 89.75C75.0862 89.3333 75.6316 88.7614 76.0256 88.0341C76.4271 87.3068 76.6278 86.4773 76.6278 85.5455C76.6278 84.5985 76.4233 83.7538 76.0142 83.0114C75.6051 82.2689 75.0407 81.6856 74.321 81.2614C73.6089 80.8371 72.7907 80.6212 71.8665 80.6136C71.1619 80.6136 70.4536 80.7348 69.7415 80.9773C69.0294 81.2197 68.4536 81.5379 68.0142 81.9318L64.7983 81.4545L66.1051 69.7273H78.9006V72.7386H69.0256L68.2869 79.25H68.4233C68.8778 78.8106 69.4801 78.4432 70.2301 78.1477C70.9877 77.8523 71.7983 77.7045 72.6619 77.7045C74.0786 77.7045 75.34 78.0417 76.446 78.7159C77.5597 79.3902 78.4347 80.3106 79.071 81.4773C79.715 82.6364 80.0331 83.9697 80.0256 85.4773C80.0331 86.9848 79.6922 88.3295 79.0028 89.5114C78.321 90.6932 77.3741 91.625 76.1619 92.3068C74.9574 92.9811 73.5748 93.3182 72.0142 93.3182ZM92.2784 93.3864C90.483 93.3788 88.9489 92.9053 87.6761 91.9659C86.4034 91.0265 85.4299 89.6591 84.7557 87.8636C84.0814 86.0682 83.7443 83.9053 83.7443 81.375C83.7443 78.8523 84.0814 76.697 84.7557 74.9091C85.4375 73.1212 86.4148 71.7576 87.6875 70.8182C88.9678 69.8788 90.4981 69.4091 92.2784 69.4091C94.0587 69.4091 95.5852 69.8826 96.858 70.8295C98.1307 71.7689 99.1042 73.1326 99.7784 74.9205C100.46 76.7008 100.801 78.8523 100.801 81.375C100.801 83.9129 100.464 86.0795 99.7898 87.875C99.1155 89.6629 98.142 91.0303 96.8693 91.9773C95.5966 92.9167 94.0663 93.3864 92.2784 93.3864ZM92.2784 90.3523C93.8542 90.3523 95.0852 89.5833 95.9716 88.0455C96.8655 86.5076 97.3125 84.2841 97.3125 81.375C97.3125 79.4432 97.108 77.8106 96.6989 76.4773C96.2973 75.1364 95.7178 74.1212 94.9602 73.4318C94.2102 72.7348 93.3163 72.3864 92.2784 72.3864C90.7102 72.3864 89.4792 73.1591 88.5852 74.7045C87.6913 76.25 87.2405 78.4735 87.233 81.375C87.233 83.3144 87.4337 84.9545 87.8352 86.2955C88.2443 87.6288 88.8239 88.6402 89.5739 89.3295C90.3239 90.0114 91.2254 90.3523 92.2784 90.3523ZM112.935 93.3864C111.139 93.3788 109.605 92.9053 108.332 91.9659C107.06 91.0265 106.086 89.6591 105.412 87.8636C104.738 86.0682 104.401 83.9053 104.401 81.375C104.401 78.8523 104.738 76.697 105.412 74.9091C106.094 73.1212 107.071 71.7576 108.344 70.8182C109.624 69.8788 111.154 69.4091 112.935 69.4091C114.715 69.4091 116.241 69.8826 117.514 70.8295C118.787 71.7689 119.76 73.1326 120.435 74.9205C121.116 76.7008 121.457 78.8523 121.457 81.375C121.457 83.9129 121.12 86.0795 120.446 87.875C119.772 89.6629 118.798 91.0303 117.526 91.9773C116.253 92.9167 114.723 93.3864 112.935 93.3864ZM112.935 90.3523C114.51 90.3523 115.741 89.5833 116.628 88.0455C117.522 86.5076 117.969 84.2841 117.969 81.375C117.969 79.4432 117.764 77.8106 117.355 76.4773C116.954 75.1364 116.374 74.1212 115.616 73.4318C114.866 72.7348 113.973 72.3864 112.935 72.3864C111.366 72.3864 110.135 73.1591 109.241 74.7045C108.348 76.25 107.897 78.4735 107.889 81.375C107.889 83.3144 108.09 84.9545 108.491 86.2955C108.901 87.6288 109.48 88.6402 110.23 89.3295C110.98 90.0114 111.882 90.3523 112.935 90.3523ZM129.111 89.8182L128.94 91.0568C128.827 91.9659 128.634 92.9129 128.361 93.8977C128.096 94.8902 127.819 95.8106 127.531 96.6591C127.251 97.5076 127.02 98.1818 126.838 98.6818H124.429C124.527 98.2121 124.664 97.5758 124.838 96.7727C125.012 95.9773 125.183 95.0871 125.349 94.1023C125.516 93.1174 125.641 92.1136 125.724 91.0909L125.838 89.8182H129.111ZM141.321 69.4091C142.359 69.4167 143.382 69.6061 144.389 69.9773C145.397 70.3485 146.306 70.9545 147.116 71.7955C147.935 72.6364 148.586 73.7727 149.071 75.2045C149.563 76.6288 149.813 78.4015 149.821 80.5227C149.821 82.5606 149.616 84.375 149.207 85.9659C148.798 87.5492 148.211 88.8864 147.446 89.9773C146.688 91.0682 145.768 91.8977 144.685 92.4659C143.601 93.0341 142.382 93.3182 141.026 93.3182C139.639 93.3182 138.408 93.0455 137.332 92.5C136.257 91.9545 135.382 91.2008 134.707 90.2386C134.033 89.2689 133.613 88.1553 133.446 86.8977H136.912C137.139 87.8977 137.601 88.7083 138.298 89.3295C139.003 89.9432 139.912 90.25 141.026 90.25C142.73 90.25 144.06 89.5076 145.014 88.0227C145.969 86.5303 146.45 84.447 146.457 81.7727H146.276C145.882 82.4242 145.389 82.9848 144.798 83.4545C144.215 83.9242 143.56 84.2879 142.832 84.5455C142.105 84.803 141.329 84.9318 140.503 84.9318C139.162 84.9318 137.942 84.6023 136.844 83.9432C135.745 83.2841 134.87 82.3788 134.219 81.2273C133.567 80.0758 133.241 78.7614 133.241 77.2841C133.241 75.8144 133.575 74.4811 134.241 73.2841C134.916 72.0871 135.855 71.1402 137.06 70.4432C138.272 69.7386 139.692 69.3939 141.321 69.4091ZM141.332 72.3636C140.446 72.3636 139.647 72.5833 138.935 73.0227C138.23 73.4545 137.673 74.0417 137.264 74.7841C136.855 75.5189 136.651 76.3371 136.651 77.2386C136.651 78.1402 136.848 78.9583 137.241 79.6932C137.643 80.4205 138.188 81 138.878 81.4318C139.575 81.8561 140.37 82.0682 141.264 82.0682C141.931 82.0682 142.552 81.9394 143.128 81.6818C143.704 81.4242 144.207 81.0682 144.639 80.6136C145.071 80.1515 145.408 79.6288 145.651 79.0455C145.893 78.4621 146.014 77.8485 146.014 77.2045C146.014 76.3485 145.81 75.553 145.401 74.8182C144.999 74.0833 144.446 73.4924 143.741 73.0455C143.037 72.5909 142.234 72.3636 141.332 72.3636ZM161.79 93.3182C160.161 93.3182 158.722 93.0379 157.472 92.4773C156.229 91.9167 155.256 91.1439 154.551 90.1591C153.847 89.1742 153.498 88.053 153.506 86.7955C153.498 85.8106 153.699 84.9053 154.108 84.0795C154.525 83.2462 155.089 82.553 155.801 82C156.513 81.4394 157.309 81.0833 158.188 80.9318V80.7955C157.028 80.5152 156.1 79.8939 155.403 78.9318C154.706 77.9697 154.362 76.8636 154.369 75.6136C154.362 74.4242 154.676 73.3636 155.312 72.4318C155.956 71.4924 156.839 70.7538 157.96 70.2159C159.081 69.678 160.358 69.4091 161.79 69.4091C163.206 69.4091 164.472 69.6818 165.585 70.2273C166.706 70.7652 167.589 71.5038 168.233 72.4432C168.877 73.375 169.203 74.4318 169.21 75.6136C169.203 76.8636 168.847 77.9697 168.142 78.9318C167.438 79.8939 166.521 80.5152 165.392 80.7955V80.9318C166.263 81.0833 167.047 81.4394 167.744 82C168.449 82.553 169.009 83.2462 169.426 84.0795C169.85 84.9053 170.066 85.8106 170.074 86.7955C170.066 88.053 169.71 89.1742 169.006 90.1591C168.301 91.1439 167.324 91.9167 166.074 92.4773C164.831 93.0379 163.403 93.3182 161.79 93.3182ZM161.79 90.4432C162.752 90.4432 163.585 90.2841 164.29 89.9659C164.994 89.6402 165.54 89.1894 165.926 88.6136C166.313 88.0303 166.509 87.3485 166.517 86.5682C166.509 85.7576 166.297 85.0417 165.881 84.4205C165.472 83.7992 164.915 83.3106 164.21 82.9545C163.506 82.5985 162.699 82.4205 161.79 82.4205C160.873 82.4205 160.059 82.5985 159.347 82.9545C158.634 83.3106 158.074 83.7992 157.665 84.4205C157.256 85.0417 157.055 85.7576 157.062 86.5682C157.055 87.3485 157.241 88.0303 157.619 88.6136C158.006 89.1894 158.555 89.6402 159.267 89.9659C159.979 90.2841 160.82 90.4432 161.79 90.4432ZM161.79 79.6136C162.563 79.6136 163.248 79.4583 163.847 79.1477C164.445 78.8371 164.915 78.4053 165.256 77.8523C165.604 77.2992 165.782 76.6515 165.79 75.9091C165.782 75.1818 165.608 74.5455 165.267 74C164.934 73.4545 164.468 73.0341 163.869 72.7386C163.271 72.4356 162.578 72.2841 161.79 72.2841C160.987 72.2841 160.282 72.4356 159.676 72.7386C159.078 73.0341 158.612 73.4545 158.278 74C157.945 74.5455 157.782 75.1818 157.79 75.9091C157.782 76.6515 157.949 77.2992 158.29 77.8523C158.631 78.4053 159.1 78.8371 159.699 79.1477C160.305 79.4583 161.002 79.6136 161.79 79.6136ZM174.929 93L185.088 72.9091V72.7386H173.338V69.7273H188.724V72.8409L178.599 93H174.929ZM193.142 89.8182L192.972 91.0568C192.858 91.9659 192.665 92.9129 192.392 93.8977C192.127 94.8902 191.85 95.8106 191.562 96.6591C191.282 97.5076 191.051 98.1818 190.869 98.6818H188.46C188.559 98.2121 188.695 97.5758 188.869 96.7727C189.044 95.9773 189.214 95.0871 189.381 94.1023C189.547 93.1174 189.672 92.1136 189.756 91.0909L189.869 89.8182H193.142ZM205.153 93.3182C203.593 93.3182 202.199 93.0492 200.972 92.5114C199.752 91.9735 198.786 91.2273 198.074 90.2727C197.369 89.3106 196.991 88.197 196.938 86.9318H200.506C200.551 87.6212 200.782 88.2197 201.199 88.7273C201.623 89.2273 202.176 89.6136 202.858 89.8864C203.54 90.1591 204.297 90.2955 205.131 90.2955C206.047 90.2955 206.858 90.1364 207.562 89.8182C208.275 89.5 208.831 89.0568 209.233 88.4886C209.634 87.9129 209.835 87.25 209.835 86.5C209.835 85.7197 209.634 85.0341 209.233 84.4432C208.839 83.8447 208.259 83.375 207.494 83.0341C206.737 82.6932 205.82 82.5227 204.744 82.5227H202.778V79.6591H204.744C205.608 79.6591 206.366 79.5038 207.017 79.1932C207.676 78.8826 208.191 78.4508 208.562 77.8977C208.934 77.3371 209.119 76.6818 209.119 75.9318C209.119 75.2121 208.956 74.5871 208.631 74.0568C208.313 73.5189 207.858 73.0985 207.267 72.7955C206.684 72.4924 205.994 72.3409 205.199 72.3409C204.441 72.3409 203.733 72.4811 203.074 72.7614C202.422 73.0341 201.892 73.428 201.483 73.9432C201.074 74.4508 200.854 75.0606 200.824 75.7727H197.426C197.464 74.5152 197.835 73.4091 198.54 72.4545C199.252 71.5 200.191 70.7538 201.358 70.2159C202.525 69.678 203.82 69.4091 205.244 69.4091C206.737 69.4091 208.025 69.7008 209.108 70.2841C210.199 70.8598 211.04 71.6288 211.631 72.5909C212.229 73.553 212.525 74.6061 212.517 75.75C212.525 77.053 212.161 78.1591 211.426 79.0682C210.699 79.9773 209.729 80.5871 208.517 80.8977V81.0795C210.063 81.3144 211.259 81.928 212.108 82.9205C212.964 83.9129 213.388 85.1439 213.381 86.6136C213.388 87.8939 213.032 89.0417 212.312 90.0568C211.6 91.072 210.627 91.8712 209.392 92.4545C208.157 93.0303 206.744 93.3182 205.153 93.3182ZM217.188 88.4545V85.6136L227.244 69.7273H229.483V73.9091H228.062L220.869 85.2955V85.4773H234.653V88.4545H217.188ZM228.222 93V87.5909L228.244 86.2955V69.7273H231.574V93H228.222Z" fill="black"/>
<circle cx="318.5" cy="48" r="12" fill="#BDBDBD"/>
<rect x="316.5" y="45.3335" width="3.99999" height="10.6666" rx="2" fill="white"/>
<rect x="316.5" y="40" width="3.99999" height="3.99999" rx="2" fill="white"/>
<path d="M10.5 136H365.5" stroke="#F0F0F0" stroke-width="2"/>
<path d="M59.5568 386V377.273H62.5057C63.1903 377.273 63.75 377.396 64.1847 377.643C64.6222 377.888 64.946 378.219 65.1562 378.636C65.3665 379.054 65.4716 379.52 65.4716 380.034C65.4716 380.548 65.3665 381.016 65.1562 381.436C64.9489 381.857 64.6278 382.192 64.1932 382.442C63.7585 382.689 63.2017 382.812 62.5227 382.812H60.4091V381.875H62.4886C62.9574 381.875 63.3338 381.794 63.6179 381.632C63.902 381.47 64.108 381.251 64.2358 380.976C64.3665 380.697 64.4318 380.384 64.4318 380.034C64.4318 379.685 64.3665 379.372 64.2358 379.097C64.108 378.821 63.9006 378.605 63.6136 378.449C63.3267 378.29 62.946 378.21 62.4716 378.21H60.6136V386H59.5568ZM67.0376 386V379.455H68.0092V380.443H68.0774C68.1967 380.119 68.4126 379.857 68.7251 379.655C69.0376 379.453 69.3899 379.352 69.782 379.352C69.8558 379.352 69.9482 379.354 70.0589 379.357C70.1697 379.359 70.2536 379.364 70.3104 379.369V380.392C70.2763 380.384 70.1982 380.371 70.076 380.354C69.9567 380.334 69.8303 380.324 69.6967 380.324C69.3786 380.324 69.0945 380.391 68.8445 380.524C68.5973 380.655 68.4013 380.837 68.2564 381.07C68.1143 381.3 68.0433 381.562 68.0433 381.858V386H67.0376ZM73.9624 386.136C73.3714 386.136 72.853 385.996 72.407 385.714C71.9638 385.433 71.6172 385.04 71.3672 384.534C71.12 384.028 70.9964 383.437 70.9964 382.761C70.9964 382.08 71.12 381.484 71.3672 380.976C71.6172 380.467 71.9638 380.072 72.407 379.791C72.853 379.51 73.3714 379.369 73.9624 379.369C74.5533 379.369 75.0703 379.51 75.5135 379.791C75.9595 380.072 76.3061 380.467 76.5533 380.976C76.8033 381.484 76.9283 382.08 76.9283 382.761C76.9283 383.437 76.8033 384.028 76.5533 384.534C76.3061 385.04 75.9595 385.433 75.5135 385.714C75.0703 385.996 74.5533 386.136 73.9624 386.136ZM73.9624 385.233C74.4112 385.233 74.7805 385.118 75.0703 384.888C75.3601 384.658 75.5746 384.355 75.7138 383.98C75.853 383.605 75.9226 383.199 75.9226 382.761C75.9226 382.324 75.853 381.916 75.7138 381.538C75.5746 381.161 75.3601 380.855 75.0703 380.622C74.7805 380.389 74.4112 380.273 73.9624 380.273C73.5135 380.273 73.1442 380.389 72.8544 380.622C72.5646 380.855 72.3501 381.161 72.2109 381.538C72.0717 381.916 72.0021 382.324 72.0021 382.761C72.0021 383.199 72.0717 383.605 72.2109 383.98C72.3501 384.355 72.5646 384.658 72.8544 384.888C73.1442 385.118 73.5135 385.233 73.9624 385.233ZM80.935 386.136C80.3896 386.136 79.908 385.999 79.4904 385.723C79.0728 385.445 78.7461 385.053 78.5103 384.547C78.2745 384.038 78.1566 383.438 78.1566 382.744C78.1566 382.057 78.2745 381.46 78.5103 380.955C78.7461 380.449 79.0742 380.058 79.4947 379.783C79.9151 379.507 80.4009 379.369 80.9521 379.369C81.3782 379.369 81.7148 379.44 81.962 379.582C82.212 379.722 82.4023 379.881 82.533 380.06C82.6665 380.236 82.7702 380.381 82.8441 380.494H82.9293V377.273H83.935V386H82.9634V384.994H82.8441C82.7702 385.114 82.6651 385.264 82.5288 385.446C82.3924 385.625 82.1978 385.786 81.945 385.928C81.6921 386.067 81.3555 386.136 80.935 386.136ZM81.0714 385.233C81.4748 385.233 81.8157 385.128 82.0941 384.918C82.3725 384.705 82.5842 384.411 82.729 384.036C82.8739 383.658 82.9464 383.222 82.9464 382.727C82.9464 382.239 82.8754 381.811 82.7333 381.445C82.5913 381.075 82.381 380.788 82.1026 380.584C81.8242 380.376 81.4805 380.273 81.0714 380.273C80.6452 380.273 80.2901 380.382 80.006 380.601C79.7248 380.817 79.5131 381.111 79.3711 381.483C79.2319 381.852 79.1623 382.267 79.1623 382.727C79.1623 383.193 79.2333 383.616 79.3754 383.997C79.5202 384.375 79.7333 384.676 80.0146 384.901C80.2987 385.122 80.6509 385.233 81.0714 385.233ZM90.0415 383.324V379.455H91.0472V386H90.0415V384.892H89.9734C89.82 385.224 89.5813 385.507 89.2575 385.74C88.9336 385.97 88.5245 386.085 88.0302 386.085C87.6211 386.085 87.2575 385.996 86.9393 385.817C86.6211 385.635 86.3711 385.362 86.1893 384.999C86.0075 384.632 85.9165 384.17 85.9165 383.614V379.455H86.9222V383.545C86.9222 384.023 87.0558 384.403 87.3228 384.688C87.5927 384.972 87.9364 385.114 88.354 385.114C88.604 385.114 88.8583 385.05 89.1168 384.922C89.3782 384.794 89.5969 384.598 89.7731 384.334C89.9521 384.07 90.0415 383.733 90.0415 383.324ZM95.5483 386.136C94.9347 386.136 94.4063 385.991 93.9631 385.702C93.5199 385.412 93.179 385.013 92.9403 384.504C92.7017 383.996 92.5824 383.415 92.5824 382.761C92.5824 382.097 92.7045 381.51 92.9489 381.001C93.196 380.49 93.5398 380.091 93.9801 379.804C94.4233 379.514 94.9403 379.369 95.5312 379.369C95.9915 379.369 96.4062 379.455 96.7756 379.625C97.1449 379.795 97.4474 380.034 97.6832 380.341C97.919 380.648 98.0653 381.006 98.1222 381.415H97.1165C97.0398 381.116 96.8693 380.852 96.6051 380.622C96.3438 380.389 95.9915 380.273 95.5483 380.273C95.1563 380.273 94.8125 380.375 94.517 380.58C94.2244 380.781 93.9957 381.067 93.831 381.436C93.669 381.803 93.5881 382.233 93.5881 382.727C93.5881 383.233 93.6676 383.673 93.8267 384.048C93.9886 384.423 94.2159 384.714 94.5085 384.922C94.804 385.129 95.1506 385.233 95.5483 385.233C95.8097 385.233 96.0469 385.188 96.2599 385.097C96.473 385.006 96.6534 384.875 96.8011 384.705C96.9489 384.534 97.054 384.33 97.1165 384.091H98.1222C98.0653 384.477 97.9247 384.825 97.7003 385.135C97.4787 385.442 97.1847 385.686 96.8182 385.868C96.4545 386.047 96.0313 386.136 95.5483 386.136ZM102.439 379.455V380.307H99.0469V379.455H102.439ZM100.036 377.886H101.041V384.125C101.041 384.409 101.082 384.622 101.165 384.764C101.25 384.903 101.358 384.997 101.489 385.045C101.622 385.091 101.763 385.114 101.911 385.114C102.021 385.114 102.112 385.108 102.183 385.097C102.254 385.082 102.311 385.071 102.354 385.062L102.558 385.966C102.49 385.991 102.395 386.017 102.273 386.043C102.151 386.071 101.996 386.085 101.808 386.085C101.524 386.085 101.246 386.024 100.973 385.902C100.703 385.78 100.479 385.594 100.3 385.344C100.124 385.094 100.036 384.778 100.036 384.398V377.886ZM110.378 377.273V386H109.321V378.381H109.27L107.139 379.795V378.722L109.321 377.273H110.378Z" fill="black"/>
<circle cx="46" cy="382.5" r="4.5" fill="#9654F4"/>
<path d="M145.557 386V377.273H148.506C149.19 377.273 149.75 377.396 150.185 377.643C150.622 377.888 150.946 378.219 151.156 378.636C151.366 379.054 151.472 379.52 151.472 380.034C151.472 380.548 151.366 381.016 151.156 381.436C150.949 381.857 150.628 382.192 150.193 382.442C149.759 382.689 149.202 382.812 148.523 382.812H146.409V381.875H148.489C148.957 381.875 149.334 381.794 149.618 381.632C149.902 381.47 150.108 381.251 150.236 380.976C150.366 380.697 150.432 380.384 150.432 380.034C150.432 379.685 150.366 379.372 150.236 379.097C150.108 378.821 149.901 378.605 149.614 378.449C149.327 378.29 148.946 378.21 148.472 378.21H146.614V386H145.557ZM153.038 386V379.455H154.009V380.443H154.077C154.197 380.119 154.413 379.857 154.725 379.655C155.038 379.453 155.39 379.352 155.782 379.352C155.856 379.352 155.948 379.354 156.059 379.357C156.17 379.359 156.254 379.364 156.31 379.369V380.392C156.276 380.384 156.198 380.371 156.076 380.354C155.957 380.334 155.83 380.324 155.697 380.324C155.379 380.324 155.094 380.391 154.844 380.524C154.597 380.655 154.401 380.837 154.256 381.07C154.114 381.3 154.043 381.562 154.043 381.858V386H153.038ZM159.962 386.136C159.371 386.136 158.853 385.996 158.407 385.714C157.964 385.433 157.617 385.04 157.367 384.534C157.12 384.028 156.996 383.437 156.996 382.761C156.996 382.08 157.12 381.484 157.367 380.976C157.617 380.467 157.964 380.072 158.407 379.791C158.853 379.51 159.371 379.369 159.962 379.369C160.553 379.369 161.07 379.51 161.513 379.791C161.96 380.072 162.306 380.467 162.553 380.976C162.803 381.484 162.928 382.08 162.928 382.761C162.928 383.437 162.803 384.028 162.553 384.534C162.306 385.04 161.96 385.433 161.513 385.714C161.07 385.996 160.553 386.136 159.962 386.136ZM159.962 385.233C160.411 385.233 160.781 385.118 161.07 384.888C161.36 384.658 161.575 384.355 161.714 383.98C161.853 383.605 161.923 383.199 161.923 382.761C161.923 382.324 161.853 381.916 161.714 381.538C161.575 381.161 161.36 380.855 161.07 380.622C160.781 380.389 160.411 380.273 159.962 380.273C159.513 380.273 159.144 380.389 158.854 380.622C158.565 380.855 158.35 381.161 158.211 381.538C158.072 381.916 158.002 382.324 158.002 382.761C158.002 383.199 158.072 383.605 158.211 383.98C158.35 384.355 158.565 384.658 158.854 384.888C159.144 385.118 159.513 385.233 159.962 385.233ZM166.935 386.136C166.39 386.136 165.908 385.999 165.49 385.723C165.073 385.445 164.746 385.053 164.51 384.547C164.275 384.038 164.157 383.438 164.157 382.744C164.157 382.057 164.275 381.46 164.51 380.955C164.746 380.449 165.074 380.058 165.495 379.783C165.915 379.507 166.401 379.369 166.952 379.369C167.378 379.369 167.715 379.44 167.962 379.582C168.212 379.722 168.402 379.881 168.533 380.06C168.667 380.236 168.77 380.381 168.844 380.494H168.929V377.273H169.935V386H168.963V384.994H168.844C168.77 385.114 168.665 385.264 168.529 385.446C168.392 385.625 168.198 385.786 167.945 385.928C167.692 386.067 167.355 386.136 166.935 386.136ZM167.071 385.233C167.475 385.233 167.816 385.128 168.094 384.918C168.373 384.705 168.584 384.411 168.729 384.036C168.874 383.658 168.946 383.222 168.946 382.727C168.946 382.239 168.875 381.811 168.733 381.445C168.591 381.075 168.381 380.788 168.103 380.584C167.824 380.376 167.48 380.273 167.071 380.273C166.645 380.273 166.29 380.382 166.006 380.601C165.725 380.817 165.513 381.111 165.371 381.483C165.232 381.852 165.162 382.267 165.162 382.727C165.162 383.193 165.233 383.616 165.375 383.997C165.52 384.375 165.733 384.676 166.015 384.901C166.299 385.122 166.651 385.233 167.071 385.233ZM176.042 383.324V379.455H177.047V386H176.042V384.892H175.973C175.82 385.224 175.581 385.507 175.257 385.74C174.934 385.97 174.525 386.085 174.03 386.085C173.621 386.085 173.257 385.996 172.939 385.817C172.621 385.635 172.371 385.362 172.189 384.999C172.007 384.632 171.917 384.17 171.917 383.614V379.455H172.922V383.545C172.922 384.023 173.056 384.403 173.323 384.688C173.593 384.972 173.936 385.114 174.354 385.114C174.604 385.114 174.858 385.05 175.117 384.922C175.378 384.794 175.597 384.598 175.773 384.334C175.952 384.07 176.042 383.733 176.042 383.324ZM181.548 386.136C180.935 386.136 180.406 385.991 179.963 385.702C179.52 385.412 179.179 385.013 178.94 384.504C178.702 383.996 178.582 383.415 178.582 382.761C178.582 382.097 178.705 381.51 178.949 381.001C179.196 380.49 179.54 380.091 179.98 379.804C180.423 379.514 180.94 379.369 181.531 379.369C181.991 379.369 182.406 379.455 182.776 379.625C183.145 379.795 183.447 380.034 183.683 380.341C183.919 380.648 184.065 381.006 184.122 381.415H183.116C183.04 381.116 182.869 380.852 182.605 380.622C182.344 380.389 181.991 380.273 181.548 380.273C181.156 380.273 180.813 380.375 180.517 380.58C180.224 380.781 179.996 381.067 179.831 381.436C179.669 381.803 179.588 382.233 179.588 382.727C179.588 383.233 179.668 383.673 179.827 384.048C179.989 384.423 180.216 384.714 180.509 384.922C180.804 385.129 181.151 385.233 181.548 385.233C181.81 385.233 182.047 385.188 182.26 385.097C182.473 385.006 182.653 384.875 182.801 384.705C182.949 384.534 183.054 384.33 183.116 384.091H184.122C184.065 384.477 183.925 384.825 183.7 385.135C183.479 385.442 183.185 385.686 182.818 385.868C182.455 386.047 182.031 386.136 181.548 386.136ZM188.439 379.455V380.307H185.047V379.455H188.439ZM186.036 377.886H187.041V384.125C187.041 384.409 187.082 384.622 187.165 384.764C187.25 384.903 187.358 384.997 187.489 385.045C187.622 385.091 187.763 385.114 187.911 385.114C188.021 385.114 188.112 385.108 188.183 385.097C188.254 385.082 188.311 385.071 188.354 385.062L188.558 385.966C188.49 385.991 188.395 386.017 188.273 386.043C188.151 386.071 187.996 386.085 187.808 386.085C187.524 386.085 187.246 386.024 186.973 385.902C186.703 385.78 186.479 385.594 186.3 385.344C186.124 385.094 186.036 384.778 186.036 384.398V377.886ZM193.31 386V385.233L196.19 382.08C196.528 381.71 196.807 381.389 197.026 381.116C197.244 380.841 197.406 380.582 197.511 380.341C197.619 380.097 197.673 379.841 197.673 379.574C197.673 379.267 197.599 379.001 197.452 378.777C197.307 378.553 197.108 378.379 196.855 378.257C196.602 378.135 196.318 378.074 196.003 378.074C195.668 378.074 195.375 378.143 195.125 378.283C194.878 378.419 194.686 378.611 194.55 378.858C194.416 379.105 194.349 379.395 194.349 379.727H193.344C193.344 379.216 193.462 378.767 193.697 378.381C193.933 377.994 194.254 377.693 194.661 377.477C195.07 377.261 195.528 377.153 196.037 377.153C196.548 377.153 197.001 377.261 197.396 377.477C197.791 377.693 198.101 377.984 198.325 378.351C198.55 378.717 198.662 379.125 198.662 379.574C198.662 379.895 198.604 380.209 198.487 380.516C198.374 380.82 198.175 381.159 197.891 381.534C197.609 381.906 197.219 382.361 196.719 382.898L194.759 384.994V385.062H198.815V386H193.31Z" fill="black"/>
<circle cx="132" cy="382.5" r="4.5" fill="#6200EE"/>
<path d="M50.5 305C50.5 287.009 54.0436 269.194 60.9285 252.572C67.8134 235.951 77.9047 220.848 90.6264 208.126C103.348 195.405 118.451 185.313 135.072 178.429C151.694 171.544 169.509 168 187.5 168C205.491 168 223.306 171.544 239.928 178.429C256.549 185.313 271.652 195.405 284.374 208.126C297.095 220.848 307.187 235.951 314.072 252.572C320.956 269.194 324.5 287.009 324.5 305L269.874 305C269.874 294.183 267.743 283.471 263.603 273.477C259.464 263.483 253.396 254.402 245.747 246.753C238.098 239.104 229.017 233.036 219.023 228.897C209.029 224.757 198.317 222.626 187.5 222.626C176.683 222.626 165.971 224.757 155.977 228.897C145.983 233.036 136.902 239.104 129.253 246.753C121.604 254.402 115.536 263.483 111.397 273.477C107.257 283.471 105.126 294.183 105.126 305L50.5 305Z" fill="#9654F4"/>
<path d="M50.5 305C50.5 287.009 54.0436 269.194 60.9285 252.572C67.8134 235.951 77.9047 220.848 90.6264 208.126C103.348 195.405 118.451 185.313 135.072 178.429C151.694 171.544 169.509 168 187.5 168L187.5 222.626C176.683 222.626 165.971 224.757 155.977 228.897C145.983 233.036 136.902 239.104 129.253 246.753C121.604 254.402 115.536 263.483 111.397 273.477C107.257 283.471 105.126 294.183 105.126 305L50.5 305Z" fill="#6200EE"/>
<defs>
<filter id="filter0_d_73_3274" x="0.5" y="0" width="375" height="439" filterUnits="userSpaceOnUse" color-interpolation-filters="sRGB">
<feFlood flood-opacity="0" result="BackgroundImageFix"/>
<feColorMatrix in="SourceAlpha" type="matrix" values="0 0 0 0 0 0 0 0 0 0 0 0 0 0 0 0 0 0 127 0" result="hardAlpha"/>
<feOffset dy="2"/>
<feGaussianBlur stdDeviation="5"/>
<feComposite in2="hardAlpha" operator="out"/>
<feColorMatrix type="matrix" values="0 0 0 0 0 0 0 0 0 0 0 0 0 0 0 0 0 0 0.1 0"/>
<feBlend mode="normal" in2="BackgroundImageFix" result="effect1_dropShadow_73_3274"/>
<feBlend mode="normal" in="SourceGraphic" in2="effect1_dropShadow_73_3274" result="shape"/>
</filter>
</defs>
</svg>
