<svg width="25" height="24" viewBox="0 0 25 24" fill="none" xmlns="http://www.w3.org/2000/svg">
<path d="M22.5 12V20C22.5 20.5304 22.2893 21.0391 21.9142 21.4142C21.5391 21.7893 21.0304 22 20.5 22H4.5C3.96957 22 3.46086 21.7893 3.08579 21.4142C2.71071 21.0391 2.5 20.5304 2.5 20V12C2.23478 12 1.98043 11.8946 1.79289 11.7071C1.60536 11.5196 1.5 11.2652 1.5 11V8C1.5 7.46957 1.71071 6.96086 2.08579 6.58579C2.46086 6.21071 2.96957 6 3.5 6H6.67C6.56 5.69 6.5 5.35 6.5 5C6.5 4.20435 6.81607 3.44129 7.37868 2.87868C7.94129 2.31607 8.70435 2 9.5 2C10.5 2 11.38 2.5 11.93 3.24V3.23L12.5 4L13.07 3.23V3.24C13.62 2.5 14.5 2 15.5 2C16.2956 2 17.0587 2.31607 17.6213 2.87868C18.1839 3.44129 18.5 4.20435 18.5 5C18.5 5.35 18.44 5.69 18.33 6H21.5C22.0304 6 22.5391 6.21071 22.9142 6.58579C23.2893 6.96086 23.5 7.46957 23.5 8V11C23.5 11.2652 23.3946 11.5196 23.2071 11.7071C23.0196 11.8946 22.7652 12 22.5 12ZM4.5 20H11.5V12H4.5V20ZM20.5 20V12H13.5V20H20.5ZM9.5 4C9.23478 4 8.98043 4.10536 8.79289 4.29289C8.60536 4.48043 8.5 4.73478 8.5 5C8.5 5.26522 8.60536 5.51957 8.79289 5.70711C8.98043 5.89464 9.23478 6 9.5 6C9.76522 6 10.0196 5.89464 10.2071 5.70711C10.3946 5.51957 10.5 5.26522 10.5 5C10.5 4.73478 10.3946 4.48043 10.2071 4.29289C10.0196 4.10536 9.76522 4 9.5 4ZM15.5 4C15.2348 4 14.9804 4.10536 14.7929 4.29289C14.6054 4.48043 14.5 4.73478 14.5 5C14.5 5.26522 14.6054 5.51957 14.7929 5.70711C14.9804 5.89464 15.2348 6 15.5 6C15.7652 6 16.0196 5.89464 16.2071 5.70711C16.3946 5.51957 16.5 5.26522 16.5 5C16.5 4.73478 16.3946 4.48043 16.2071 4.29289C16.0196 4.10536 15.7652 4 15.5 4ZM3.5 8V10H11.5V8H3.5ZM13.5 8V10H21.5V8H13.5Z" fill="#727171"/>
</svg>
