<svg width="52" height="52" viewBox="0 0 52 52" fill="none" xmlns="http://www.w3.org/2000/svg">
<g filter="url(#filter0_d_8_14580)">
<path d="M24.3333 31.5H27.6667C27.6667 32.4166 26.9167 33.1666 26 33.1666C25.0833 33.1666 24.3333 32.4166 24.3333 31.5ZM33.5 29.8333V30.6666H18.5V29.8333L20.1667 28.1666V23.1666C20.1667 20.5833 21.8333 18.3333 24.3333 17.5833V17.3333C24.3333 16.4166 25.0833 15.6666 26 15.6666C26.9167 15.6666 27.6667 16.4166 27.6667 17.3333V17.5833C30.1667 18.3333 31.8333 20.5833 31.8333 23.1666V28.1666L33.5 29.8333ZM30.1667 23.1666C30.1667 20.8333 28.3333 19 26 19C23.6667 19 21.8333 20.8333 21.8333 23.1666V29H30.1667V23.1666Z" fill="#8133F1"/>
<circle cx="33" cy="17" r="3" fill="#E00B2B"/>
</g>
<defs>
<filter id="filter0_d_8_14580" x="0" y="0" width="52" height="52" filterUnits="userSpaceOnUse" color-interpolation-filters="sRGB">
<feFlood flood-opacity="0" result="BackgroundImageFix"/>
<feColorMatrix in="SourceAlpha" type="matrix" values="0 0 0 0 0 0 0 0 0 0 0 0 0 0 0 0 0 0 127 0" result="hardAlpha"/>
<feOffset dy="2"/>
<feGaussianBlur stdDeviation="5"/>
<feComposite in2="hardAlpha" operator="out"/>
<feColorMatrix type="matrix" values="0 0 0 0 0 0 0 0 0 0 0 0 0 0 0 0 0 0 0.1 0"/>
<feBlend mode="normal" in2="BackgroundImageFix" result="effect1_dropShadow_8_14580"/>
<feBlend mode="normal" in="SourceGraphic" in2="effect1_dropShadow_8_14580" result="shape"/>
</filter>
</defs>
</svg>
