<svg width="138" height="18" viewBox="0 0 138 18" fill="none" xmlns="http://www.w3.org/2000/svg">
<path d="M59.5165 11.7542H68.5789L63.787 4.04474L54.9922 17.9838H50.9895L61.687 1.24002C62.1521 0.563504 62.9272 0.154785 63.787 0.154785C64.6185 0.154785 65.3937 0.549418 65.8447 1.21184L76.5844 17.9838H72.5817L70.6931 14.869H61.5178L59.5165 11.7542ZM101.094 14.869V0.323914H97.6974V16.2925C97.6974 16.7294 97.8665 17.1522 98.1907 17.4764C98.5148 17.8006 98.9517 17.9838 99.4309 17.9838H114.92L116.922 14.869H101.094ZM44.9009 12.2616C48.199 12.2616 50.8768 9.59782 50.8768 6.2998C50.8768 3.00179 48.199 0.323914 44.9009 0.323914H30.0415V17.9838H33.4368V3.43871H44.6754C46.254 3.43871 47.5224 4.72126 47.5224 6.2998C47.5224 7.87834 46.254 9.1609 44.6754 9.1609L35.0999 9.1468L45.2391 17.9838H50.1721L43.3506 12.2616H44.9009ZM9.14003 17.9838C4.26483 17.9838 0.308594 14.0375 0.308594 9.1609C0.308594 4.28435 4.26483 0.323914 9.14003 0.323914H19.4047C24.2812 0.323914 28.2346 4.28435 28.2346 9.1609C28.2346 14.0375 24.2812 17.9838 19.4047 17.9838H9.14003ZM19.1763 14.869C22.3349 14.869 24.893 12.318 24.893 9.1609C24.893 6.00383 22.3349 3.43871 19.1763 3.43871H9.36689C6.20982 3.43871 3.65027 6.00383 3.65027 9.1609C3.65027 12.318 6.20982 14.869 9.36689 14.869H19.1763ZM83.6737 17.9838C78.7971 17.9838 74.8368 14.0375 74.8368 9.1609C74.8368 4.28435 78.7971 0.323914 83.6737 0.323914H95.8651L93.8778 3.43871H83.8992C80.7421 3.43871 78.1771 6.00383 78.1771 9.1609C78.1771 12.318 80.7421 14.869 83.8992 14.869H96.1469L94.1456 17.9838H83.6737ZM125.209 14.869C122.602 14.869 120.389 13.1213 119.712 10.7112H134.229L136.231 7.59645H119.712C120.389 5.20046 122.602 3.43871 125.209 3.43871H135.174L137.189 0.323914H124.983C120.107 0.323914 116.147 4.28435 116.147 9.1609C116.147 14.0375 120.107 17.9838 124.983 17.9838H135.455L137.457 14.869H125.209Z" fill="#EA1B22"/>
</svg>
