<svg width="139" height="22" viewBox="0 0 139 22" fill="none" xmlns="http://www.w3.org/2000/svg">
<path d="M131.14 9.79236V12.6518H133.15V15.4889C133.155 15.7062 133.146 15.9381 133.116 16.1377L133.099 16.2346C133.096 16.2562 133.092 16.2784 133.087 16.3012L133.071 16.371C133.067 16.3828 133.064 16.3948 133.061 16.4069L133.037 16.4805C132.857 17.0029 132.312 17.6649 131.09 17.6649C129.788 17.6649 129.265 16.9049 129.122 16.371L129.105 16.3012L129.093 16.2346C129.057 16.0158 129.041 15.7424 129.041 15.4889V6.52805C129.041 6.24631 129.058 5.94089 129.109 5.69208L129.143 5.54088C129.146 5.53041 129.149 5.51976 129.152 5.50896L129.171 5.44237C129.174 5.43099 129.178 5.41948 129.182 5.40784L129.207 5.33666C129.392 4.84156 129.884 4.18217 131.079 4.18217C132.002 4.18217 132.499 4.55819 132.764 4.94683L132.812 5.01976C132.826 5.04405 132.84 5.06832 132.854 5.09245L132.891 5.16437L132.923 5.23499L132.952 5.30378L132.976 5.3702L132.997 5.43373L133.014 5.49382L133.028 5.54995L133.039 5.60158C133.044 5.62726 133.049 5.65452 133.053 5.68286L133.065 5.77064C133.067 5.78564 133.068 5.80079 133.07 5.81602L133.082 5.95365L133.09 6.08565L133.097 6.26563L133.099 6.35786V7.44597H138.037L138.038 6.76862L138.041 6.52638L138.04 6.3386L138.035 6.11995L138.031 6.00224L138.023 5.81877L138.01 5.63082L137.999 5.50516C137.665 2.19501 135.177 0.921454 132.15 0.699845L131.947 0.686618L131.743 0.676444C131.641 0.672109 131.538 0.668894 131.434 0.666763L131.227 0.663936C131.192 0.663585 131.158 0.663585 131.123 0.663585L130.915 0.665005C130.88 0.66548 130.845 0.666075 130.811 0.666792L130.605 0.672558L130.4 0.681302L130.197 0.693085L129.995 0.707972C129.928 0.713459 129.862 0.719473 129.796 0.726026L129.598 0.74731C129.565 0.75113 129.532 0.755087 129.499 0.759183L129.305 0.78543C128.852 0.850602 128.417 0.943444 128.005 1.06757L127.829 1.1227C125.916 1.75037 124.526 3.08486 124.24 5.50516L124.211 5.77382L124.191 5.98183L124.172 6.19992L124.156 6.41689C124.147 6.55867 124.142 6.69226 124.142 6.80272L124.142 15.1515L124.143 15.2552L124.148 15.4127L124.152 15.5231L124.159 15.641L124.168 15.7692L124.179 15.9105L124.201 16.1529L124.22 16.3388C124.497 19.4148 126.828 20.7832 129.681 21.106L129.881 21.1269C130.215 21.1588 130.556 21.1768 130.901 21.1819L131.109 21.1834L131.318 21.1819C131.665 21.1768 132.007 21.1588 132.343 21.1269L132.544 21.106C135.406 20.7832 137.722 19.4148 138.004 16.3388L138.027 16.0676L138.044 15.8381L138.059 15.5809L138.068 15.3594L138.076 15.0458V9.79236H131.14ZM97.0938 1.19102H92.1352V15.6956C92.143 15.9484 92.1352 16.2323 92.0916 16.4406L92.077 16.5037L92.0589 16.5709C92.0523 16.5939 92.045 16.6175 92.037 16.6415L92.0111 16.7151C91.8241 17.2138 91.3475 17.8645 90.2074 17.8645C89.1384 17.8645 88.6502 17.2772 88.4458 16.7909L88.4158 16.7151C88.4112 16.7026 88.4068 16.6903 88.4025 16.678L88.3791 16.6058L88.3598 16.5368C88.3569 16.5256 88.3542 16.5145 88.3516 16.5037L88.3379 16.4406C88.2883 16.2323 88.282 15.9484 88.2883 15.6956V1.19102H83.3312V15.2455L83.3303 15.3584L83.332 15.556L83.3389 15.8467L83.3525 16.2L83.362 16.3779L83.3684 16.4723L83.3747 16.5418C83.6176 19.142 85.1431 20.4955 87.2974 21.0618L87.481 21.1078C87.8818 21.2035 88.3031 21.2732 88.7409 21.3197L88.9441 21.3396L89.1496 21.3562L89.3572 21.3697C89.4615 21.3756 89.5666 21.3804 89.6724 21.3841L89.885 21.3899L90.0995 21.3928C90.1354 21.3932 90.1714 21.3932 90.2074 21.3932L90.4232 21.3917C90.459 21.3912 90.4948 21.3906 90.5304 21.3899L90.7434 21.3841C90.8495 21.3804 90.9548 21.3756 91.0593 21.3697L91.2672 21.3562L91.473 21.3396L91.6765 21.3197C94.5767 21.0117 96.7521 19.6914 97.0518 16.5418L97.0557 16.5105L97.0639 16.4279L97.0758 16.2634L97.0866 16.0642L97.0924 15.9203L97.0985 15.6995L97.1002 15.556L97.0996 15.4212L97.0965 15.2997C97.0957 15.2808 97.0948 15.2627 97.0938 15.2455V1.19102ZM51.533 1.19102L49.0595 16.5171L46.5875 1.19102H38.5888L38.1646 20.7975H43.0649L43.1975 2.64719L46.5691 20.7975H51.5408L54.9154 2.64719L55.0486 20.7975H59.9611L59.5226 1.19102H51.533ZM21.9184 1.19102L18.2865 20.7975H23.5828L26.3196 2.64719L28.9908 20.7975H34.2503L30.6335 1.19102H21.9184ZM114.423 16.9765L109.806 1.19102H102.53V20.5931H107.343L107.064 4.30251L112.023 20.5931H119.001V1.19102H114.156L114.423 16.9765ZM69.9028 6.29367C69.8157 5.90646 69.8409 5.49509 69.886 5.28009C69.8987 5.22303 69.9138 5.1655 69.9316 5.10806L69.9603 5.02203C70.156 4.47849 70.6136 3.96792 71.6629 3.96792C72.7953 3.96792 73.4592 4.67385 73.4592 5.73325V6.93213H78.293V5.56558C78.293 2.48169 76.2746 1.29538 74.118 0.879595L73.9404 0.847133L73.7625 0.818002L73.5844 0.792062L73.4064 0.769176L73.2287 0.749203L73.0516 0.732006C72.9926 0.72672 72.9338 0.721874 72.8752 0.717443L72.6998 0.705378L72.5256 0.69567L72.3529 0.688181L72.1819 0.682771L72.0128 0.679302L71.7633 0.677432L71.6533 0.677819L71.4347 0.68094C71.3984 0.681723 71.3622 0.682638 71.326 0.683686L71.1102 0.691581C71.0386 0.694752 70.9673 0.698464 70.8963 0.702726L70.6846 0.71717C67.7357 0.942746 65.4345 2.15405 64.9742 4.99459C64.838 5.85963 64.8042 6.6275 65.021 7.60734C65.3622 9.21749 66.7035 10.3633 68.2432 11.3243L68.4816 11.4707C68.5215 11.4949 68.5616 11.519 68.6017 11.5429L68.8435 11.6854L69.0869 11.8255L69.331 11.9636L69.6975 12.1671L70.6604 12.6948L70.8944 12.8245L71.1243 12.9538L71.3496 13.0829L71.5696 13.212C72.619 13.8365 73.4598 14.4699 73.7623 15.2271C73.9297 15.6769 73.8931 16.244 73.8122 16.6058L73.7983 16.6641C73.7783 16.7511 73.7532 16.8381 73.7215 16.9237L73.6877 17.0087C73.465 17.529 72.9782 17.9725 71.9086 17.9725C70.6886 17.9725 69.9542 17.2711 69.9542 16.214L69.9527 14.3323H64.7498V15.828C64.7498 19.3386 66.9771 20.8635 69.7666 21.3163L69.9742 21.3479C70.1133 21.3676 70.2536 21.3849 70.3951 21.3996L70.6079 21.4199C70.8572 21.4415 71.1094 21.4558 71.3636 21.4633L71.5818 21.4681C71.6183 21.4686 71.6547 21.469 71.6912 21.4693L71.8008 21.4697C71.8738 21.4697 71.9465 21.4692 72.0189 21.4681L72.2353 21.4634C72.2712 21.4623 72.307 21.4611 72.3428 21.4598L72.5564 21.4503C72.6273 21.4465 72.6979 21.4423 72.7681 21.4374L72.9778 21.4213C73.1169 21.4094 73.2546 21.3952 73.3907 21.3788L73.5937 21.3524L73.7943 21.3225C73.8607 21.3119 73.9267 21.3008 73.9923 21.289L74.1877 21.2519C76.549 20.7788 78.3059 19.496 78.6588 17.0294C78.7073 16.6615 78.7372 16.3218 78.7533 16.0112L78.7621 15.8085C78.7632 15.7755 78.7642 15.7428 78.765 15.7104L78.7682 15.5208V15.34L78.7652 15.1681L78.7596 15.0051L78.7517 14.8511C78.7502 14.8262 78.7486 14.8017 78.747 14.7775L78.7363 14.6372L78.7241 14.5061L78.7107 14.3842L78.6891 14.2188L78.6668 14.0746L78.6378 13.9157L78.6243 13.8507C78.2838 12.1433 76.789 10.9374 75.1284 9.94469L74.8902 9.8043L74.6503 9.66663L74.4095 9.53148L74.0478 9.33309L73.5681 9.07568L72.75 8.64056L72.4134 8.45843C72.3766 8.4383 72.34 8.4182 72.3036 8.39813L72.0882 8.278L71.8789 8.15835C70.8486 7.56096 70.0698 6.9744 69.9028 6.29367ZM6.13914 6.24558C6.05016 5.87502 6.06407 5.48522 6.10972 5.25871L6.12862 5.1739L6.15006 5.08998C6.31336 4.50124 6.75983 3.89441 7.91379 3.89441C9.06055 3.89441 9.73577 4.60713 9.73577 5.6751V6.88857H14.6262V5.5112C14.6262 2.56832 12.7954 1.3324 10.7497 0.848937L10.5713 0.80877C10.4222 0.77684 10.2723 0.748715 10.1221 0.724033L9.94176 0.696044L9.76141 0.67122L9.58128 0.649423L9.4016 0.630512C9.3418 0.624674 9.28213 0.619294 9.2226 0.614348L9.04453 0.600792L8.86762 0.589704L8.6921 0.580945L8.51821 0.574375L8.34619 0.569855L8.09218 0.566406H8.0087C7.93538 0.566406 7.86235 0.566919 7.78961 0.567952L7.57231 0.572621C7.42806 0.576787 7.28507 0.583068 7.14345 0.591532L6.93208 0.605873C6.89703 0.608538 6.86207 0.611343 6.8272 0.614286L6.61912 0.633631C6.55014 0.640642 6.48154 0.64822 6.41334 0.656373L6.20997 0.682563C6.04152 0.705839 5.87567 0.732758 5.71267 0.76345L5.51845 0.802099L5.32705 0.844421L5.13858 0.890464C5.07626 0.906438 5.01444 0.92304 4.95313 0.940279L4.77079 0.993915C2.87287 1.57733 1.50512 2.80092 1.15986 4.9241C1.01736 5.80299 0.99294 6.57614 1.19888 7.56681C1.56144 9.27878 3.04016 10.471 4.69449 11.4728L4.93774 11.6181C4.97845 11.6421 5.01924 11.6659 5.06009 11.6897L5.30587 11.8314L5.67596 12.0399L6.16863 12.3117L6.89533 12.7099L7.24836 12.9064L7.59154 13.1022L7.81378 13.2328C7.85034 13.2545 7.88665 13.2763 7.92269 13.2981L8.13567 13.4291C9.04391 13.998 9.75524 14.5839 10.0298 15.2709C10.2097 15.7176 10.1676 16.2845 10.0826 16.6581L10.0681 16.7185C10.0471 16.8045 10.0213 16.8905 9.98947 16.9752L9.95552 17.0594C9.72707 17.5889 9.23676 18.043 8.15321 18.043C6.92841 18.043 6.19579 17.3295 6.19579 16.2578L6.18899 14.3711H0.927734V15.8703C0.927734 20.0786 4.10062 21.4618 7.61447 21.5657L7.83451 21.5706L8.05528 21.5722L8.27358 21.5706C8.38231 21.5691 8.4904 21.5663 8.59779 21.5624L8.81164 21.553C8.91808 21.5474 9.0238 21.5407 9.12873 21.5327L9.33753 21.5151L9.54414 21.4941C9.61264 21.4865 9.68076 21.4784 9.74848 21.4697L9.95045 21.4419C10.0174 21.4321 10.0839 21.4216 10.1499 21.4106L10.3469 21.3757C12.7921 20.9179 14.6145 19.6208 14.9814 17.0838C15.032 16.7214 15.0636 16.3861 15.0812 16.0788L15.091 15.8781L15.0969 15.6858C15.0983 15.6231 15.0991 15.5618 15.0994 15.5019L15.0988 15.3265L15.0953 15.1596L15.0894 15.0014L15.0813 14.8518L15.0714 14.7109L15.06 14.5788L15.0409 14.3973L15.0203 14.2359L14.9925 14.0523L14.9608 13.8744C14.6215 12.1872 13.1713 10.9869 11.5398 9.99971L11.2998 9.85673C11.2596 9.83314 11.2194 9.80967 11.1791 9.78632L10.9364 9.64754L10.6929 9.51133L10.4489 9.37749L10.2053 9.24584L9.13053 8.67531L8.78682 8.4911L8.56361 8.3694L8.34591 8.24835L8.13435 8.12778C8.09964 8.10771 8.06522 8.08765 8.03108 8.0676L7.82997 7.94737C6.94193 7.40644 6.28984 6.86524 6.13914 6.24558Z" fill="#1428A0"/>
</svg>
