<svg width="31" height="5" viewBox="0 0 31 5" fill="none" xmlns="http://www.w3.org/2000/svg">
<path d="M5.1308 4.82632V3.61523H3.81193C3.45326 3.61523 3.12103 3.80351 2.93734 4.1109L2.50977 4.82632H5.1308Z" fill="#63D2F9"/>
<path d="M0.933594 0.173828V1.38492H4.40739L5.1312 0.173828H0.933594Z" fill="#4E5EE4"/>
<path d="M2.5962 2.06682L0.9375 4.82665H2.35067L4.33418 1.5249H3.55382C3.1613 1.5249 2.79766 1.73069 2.5962 2.06682Z" fill="#63B0F9"/>
<path d="M8.1378 3.66422C7.42719 3.66422 6.9043 3.14769 6.9043 2.45455C6.9043 1.76807 7.43055 1.24488 8.14115 1.24488C8.85175 1.24488 9.378 1.77474 9.378 2.45455C9.378 3.14103 8.8484 3.66422 8.1378 3.66422ZM8.14115 3.241C8.5903 3.241 8.91209 2.90776 8.91209 2.45455C8.91209 2.008 8.5903 1.6681 8.14115 1.6681C7.68864 1.6681 7.36686 2.008 7.36686 2.45455C7.36686 2.90776 7.68864 3.241 8.14115 3.241ZM9.85385 4.38735V1.86804H10.2829V2.09132H10.3064C10.3533 2.018 10.5142 1.82472 10.836 1.82472C11.3287 1.82472 11.6672 2.19129 11.6672 2.7378C11.6672 3.28432 11.332 3.66422 10.8494 3.66422C10.5376 3.66422 10.37 3.49093 10.3131 3.39429H10.2896V4.38735H9.85385ZM10.7522 3.27099C11.0337 3.27099 11.2248 3.05438 11.2248 2.74447C11.2248 2.42456 11.0337 2.21795 10.7488 2.21795C10.4605 2.21795 10.2795 2.44788 10.2795 2.74447C10.2795 3.07105 10.4807 3.27099 10.7522 3.27099ZM12.914 3.66422C12.3945 3.66422 12.0258 3.27766 12.0258 2.75447C12.0258 2.20129 12.3978 1.82472 12.914 1.82472C13.4805 1.82472 13.7889 2.24127 13.7889 2.73447V2.8711H12.4481C12.4615 3.13769 12.6459 3.31764 12.9274 3.31764C13.1419 3.31764 13.3062 3.21767 13.3665 3.07438H13.7721C13.685 3.43095 13.3699 3.66422 12.914 3.66422ZM12.4548 2.56452H13.3732C13.3531 2.32792 13.1688 2.17129 12.914 2.17129C12.6693 2.17129 12.4816 2.34458 12.4548 2.56452ZM14.258 3.62089V1.86804H14.6736V2.08132H14.6971C14.7675 1.95135 14.9418 1.82472 15.1932 1.82472C15.5887 1.82472 15.83 2.10131 15.83 2.47454V3.62089H15.3943V2.58785C15.3943 2.37457 15.2569 2.23128 15.0558 2.23128C14.8446 2.23128 14.6938 2.3979 14.6938 2.61784V3.62089H14.258ZM16.2623 3.62089V3.22434L17.4824 1.69476V1.67143H16.3059V1.2882H18.0388V1.68143L16.8187 3.21101V3.23767H18.0455V3.62089H16.2623ZM19.2253 3.66422C18.7057 3.66422 18.337 3.27766 18.337 2.75447C18.337 2.20129 18.7091 1.82472 19.2253 1.82472C19.7918 1.82472 20.1001 2.24127 20.1001 2.73447V2.8711H18.7594C18.7728 3.13769 18.9571 3.31764 19.2387 3.31764C19.4532 3.31764 19.6175 3.21767 19.6778 3.07438H20.0834C19.9962 3.43095 19.6811 3.66422 19.2253 3.66422ZM18.7661 2.56452H19.6845C19.6644 2.32792 19.48 2.17129 19.2253 2.17129C18.9806 2.17129 18.7929 2.34458 18.7661 2.56452ZM20.5693 4.38735V1.86804H20.9983V2.09132H21.0218C21.0687 2.018 21.2296 1.82472 21.5514 1.82472C22.0441 1.82472 22.3826 2.19129 22.3826 2.7378C22.3826 3.28432 22.0475 3.66422 21.5648 3.66422C21.2531 3.66422 21.0855 3.49093 21.0285 3.39429H21.005V4.38735H20.5693ZM21.4676 3.27099C21.7491 3.27099 21.9402 3.05438 21.9402 2.74447C21.9402 2.42456 21.7491 2.21795 21.4642 2.21795C21.176 2.21795 20.995 2.44788 20.995 2.74447C20.995 3.07105 21.1961 3.27099 21.4676 3.27099ZM22.8518 4.38735V1.86804H23.2808V2.09132H23.3043C23.3512 2.018 23.5121 1.82472 23.8339 1.82472C24.3266 1.82472 24.6652 2.19129 24.6652 2.7378C24.6652 3.28432 24.33 3.66422 23.8473 3.66422C23.5356 3.66422 23.368 3.49093 23.311 3.39429H23.2875V4.38735H22.8518ZM23.7501 3.27099C24.0317 3.27099 24.2227 3.05438 24.2227 2.74447C24.2227 2.42456 24.0317 2.21795 23.7468 2.21795C23.4585 2.21795 23.2775 2.44788 23.2775 2.74447C23.2775 3.07105 23.4786 3.27099 23.7501 3.27099ZM25.912 3.66422C25.3924 3.66422 25.0237 3.27766 25.0237 2.75447C25.0237 2.20129 25.3958 1.82472 25.912 1.82472C26.4784 1.82472 26.7868 2.24127 26.7868 2.73447V2.8711H25.446C25.4594 3.13769 25.6438 3.31764 25.9254 3.31764C26.1399 3.31764 26.3041 3.21767 26.3645 3.07438H26.77C26.6829 3.43095 26.3678 3.66422 25.912 3.66422ZM25.4527 2.56452H26.3712C26.3511 2.32792 26.1667 2.17129 25.912 2.17129C25.6673 2.17129 25.4796 2.34458 25.4527 2.56452ZM27.685 3.62089C27.3766 3.62089 27.2023 3.43761 27.2023 3.1277V1.12158H27.6381V3.08771C27.6381 3.18768 27.6883 3.241 27.7788 3.241H27.8492V3.62089H27.685ZM28.486 1.63477C28.3284 1.63477 28.2178 1.53813 28.2178 1.38151C28.2178 1.23155 28.3284 1.13158 28.486 1.13158C28.6435 1.13158 28.7541 1.23155 28.7541 1.38151C28.7541 1.53813 28.6435 1.63477 28.486 1.63477ZM28.2681 3.62089V1.86804H28.7038V3.62089H28.2681ZM29.2333 3.62089V1.86804H29.649V2.08132H29.6724C29.7428 1.95135 29.9171 1.82472 30.1685 1.82472C30.564 1.82472 30.8054 2.10131 30.8054 2.47454V3.62089H30.3696V2.58785C30.3696 2.37457 30.2322 2.23128 30.0311 2.23128C29.8199 2.23128 29.6691 2.3979 29.6691 2.61784V3.62089H29.2333Z" fill="#282846"/>
</svg>
