<svg width="138" height="29" viewBox="0 0 138 29" fill="none" xmlns="http://www.w3.org/2000/svg">
<path d="M25.2896 15.07L25.3078 15.0714L27.2035 15.2696C27.3365 15.2839 27.4587 15.3489 27.5451 15.4504L27.5592 15.4677L27.5412 15.4766C27.6298 15.5885 27.6688 15.7316 27.6492 15.8729C27.235 19.1656 25.6744 22.2073 23.2411 24.464C20.7164 26.8057 17.4001 28.1067 13.9565 28.1067C12.284 28.1094 10.6257 27.8015 9.06603 27.1988L8.98106 27.1657C8.8534 27.1185 8.75083 27.0214 8.69653 26.8973L8.68836 26.8775C8.63519 26.754 8.63223 26.6149 8.6795 26.4897L9.42775 24.6641C9.52914 24.406 9.81648 24.2761 10.076 24.3675L10.0932 24.374C13.9179 25.8508 18.2497 25.019 21.2554 22.2307C23.1686 20.4727 24.4023 18.0978 24.7405 15.5216C24.7763 15.2556 25.0071 15.0621 25.2715 15.0692L25.2896 15.07ZM70.0602 7.32229C71.6765 7.32229 72.9406 7.81545 73.7479 8.76257L73.7749 8.79467V7.99318C73.7858 7.76947 73.959 7.58867 74.1801 7.56683L74.1982 7.56541H76.3549C76.5769 7.58075 76.7534 7.75541 76.7726 7.97526L76.7738 7.99318V19.9659C76.8435 21.6541 76.3246 23.3142 75.3059 24.6622C74.1441 26.076 72.3791 26.7919 70.0602 26.7919C66.8363 26.7919 64.2922 24.7522 63.8735 21.8389C63.8527 21.6286 63.9808 21.4331 64.1799 21.3671L64.1977 21.3616L66.3049 20.8664C66.3159 20.8639 66.327 20.8618 66.3381 20.8602C66.5694 20.8263 66.7843 20.9863 66.8182 21.2176C67.0107 22.8518 68.4152 24.0709 70.0602 24.0318C72.552 24.0318 73.7244 22.7652 73.7476 20.1185L73.7479 20.0379V18.9888C72.8138 20.0364 71.463 20.6153 70.0602 20.5692C66.476 20.5692 63.878 17.7866 63.878 13.9592C63.8452 12.2372 64.4515 10.5641 65.58 9.26291C66.7262 8.00369 68.3576 7.29704 70.0602 7.32229ZM5.14977 21.8839L5.17649 21.8837L5.20331 21.8839C6.06364 21.8938 6.75634 22.5895 6.76569 23.4466L6.76576 23.4735C6.76576 23.4824 6.76566 23.4913 6.7655 23.5002C6.75052 24.3779 6.02696 25.0774 5.14925 25.0625C4.27154 25.0475 3.57215 24.3239 3.58698 23.4462C3.60166 22.5864 4.29629 21.8977 5.14977 21.8839ZM107.395 7.1557L107.505 7.15652C111.358 7.20973 113.745 9.89167 113.745 14.1843C113.745 14.4115 113.733 14.6385 113.709 14.8643C113.69 15.072 113.52 15.2321 113.313 15.242L113.295 15.2425H104.136C104.193 17.166 105.783 18.688 107.708 18.66C109.199 18.7538 110.558 17.8053 110.985 16.3727C111.063 16.1671 111.285 16.0564 111.495 16.1154L111.512 16.1206L113.34 16.7644C113.441 16.7969 113.523 16.8685 113.57 16.9627L113.579 16.9806C113.629 17.0797 113.637 17.195 113.602 17.3002C112.752 19.8143 110.36 21.4777 107.708 21.3977C105.968 21.415 104.295 20.7356 103.061 19.5111C101.713 18.0935 100.994 16.1928 101.066 14.2384C101.066 9.84763 104.221 7.20884 107.303 7.1565L107.395 7.1557ZM55.5705 7.15571H55.5749C59.4969 7.15571 61.9328 9.84831 61.9328 14.1843C61.9325 14.4115 61.9205 14.6385 61.8968 14.8643C61.8786 15.0731 61.7076 15.2344 61.4999 15.2422L61.4825 15.2425H52.3241C52.3805 17.1713 53.9788 18.6955 55.9082 18.6601C57.4006 18.7555 58.7607 17.8064 59.1862 16.3727C59.2624 16.1654 59.4859 16.054 59.696 16.1152L59.713 16.1206L61.5411 16.7644C61.6479 16.7989 61.7348 16.8776 61.7797 16.9806C61.8225 17.0828 61.8225 17.198 61.7797 17.3002C60.9313 19.8127 58.5409 21.4757 55.8902 21.3977C54.1483 21.4174 52.4712 20.7379 51.2344 19.5111C49.8889 18.0924 49.1701 16.1925 49.2397 14.2384C49.2397 9.80328 52.4591 7.15571 55.5705 7.15571ZM41.7022 7.15115C43.4627 7.15115 44.8856 7.57893 45.9392 8.42088C46.6516 8.98867 47.1797 9.75486 47.4566 10.6228L47.4575 10.6262C47.4936 10.7759 47.4057 10.9266 47.2598 10.9699L47.245 10.9739L45.0612 11.6944C44.9643 11.7328 44.8564 11.7328 44.7595 11.6944C44.6768 11.6558 44.6146 11.5836 44.5884 11.4963L44.5768 11.4533C44.3778 10.7423 43.7276 9.60063 41.7022 9.60063C40.2613 9.60063 39.3968 10.4291 39.3968 11.2306L39.3971 11.2624C39.408 11.7835 39.6913 12.4377 40.934 12.6864L40.9727 12.694L43.3772 13.1442C46.0339 13.6792 47.5653 15.1232 47.5957 17.1355L47.5962 17.1967L47.5872 17.1608L47.5866 17.2218C47.5479 19.239 45.5968 21.3616 42.0038 21.3616C37.7938 21.3616 36.1414 18.9797 35.8351 17.5749C35.8152 17.428 35.9048 17.2891 36.0451 17.246L36.0603 17.2417L38.3117 16.5393C38.3519 16.5327 38.393 16.5327 38.4332 16.5393C38.4905 16.5383 38.547 16.5504 38.5987 16.5747L38.6178 16.5843C38.7005 16.6239 38.7615 16.6982 38.7844 16.7869C39.0681 18.1378 40.2883 18.9438 42.0444 18.9438C43.6789 18.9438 44.4218 18.0882 44.4218 17.3138C44.4218 16.5478 43.7743 15.98 42.6581 15.7455L42.6207 15.7378L40.0947 15.247C37.7398 14.8013 36.2719 13.3378 36.2719 11.4332C36.2719 9.11432 38.7619 7.15115 41.7022 7.15115ZM132.513 3.40044H134.481C134.713 3.41437 134.895 3.60267 134.904 3.83331L134.904 3.85068V7.54742H137.272C137.502 7.56361 137.682 7.75107 137.691 7.97998L137.691 7.99766V9.96084L137.691 9.97793C137.684 10.198 137.509 10.3768 137.289 10.3881L137.272 10.3886H134.904V16.958C134.904 18.0477 135.336 18.498 136.448 18.498C136.673 18.4941 136.898 18.477 137.121 18.4468L137.204 18.4349C137.327 18.4141 137.452 18.4488 137.547 18.5295C137.632 18.6084 137.683 18.7168 137.69 18.832L137.691 18.8537V20.7043C137.693 20.8929 137.57 21.0599 137.389 21.1141C136.87 21.2592 136.335 21.3321 135.797 21.3308L135.723 21.3301C133.374 21.3301 131.908 19.8341 131.878 17.4144L131.878 17.3408V10.4156H129.829C129.606 10.4025 129.426 10.2272 129.407 10.0059L129.406 9.98786V8.01566C129.405 7.78299 129.582 7.58935 129.812 7.56678L129.829 7.56541L130.38 7.56534L130.439 7.5643C131.082 7.54583 132.069 7.28524 132.089 5.85003L132.09 5.80481V3.85068C132.089 3.61801 132.266 3.42438 132.496 3.40181L132.513 3.40044ZM94.2691 7.15371L94.3206 7.15571H94.316C96.6342 7.15571 98.9743 8.77083 99.0209 12.2983L99.0216 12.4058V20.7448C99.0111 20.9685 98.8372 21.1493 98.6164 21.1712L98.5984 21.1726H96.4414C96.218 21.1594 96.0393 20.9842 96.0194 20.7629L96.0181 20.7448V12.676L96.0177 12.6138C96.0046 11.5857 95.6552 9.9338 93.5375 9.9338C91.9725 9.9338 90.8577 11.1518 90.8356 12.9238L90.8353 12.9776V20.7448C90.8248 20.9685 90.6517 21.1493 90.4301 21.1712L90.4121 21.1726H88.2288C88.0047 21.1594 87.826 20.9842 87.8068 20.7629L87.8056 20.7448V12.676L87.8052 12.6138C87.792 11.5857 87.4426 9.9338 85.3242 9.9338C83.6972 9.9338 82.5955 11.143 82.5736 12.9497L82.5733 13.0047V20.7448C82.562 20.9685 82.3889 21.1493 82.1681 21.1712L82.1501 21.1726H79.9931C79.7712 21.1573 79.5948 20.9825 79.5757 20.7627L79.5745 20.7448V7.96615C79.585 7.74402 79.7559 7.56384 79.9752 7.53997L79.9931 7.53838H82.069C82.2923 7.55154 82.4717 7.7268 82.491 7.94811L82.4922 7.96615V8.73613C83.4259 7.71238 84.7535 7.13717 86.139 7.15571C87.7438 7.10868 89.2413 7.95712 90.0251 9.35744C90.9587 7.93106 92.5682 7.09659 94.2691 7.15371ZM126.565 8.74509C127.391 9.83367 127.817 11.1726 127.773 12.5372L127.771 12.5949V20.7448C127.76 20.9669 127.59 21.1471 127.37 21.171L127.352 21.1726H125.169C124.945 21.1594 124.766 20.9842 124.746 20.7629L124.745 20.7448V13.0317C124.745 11.0145 123.795 9.98786 121.994 9.98786C121.199 9.96214 120.438 10.3165 119.945 10.9424C119.469 11.6294 119.223 12.4493 119.242 13.2842L119.243 13.3334V20.7448C119.232 20.9685 119.059 21.1493 118.838 21.1712L118.82 21.1726H116.641C116.417 21.1594 116.238 20.9842 116.219 20.7629L116.217 20.7448V7.95712C116.228 7.73341 116.402 7.55267 116.623 7.53077L116.641 7.52934H118.771C118.992 7.54468 119.169 7.71942 119.188 7.9392L119.189 7.95712V8.85769C120.103 7.75084 121.474 7.12366 122.909 7.15571C124.306 7.09593 125.655 7.68203 126.565 8.74509ZM1.06529 15.6163H16.5681C16.853 15.6187 17.0831 15.8468 17.0903 16.1295L17.0905 16.1476V18.0883C17.0929 18.3731 16.8686 18.6071 16.5862 18.6191L16.5681 18.6195H1.06529C0.780352 18.6171 0.550282 18.3889 0.542969 18.1063V18.0882V16.1475V16.1294C0.55013 15.8529 0.770527 15.6286 1.04679 15.6167L1.06529 15.6163ZM70.4339 10.0149C68.3087 10.0149 66.9578 11.5278 66.9578 13.9592C66.9578 16.3907 68.2906 17.8991 70.4339 17.8991C72.4781 17.8991 73.856 16.3142 73.856 13.9592C73.856 11.5998 72.4781 10.0149 70.4339 10.0149ZM52.4199 12.6457L52.4141 12.694H58.8214C58.6655 10.9823 57.4591 9.91483 55.6524 9.89365L55.5975 9.89333C54.0055 9.86744 52.6498 11.0318 52.4263 12.5981L52.4199 12.6457ZM104.25 12.6457L104.245 12.694H110.652C110.496 10.9823 109.29 9.91483 107.483 9.89365L107.428 9.89333C105.836 9.86744 104.48 11.0318 104.257 12.5981L104.25 12.6457ZM18.5088 0.806844C18.643 0.855267 18.7518 0.955974 18.8104 1.08603C18.8642 1.21732 18.8642 1.36452 18.8104 1.49573L18.135 3.29687C18.0414 3.56393 17.7494 3.70487 17.4821 3.61204C13.9438 2.3773 10.0176 3.07885 7.12593 5.46261C5.32379 6.97105 4.04418 9.01029 3.46975 11.2891C3.41028 11.5192 3.20307 11.6802 2.96544 11.6809H2.84836L0.993235 11.2351C0.854917 11.2026 0.736139 11.1146 0.664547 10.9919H0.655511C0.580444 10.8693 0.559284 10.7211 0.597049 10.5822C1.33374 7.66511 2.98212 5.05924 5.30232 3.14373C8.99172 0.106375 14.0011 -0.780063 18.5088 0.806844ZM11.6421 8.58754H27.1449C27.4228 8.58981 27.6499 8.80715 27.6664 9.08237L27.6673 9.10081V11.0415C27.6696 11.3264 27.4456 11.5604 27.163 11.5724L27.1449 11.5728H11.6421C11.3591 11.568 11.1316 11.3407 11.1245 11.0599L11.1243 11.0415V9.1188C11.1218 8.83573 11.3432 8.6026 11.6238 8.58817L11.6421 8.58754ZM22.4041 2.66642L22.4308 2.66621L22.4576 2.66645C23.318 2.67631 24.0107 3.37197 24.02 4.22907L24.0201 4.2559C24.0201 4.26486 24.02 4.27382 24.0198 4.2827C24.0049 5.16041 23.2813 5.8598 22.4036 5.8449C21.5259 5.82999 20.8265 5.10635 20.8414 4.22872C20.856 3.36885 21.5507 2.68016 22.4041 2.66642Z" fill="#4FB58B"/>
</svg>
