<svg width="304" height="219" viewBox="0 0 304 219" fill="none" xmlns="http://www.w3.org/2000/svg">
<rect x="18.5586" y="0.683594" width="268.127" height="217.632" rx="3.01266" fill="#E9E8E8"/>
<rect x="30.6104" y="36.9565" width="244.025" height="169.27" rx="3.01266" fill="white"/>
<rect x="42.6602" y="49.0469" width="219.924" height="145.088" rx="3.01266" fill="#E9E8E8"/>
<rect x="54.71" y="61.1382" width="61.0063" height="6.04535" rx="3.02267" fill="white"/>
<rect x="54.71" y="73.2275" width="61.0063" height="6.04535" rx="3.02267" fill="white"/>
<rect x="54.71" y="85.3188" width="39.1646" height="6.04535" rx="3.02267" fill="white"/>
<rect x="116.471" y="151.818" width="61.0063" height="6.02532" rx="3.01266" fill="white"/>
<rect x="116.471" y="163.868" width="61.0063" height="6.02532" rx="3.01266" fill="white"/>
<rect x="116.471" y="175.919" width="39.1646" height="6.02532" rx="3.01266" fill="white"/>
<rect x="189.528" y="151.818" width="61.0063" height="6.02532" rx="3.01266" fill="white"/>
<rect x="189.528" y="163.869" width="61.0063" height="6.02532" rx="3.01266" fill="white"/>
<rect x="189.528" y="175.919" width="39.1646" height="6.02532" rx="3.01266" fill="white"/>
<circle cx="36.6357" cy="18.8197" r="6.02532" fill="#BCBBBB"/>
<circle cx="55.4657" cy="18.8197" r="6.02532" fill="#BCBBBB"/>
<circle cx="74.2939" cy="18.8197" r="6.02532" fill="#BCBBBB"/>
<rect x="243.003" y="13.5479" width="31.6329" height="10.5443" rx="5.27215" fill="#CFCECE"/>
<rect x="116.362" y="63.4043" width="186.785" height="36.2721" rx="2.84529" fill="#8133F1"/>
<rect x="123.894" y="75.4551" width="12.0506" height="12.0506" fill="#E9E8E8"/>
<rect x="177.368" y="78.4678" width="25.6076" height="6.02532" rx="3.01266" fill="white"/>
<rect x="209.001" y="78.4678" width="25.6076" height="6.02532" rx="3.01266" fill="white"/>
<rect x="240.634" y="78.4678" width="25.6076" height="6.02532" rx="3.01266" fill="white"/>
<rect x="284.317" y="78.4678" width="11.2975" height="6.02532" rx="3.01266" fill="white"/>
<rect x="0.852539" y="129" width="186.785" height="36.2721" rx="2.84529" fill="#8133F1"/>
<rect x="8.38379" y="141.051" width="12.0506" height="12.0506" fill="#E9E8E8"/>
<rect x="61.8584" y="144.063" width="25.6076" height="6.02532" rx="3.01266" fill="white"/>
<rect x="93.4912" y="144.063" width="25.6076" height="6.02532" rx="3.01266" fill="white"/>
<rect x="125.124" y="144.063" width="25.6076" height="6.02532" rx="3.01266" fill="white"/>
<rect x="168.808" y="144.063" width="11.2975" height="6.02532" rx="3.01266" fill="white"/>
</svg>
