<svg width="138" height="33" viewBox="0 0 138 33" fill="none" xmlns="http://www.w3.org/2000/svg">
<path d="M1.15078 24.3274C0.986304 24.2324 0.851562 23.9995 0.851562 23.8104V8.32749C0.851562 8.1381 0.986304 7.90557 1.15078 7.81035L14.7315 0.0712809C14.8962 -0.0237603 15.1655 -0.0237603 15.3301 0.0712809L28.91 7.81121C29.0747 7.90625 29.2093 8.13879 29.2093 8.32818V23.8111C29.2093 24 29.0747 24.2327 28.91 24.3281L15.3301 32.0674C15.1655 32.1624 14.8962 32.1624 14.7315 32.0674L1.15078 24.3274ZM41.9656 9.86843V16.1484H44.651C46.5999 16.1484 47.4661 15.3544 47.4661 14.0551V11.9617C47.4661 10.6626 46.5999 9.86843 44.651 9.86843H41.9656ZM41.9656 18.1454V23.7517C41.9656 24.0884 41.879 24.2327 41.5758 24.2327H40.2547C39.9732 24.2327 39.8649 24.0884 39.8649 23.7517V8.35276C39.8649 8.0159 39.9732 7.87137 40.2547 7.87137H44.651C48.3758 7.87137 49.5668 9.60376 49.5668 11.5768V14.4402C49.5668 16.413 48.3758 18.1454 44.651 18.1454H41.9656ZM54.454 9.86843V15.7634H57.1392C59.0883 15.7634 59.9547 14.9934 59.9547 13.6701V11.9617C59.9547 10.6626 59.0883 9.86843 57.1392 9.86843H54.454ZM54.454 17.7605V23.7517C54.454 24.0884 54.3672 24.2327 54.064 24.2327H52.743C52.4615 24.2327 52.3533 24.0884 52.3533 23.7517V8.35276C52.3533 8.0159 52.4615 7.87137 52.743 7.87137H57.1392C60.8642 7.87137 62.0552 9.60376 62.0552 11.5768V14.0791C62.0552 15.5468 61.3839 16.8702 59.5214 17.4478L62.1202 23.7517C62.2284 24.0404 62.0335 24.2327 61.7304 24.2327H60.4309C60.1277 24.2327 60.0844 24.0404 59.9547 23.7517L57.5073 17.7605H54.454ZM73.4397 11.7693C73.4397 10.47 72.5255 9.67595 70.4683 9.67595C68.434 9.67595 67.5198 10.47 67.5198 11.7693V20.3348C67.5198 21.6343 68.434 22.4281 70.4683 22.4281C72.5255 22.4281 73.4397 21.6343 73.4397 20.3348V11.7693ZM65.2797 11.3843C65.2797 9.41127 66.5598 7.67905 70.4683 7.67905C74.3997 7.67905 75.68 9.41127 75.68 11.3843V20.72C75.68 22.693 74.3997 24.4254 70.4683 24.4254C66.5598 24.4254 65.2797 22.693 65.2797 20.72V11.3843ZM87.7486 7.87137C88.0458 7.87137 88.1829 7.99184 88.1829 8.32853V9.41127C88.1829 9.74813 88.0458 9.86843 87.7486 9.86843H84.0915V23.7517C84.0915 24.0884 83.9772 24.2327 83.6799 24.2327H82.2629C81.9657 24.2327 81.8514 24.0884 81.8514 23.7517V9.86843H78.1942C77.8743 9.86843 77.76 9.74813 77.76 9.41127V8.32853C77.76 7.99184 77.8743 7.87137 78.1942 7.87137H87.7486ZM98.4008 11.7693C98.4008 10.47 97.4865 9.67595 95.4295 9.67595C93.3951 9.67595 92.4808 10.47 92.4808 11.7693V20.3348C92.4808 21.6343 93.3951 22.4281 95.4295 22.4281C97.4865 22.4281 98.4008 21.6343 98.4008 20.3348V11.7693ZM90.2407 11.3843C90.2407 9.41127 91.5207 7.67905 95.4295 7.67905C99.3609 7.67905 100.641 9.41127 100.641 11.3843V20.72C100.641 22.693 99.3609 24.4254 95.4295 24.4254C91.5207 24.4254 90.2407 22.693 90.2407 20.72V11.3843ZM113.872 23.7756C113.872 24.0884 113.785 24.2327 113.482 24.2327H112.291C112.074 24.2327 111.987 24.1605 111.901 24.0162L106.812 14.1034C106.335 13.2129 106.075 12.467 106.032 12.3708V23.7756C106.032 24.0884 105.924 24.2327 105.642 24.2327H104.429C104.148 24.2327 104.04 24.0884 104.04 23.7756V8.32853C104.04 8.0159 104.148 7.87137 104.429 7.87137H105.642C105.815 7.87137 105.924 7.94355 105.989 8.06385L111.208 18.1936C111.511 18.771 111.879 19.7333 111.879 19.7333V8.32853C111.879 8.0159 112.009 7.87137 112.291 7.87137H113.482C113.785 7.87137 113.872 8.0159 113.872 8.32853V23.7756ZM117.596 24.2327C117.314 24.2327 117.206 24.0884 117.206 23.7517V8.35276C117.206 8.0159 117.314 7.87137 117.596 7.87137H125.002C125.284 7.87137 125.414 7.99184 125.414 8.32853V9.41127C125.414 9.74813 125.284 9.86843 125.002 9.86843H119.306V14.7288H124.612C124.915 14.7288 125.045 14.8491 125.045 15.1859V16.2206C125.045 16.5334 124.915 16.6777 124.612 16.6777H119.306V22.2358H125.24C125.522 22.2358 125.652 22.3321 125.652 22.6688V23.7756C125.652 24.1126 125.522 24.2327 125.24 24.2327H117.596ZM137.588 7.87137C137.87 7.87137 138 7.99184 138 8.32853V9.41127C138 9.74813 137.87 9.86843 137.588 9.86843H134.123V23.7517C134.123 24.0884 134.015 24.2327 133.733 24.2327H132.391C132.109 24.2327 132.001 24.0884 132.001 23.7517V9.86843H128.536C128.233 9.86843 128.124 9.74813 128.124 9.41127V8.32853C128.124 7.99184 128.233 7.87137 128.536 7.87137H137.588Z" fill="#A5A6F6"/>
</svg>
