<svg width="97" height="99" viewBox="0 0 97 99" fill="none" xmlns="http://www.w3.org/2000/svg">
<path d="M35.6593 0.818541C31.0749 0.818541 26.5355 1.72149 22.3001 3.47584C18.0648 5.23018 14.2164 7.80157 10.9748 11.0432C7.73321 14.2848 5.16182 18.1331 3.40747 22.3685C1.65312 26.6039 0.750177 31.1433 0.750177 35.7276L35.6593 35.7276L35.6593 0.818541Z" fill="#B78AF7"/>
<path d="M61.8409 29.1818C57.2566 29.1818 52.7171 30.0848 48.4818 31.8391C44.2464 33.5935 40.3981 36.1648 37.1565 39.4065C33.9148 42.6481 31.3435 46.4964 29.5891 50.7318C27.8348 54.9671 26.9318 59.5066 26.9318 64.0909L61.8409 64.0909L61.8409 29.1818Z" fill="#6200EE"/>
</svg>
