<svg width="36" height="36" viewBox="0 0 36 36" fill="none" xmlns="http://www.w3.org/2000/svg">
<path d="M11.5001 6.83398L7.33343 9.16732L9.66676 5.00065L7.33343 0.833984L11.5001 3.16732L15.6668 0.833984L13.3334 5.00065L15.6668 9.16732L11.5001 6.83398ZM31.5001 23.1673L35.6668 20.834L33.3334 25.0007L35.6668 29.1673L31.5001 26.834L27.3334 29.1673L29.6668 25.0007L27.3334 20.834L31.5001 23.1673ZM35.6668 0.833984L33.3334 5.00065L35.6668 9.16732L31.5001 6.83398L27.3334 9.16732L29.6668 5.00065L27.3334 0.833984L31.5001 3.16732L35.6668 0.833984ZM21.2334 18.8007L25.3001 14.734L21.7668 11.2007L17.7001 15.2673L21.2334 18.8007ZM22.9501 9.65065L26.8501 13.5507C27.5001 14.1673 27.5001 15.2507 26.8501 15.9007L7.4001 35.3507C6.7501 36.0007 5.66676 36.0007 5.0501 35.3507L1.1501 31.4507C0.500098 30.834 0.500098 29.7507 1.1501 29.1007L20.6001 9.65065C21.2501 9.00065 22.3334 9.00065 22.9501 9.65065Z" fill="white"/>
</svg>
