<svg width="25" height="25" viewBox="0 0 25 25" fill="none" xmlns="http://www.w3.org/2000/svg">
<path d="M12.5 7C13.163 7 13.7989 7.26339 14.2678 7.73223C14.7366 8.20107 15 8.83696 15 9.5C15 9.8283 14.9353 10.1534 14.8097 10.4567C14.6841 10.76 14.4999 11.0356 14.2678 11.2678C14.0356 11.4999 13.76 11.6841 13.4567 11.8097C13.1534 11.9353 12.8283 12 12.5 12C11.837 12 11.2011 11.7366 10.7322 11.2678C10.2634 10.7989 10 10.163 10 9.5C10 8.83696 10.2634 8.20107 10.7322 7.73223C11.2011 7.26339 11.837 7 12.5 7ZM12.5 2.5C14.3565 2.5 16.137 3.2375 17.4497 4.55025C18.7625 5.86301 19.5 7.64348 19.5 9.5C19.5 14.75 12.5 22.5 12.5 22.5C12.5 22.5 5.5 14.75 5.5 9.5C5.5 7.64348 6.2375 5.86301 7.55025 4.55025C8.86301 3.2375 10.6435 2.5 12.5 2.5ZM12.5 4.5C11.1739 4.5 9.90215 5.02678 8.96447 5.96447C8.02678 6.90215 7.5 8.17392 7.5 9.5C7.5 10.5 7.5 12.5 12.5 19.21C17.5 12.5 17.5 10.5 17.5 9.5C17.5 8.17392 16.9732 6.90215 16.0355 5.96447C15.0979 5.02678 13.8261 4.5 12.5 4.5Z" fill="white"/>
</svg>
