<svg width="20" height="20" viewBox="0 0 20 20" fill="none" xmlns="http://www.w3.org/2000/svg">
<path d="M10.0001 10V10V11.6667C10.9206 11.6667 11.6667 10.9205 11.6667 10H10.0001ZM10.0001 10V10H8.33342C8.33342 10.9205 9.07961 11.6667 10.0001 11.6667V10ZM10.0001 10V10V8.33337C9.07961 8.33337 8.33342 9.07957 8.33342 10H10.0001ZM10.0001 10V10H11.6667C11.6667 9.07957 10.9206 8.33337 10.0001 8.33337V10ZM10.0001 4.16671V4.16671V5.83337C10.9206 5.83337 11.6667 5.08718 11.6667 4.16671H10.0001ZM10.0001 4.16671V4.16671H8.33342C8.33342 5.08718 9.07961 5.83337 10.0001 5.83337V4.16671ZM10.0001 4.16671V4.16671V2.50004C9.07961 2.50004 8.33342 3.24623 8.33342 4.16671H10.0001ZM10.0001 4.16671V4.16671H11.6667C11.6667 3.24623 10.9206 2.50004 10.0001 2.50004V4.16671ZM10.0001 15.8334V15.8334V17.5C10.9206 17.5 11.6667 16.7538 11.6667 15.8334H10.0001ZM10.0001 15.8334V15.8334H8.33342C8.33342 16.7538 9.07961 17.5 10.0001 17.5V15.8334ZM10.0001 15.8334V15.8334V14.1667C9.07961 14.1667 8.33342 14.9129 8.33342 15.8334H10.0001ZM10.0001 15.8334V15.8334H11.6667C11.6667 14.9129 10.9206 14.1667 10.0001 14.1667V15.8334Z" fill="#98A2B3"/>
</svg>
