<svg width="138" height="30" viewBox="0 0 138 30" fill="none" xmlns="http://www.w3.org/2000/svg">
<path d="M136.595 10.7539C137.671 11.6238 136.532 12.9998 135.583 12.304C134.413 11.5606 131.756 11.2127 131.424 12.8575C130.996 15.4514 137.877 13.9647 137.766 18.1717C137.655 22.1892 131.835 22.2841 129.652 20.481C129.13 20.054 129.146 19.358 129.431 18.9309C129.842 18.5198 130.301 18.3774 130.838 18.8202C132.135 19.706 135.473 20.3703 135.71 18.1244C135.504 15.7835 128.925 17.1912 129.415 12.6994C129.779 9.63099 134.413 9.07736 136.595 10.7539ZM126.219 11.3707V17.0963C126.219 23.0116 116.682 23.0116 116.682 17.0963V11.3707C116.682 9.94737 118.754 9.88405 118.754 11.3707V17.0963C118.754 20.2121 124.147 20.4019 124.147 17.0963V11.3707C124.147 9.96308 126.219 9.85238 126.219 11.3707ZM60.9118 9.93154C63.6796 10.0738 66.574 11.9876 66.574 15.7361C66.574 19.4845 63.6796 21.43 60.9118 21.43C57.9858 21.5565 54.949 19.6111 54.949 15.7361C54.949 11.8452 57.9858 9.93154 60.9118 9.93154ZM74.8463 10.3268C78.8637 10.3268 79.6861 15.7045 76.3331 17.0488L78.4366 19.6111C79.2591 20.829 77.6142 21.9993 76.6652 20.7973L74.277 17.381H71.7938V20.2437C71.7938 21.6197 69.6902 21.6672 69.6902 20.2754V11.2917C69.6902 10.7381 70.1173 10.3268 70.6392 10.3268H74.8463ZM42.074 10.1846C42.5327 10.1846 42.8016 10.4535 43.0705 10.7539L46.55 15.4514L50.1562 10.5799C50.6781 9.93155 51.9592 10.1846 51.9592 11.2759V20.1805C51.9592 20.8764 51.5163 21.2718 51.0102 21.2718C50.4408 21.2718 49.998 20.8764 49.998 20.1805V14.3285L47.3725 17.6499C46.803 18.3458 46.0914 18.3458 45.5694 17.6499L43.2128 14.3285V20.1805C43.2128 20.8764 42.6434 21.2718 42.074 21.2718C41.5679 21.2718 41.125 20.8764 41.125 20.1805V11.2759C41.125 10.4535 41.8209 10.1846 42.074 10.1846ZM86.3136 10.1846C88.3697 10.1846 90.2202 11.5606 90.2202 14.2019C90.2202 16.7009 88.3697 18.0927 86.3136 18.0927H83.6722V20.1805C83.6722 20.8764 83.2294 21.2718 82.66 21.2718C82.1381 21.2718 81.5845 20.8764 81.5845 20.1805V11.2759C81.5845 10.7539 81.9957 10.1846 82.66 10.1846H86.3136ZM101.419 10.3268C101.972 10.3268 102.399 10.7381 102.399 11.3075V20.2912C102.399 20.8447 101.972 21.2718 101.419 21.2718C100.849 21.2718 100.343 20.8447 100.343 20.2912V16.8274H95.1871V20.2912C95.1871 20.8447 94.7758 21.2718 94.2222 21.2718C93.5105 21.2718 93.0993 20.8447 93.0993 20.2912V11.3075C93.0993 10.7381 93.5105 10.3268 94.2222 10.3268C94.7758 10.3268 95.1871 10.7381 95.1871 11.3075V14.7555H100.343V11.3075C100.343 10.7381 100.849 10.3268 101.419 10.3268ZM112.427 10.3268C113.882 10.3268 113.851 12.383 112.427 12.383H107.872V14.7555H111.858C113.266 14.7555 113.266 16.8274 111.858 16.8274H107.872V19.1998H112.696C114.135 19.1998 114.246 21.2718 112.696 21.2718H106.749C106.196 21.2718 105.769 20.8447 105.769 20.2912V11.3075C105.769 10.7381 106.196 10.3268 106.749 10.3268H112.427ZM60.7378 11.9876C58.9664 11.9876 57.0368 13.2372 57.0368 15.7361C57.0368 18.2192 58.9664 19.4845 60.7378 19.4845C62.5567 19.4845 64.5021 18.2192 64.5021 15.7361C64.5021 13.2372 62.5567 11.9876 60.7378 11.9876ZM86.3136 12.1774H83.6722V16.1157H86.3136C87.3732 16.1157 88.2115 15.1825 88.2115 14.2019C88.2115 13.0948 87.3732 12.1774 86.3136 12.1774ZM74.8463 12.2406H71.7938V15.5621H74.8463C76.9024 15.5621 77.029 12.2406 74.8463 12.2406Z" fill="#3DB5E6"/>
<path d="M28.5786 18.6302C27.0366 24.8252 21.3948 29.2327 14.7499 29.2327C8.07501 29.2327 2.48173 24.5643 1.00293 18.3437C2.78111 18.3437 4.44344 18.3518 5.21519 18.3518C5.57924 18.3518 5.64995 18.3582 5.67101 18.3566C6.2517 18.3281 6.97982 18.1364 7.46423 16.9585L9.3101 12.1299L13.4095 22C13.7781 22.7868 14.3934 22.7311 14.7605 22.7311H14.7951C15.5111 22.7311 15.8226 22.4801 16.0948 21.9611L20.7253 12.2039L22.3049 16.6013L22.4012 16.8142C22.7352 17.5468 22.9754 18.2705 23.8019 18.365C23.9723 18.3845 25.9508 18.35 28.6181 18.35C28.6181 18.35 28.6181 18.3671 28.5786 18.6302Z" fill="#3DB5E6"/>
<path d="M29.0313 14.9814C29.0313 15.0551 29.0313 15.2405 29.0298 15.2405H29.0268H24.7695L22.2857 8.30221C22.0646 7.78621 21.7321 7.01265 20.7633 7.01265C20.1706 7.01265 19.635 7.50217 19.3311 8.31002L14.8285 18.7394L10.4944 8.37328C10.0702 7.45261 9.77682 7.01961 8.92834 7.01961C8.35217 7.01961 7.92944 7.23185 7.4691 8.32252L4.89661 15.3435L0.622672 15.339C0.619661 15.2322 0.618164 15.1254 0.618164 15.0186C0.618164 7.21391 6.94558 0.90625 14.7503 0.90625C22.555 0.90625 29.0313 7.17668 29.0313 14.9814Z" fill="#D8292F"/>
</svg>
