<svg width="20" height="16" viewBox="0 0 20 16" fill="none" xmlns="http://www.w3.org/2000/svg">
<path d="M0 0V12H10.32C10.1 11.33 10 10.66 10 10H4C4 8.9 3.11 8 2 8V4C3.11 4 4 3.11 4 2H14C14 3.11 14.9 4 16 4V4.06C16.67 4.06 17.34 4.18 18 4.4V0H0ZM9 3C7.3 3.03 6 4.3 6 6C6 7.7 7.3 8.94 9 9C9.38 9 9.77 8.92 10.14 8.77C10.41 7.67 10.86 6.63 11.97 5.61C11.85 4.28 10.59 2.97 9 3ZM16 5L18.25 7.25L16 9.5V8C14.15 8 12.94 9.96 13.76 11.62L12.67 12.71C10.91 10.05 12.81 6.5 16 6.5V5ZM16 16L13.75 13.75L16 11.5V13C17.85 13 19.06 11.04 18.24 9.38L19.33 8.29C21.09 10.95 19.19 14.5 16 14.5V16Z" fill="white"/>
</svg>
