<svg width="138" height="26" viewBox="0 0 138 26" fill="none" xmlns="http://www.w3.org/2000/svg">
<path d="M3.07972 20.3182C2.05102 20.3204 1.10068 19.7689 0.5922 18.8747C0.0910471 17.9859 0.121099 16.8932 0.670342 16.0334L5.79298 7.98907C6.32676 7.1089 7.29283 6.58399 8.32175 6.61508C9.34991 6.63972 10.2851 7.21619 10.7691 8.12365C11.2466 9.02663 11.187 10.113 10.615 10.9606L5.49561 19.0049C4.96798 19.8271 4.05664 20.3225 3.07972 20.3182Z" fill="#F62B54"/>
<path d="M11.8665 20.3178C10.8333 20.3178 9.8826 19.7654 9.38336 18.8776C8.88332 17.9913 8.91337 16.9013 9.4615 16.0439L14.5744 8.01802C15.1004 7.12521 16.0694 6.58798 17.1053 6.61472C18.1472 6.63751 19.0914 7.22032 19.569 8.13198C20.0432 9.04364 19.9738 10.1365 19.3845 10.982L14.2727 19.0078C13.7467 19.8265 12.8396 20.3203 11.8665 20.3178Z" fill="#FFCC00"/>
<path d="M20.4566 20.3861C21.9132 20.3861 23.0939 19.2301 23.0939 17.8041C23.0939 16.3781 21.9132 15.2222 20.4566 15.2222C19.0001 15.2222 17.8193 16.3781 17.8193 17.8041C17.8193 19.2301 19.0001 20.3861 20.4566 20.3861Z" fill="#00CA72"/>
<path d="M135.028 15.3707C135.824 15.3707 136.301 15.9373 136.301 16.8652V20.0451H137.383V16.7925C137.383 15.2144 136.639 14.2995 135.241 14.2995C134.694 14.2995 133.826 14.4493 133.308 15.4554C133.063 14.8508 132.506 14.4297 131.857 14.3592C131.657 14.3225 131.453 14.3105 131.25 14.3234C130.805 14.3592 130.012 14.636 129.716 15.2633V14.42H128.633V20.0451H129.716V17.0095C129.716 15.8287 130.489 15.3707 131.263 15.3707C131.988 15.3707 132.464 15.9253 132.464 16.8533V20.0451H133.541V17.0095C133.541 16.0697 134.105 15.3599 135.028 15.3707ZM124.657 19.1053C125.152 19.1161 125.63 18.9186 125.976 18.5604C126.323 18.2023 126.508 17.715 126.489 17.2147C126.489 16.0816 125.656 15.3707 124.657 15.3707C123.658 15.3707 122.825 16.0816 122.825 17.2147C122.806 17.7139 122.99 18.2001 123.336 18.5572C123.681 18.9153 124.156 19.1139 124.649 19.1053H124.657ZM124.657 20.1602C123.075 20.1602 121.754 18.9913 121.754 17.2081C121.754 15.425 123.075 14.293 124.657 14.293C126.24 14.293 127.572 15.425 127.572 17.2081C127.572 18.9913 126.232 20.1656 124.65 20.1656L124.657 20.1602ZM116.181 17.2081L116.17 17.2147C116.17 15.4315 117.526 14.2995 119.119 14.293C119.929 14.2774 120.707 14.6055 121.26 15.196L120.44 15.8949C120.088 15.5493 119.612 15.3586 119.119 15.3653C118.121 15.3653 117.252 16.0762 117.252 17.2081C117.252 17.9733 117.707 18.6625 118.405 18.9555C119.103 19.2485 119.906 19.0857 120.44 18.5452L121.272 19.2442C120.717 19.8408 119.934 20.1737 119.119 20.1602C117.538 20.1602 116.181 18.9913 116.181 17.2081ZM112.716 18.9653C112.714 18.7666 112.79 18.5752 112.929 18.4332C113.068 18.2911 113.257 18.21 113.456 18.2077C113.655 18.21 113.844 18.2911 113.983 18.4332C114.122 18.5752 114.199 18.7666 114.196 18.9653C114.176 19.3606 113.852 19.672 113.456 19.6761C113.06 19.672 112.736 19.3606 112.716 18.9653Z" fill="#141414"/>
<path d="M115.677 7.26952H111.823L109.122 14.2339L106.434 7.26952H102.58L107.266 18.2745L104.352 25.5504H108.177L115.677 7.26952ZM92.2386 13.3906C92.2386 15.1488 93.7754 16.3058 95.2851 16.3058C96.7687 16.3058 98.2262 15.2292 98.2262 13.3896C98.2262 11.55 96.7687 10.4723 95.2851 10.4723C93.7754 10.4723 92.2386 11.6303 92.2386 13.3896V13.3906ZM98.2262 19.5356V18.1432C97.4448 19.3262 95.6215 19.7733 94.686 19.7733C91.5885 19.7733 88.49 17.3314 88.49 13.3896C88.49 9.44881 91.5874 7.00688 94.686 7.00688C95.4663 7.00688 97.2896 7.26735 98.2262 8.63483V7.27386H101.819V19.5378L98.2262 19.5367V19.5356ZM87.4676 19.5356H83.8752V18.0119C83.2751 19.1406 81.8197 19.7983 80.3089 19.7983C77.1843 19.7983 74.4244 17.3032 74.4244 13.4395C74.4244 9.50308 77.1843 7.0047 80.3089 7.0047C81.8175 7.0047 83.2772 7.63418 83.8752 8.76399V0.588379H87.4676V19.5356ZM83.7971 13.3624C83.7971 11.5239 82.4698 10.4462 80.9862 10.4462C79.4494 10.4462 78.173 11.6021 78.173 13.3624C78.173 15.1792 79.4494 16.3297 80.9851 16.3297C82.4969 16.3318 83.7971 15.1228 83.7971 13.3624ZM65.5423 13.0455C65.5423 11.181 66.506 10.5504 67.7812 10.5504C69.0044 10.5504 69.89 11.3644 69.89 12.9923V19.5335H73.5084V12.2055C73.5084 8.71298 71.7893 7.0047 69.0554 7.0047C67.6239 7.0047 66.1924 7.81868 65.5412 9.05376V7.26952H61.9249V19.5335H65.5423V13.0455ZM54.5774 19.744C51.1414 19.744 48.2751 17.2229 48.2751 13.3613C48.2751 9.49765 51.1381 7.00145 54.5774 7.00145C58.0168 7.00145 60.9048 9.49765 60.9048 13.3613C60.9048 17.225 58.0135 19.7451 54.5774 19.7451V19.744ZM54.5774 16.1734C56.086 16.1734 57.3374 15.0685 57.3374 13.3624C57.3374 11.7073 56.0871 10.5775 54.5774 10.5775C53.8428 10.566 53.1357 10.8568 52.6217 11.3817C52.1048 11.9094 51.824 12.6241 51.8435 13.3624C51.8446 15.0707 53.0938 16.1734 54.5774 16.1734ZM41.7882 10.5515C42.855 10.5515 43.7927 11.3926 43.7927 12.9934V19.5356H47.3851V12.5702C47.3851 8.86709 45.5846 7.00253 42.6988 7.00253C41.8414 7.00253 40.2264 7.26301 39.0543 9.18183C38.3771 7.76333 37.0758 7.0275 35.1526 7.0275C33.7889 7.02056 32.5471 7.81165 31.977 9.05051V7.27061H28.3564V19.5346H31.9738V13.0455C31.9738 11.181 32.9896 10.5504 34.0825 10.5504C35.1244 10.5504 36.0599 11.3644 36.0871 12.9142V19.5346H39.7055V13.0455C39.7055 11.2624 40.6432 10.5526 41.7882 10.5526V10.5515Z" fill="#141414"/>
</svg>
