<svg width="100" height="100" viewBox="0 0 100 100" fill="none" xmlns="http://www.w3.org/2000/svg">
<circle cx="50" cy="50" r="50" fill="url(#paint0_linear_73_6942)"/>
<path d="M59.7627 64.8188C62.9689 64.8188 65.5814 62.2062 65.5814 59C65.5814 55.7938 62.9689 53.1812 59.7627 53.1812C56.5327 53.1812 53.9439 55.7938 53.9439 59C53.9439 62.2062 56.5327 64.8188 59.7627 64.8188ZM72.1127 60.615L75.6277 63.37C75.9364 63.6312 76.0314 64.0588 75.8176 64.4388L72.4927 70.1862C72.2789 70.5425 71.8751 70.685 71.4714 70.5425L67.3389 68.88C66.4839 69.545 65.5339 70.0913 64.5364 70.5187L63.8952 74.9125C63.8477 75.3163 63.4914 75.625 63.0877 75.625H56.4377C56.0102 75.625 55.6777 75.3163 55.6064 74.9125L54.9889 70.5187C53.9677 70.0913 53.0414 69.545 52.1864 68.88L48.0302 70.5425C47.6739 70.685 47.2227 70.5425 47.0327 70.1862L43.7077 64.4388C43.4939 64.0588 43.5889 63.6312 43.8977 63.37L47.4127 60.615L47.2939 59L47.4127 57.3613L43.8977 54.63C43.5889 54.3687 43.4939 53.9175 43.7077 53.5613L47.0327 47.8137C47.2227 47.4338 47.6739 47.2913 48.0302 47.4338L52.1864 49.12C53.0414 48.455 53.9677 47.885 54.9889 47.4812L55.6064 43.0637C55.6777 42.6838 56.0102 42.375 56.4377 42.375H63.0877C63.4914 42.375 63.8477 42.6838 63.8952 43.0637L64.5364 47.4812C65.5339 47.885 66.4839 48.455 67.3389 49.12L71.4714 47.4338C71.8751 47.2913 72.2789 47.4338 72.4927 47.8137L75.8176 53.5613C76.0314 53.9175 75.9364 54.3687 75.6277 54.63L72.1127 57.3613L72.2314 59L72.1127 60.615ZM37.8889 40.1662C39.9552 40.1662 41.6177 38.5037 41.6177 36.4375C41.6177 34.3713 39.9552 32.685 37.8889 32.685C36.8937 32.685 35.9392 33.0804 35.2355 33.7841C34.5318 34.4878 34.1364 35.4423 34.1364 36.4375C34.1364 38.5037 35.8227 40.1662 37.8889 40.1662ZM45.8214 37.4825L48.1252 39.24C48.2914 39.4062 48.3389 39.6912 48.1964 39.9287L46.0589 43.6337C45.9402 43.8713 45.6552 43.9662 45.4177 43.8713L42.7577 42.8025L41.0002 43.8475L40.5489 46.6738C40.5014 46.935 40.2877 47.125 40.0264 47.125H35.7514C35.4664 47.125 35.2527 46.935 35.2052 46.6738L34.8252 43.8475L33.0202 42.8025L30.3127 43.8713C30.0989 43.9662 29.8377 43.8713 29.6952 43.6337L27.5577 39.9287C27.4152 39.6912 27.4864 39.4062 27.6764 39.24L29.9327 37.4825L29.8614 36.4375L29.9327 35.3925L27.6764 33.635C27.4864 33.4688 27.4152 33.1838 27.5577 32.9463L29.6952 29.2413C29.8377 29.0038 30.0989 28.9087 30.3127 29.0037L32.9964 30.0725L34.8252 29.0275L35.2052 26.2013C35.2527 25.94 35.4664 25.75 35.7514 25.75H40.0264C40.2877 25.75 40.5014 25.94 40.5489 26.2013L41.0002 29.0275L42.7577 30.0725L45.4177 29.0037C45.6552 28.9087 45.9402 29.0038 46.0589 29.2413L48.1964 32.9463C48.3389 33.1838 48.2914 33.4688 48.1252 33.635L45.8214 35.3925L45.8927 36.4375L45.8214 37.4825Z" fill="white"/>
<defs>
<linearGradient id="paint0_linear_73_6942" x1="50" y1="0" x2="50" y2="100" gradientUnits="userSpaceOnUse">
<stop stop-color="#9654F4"/>
<stop offset="1" stop-color="#57318E"/>
</linearGradient>
</defs>
</svg>
