<svg width="40" height="41" viewBox="0 0 40 41" fill="none" xmlns="http://www.w3.org/2000/svg">
<path d="M20 2.16602L5 8.83268V18.8327C5 28.0827 11.4 36.7327 20 38.8327C28.6 36.7327 35 28.0827 35 18.8327V8.83268L20 2.16602ZM20 12.166C22.3333 12.166 24.6667 13.9993 24.6667 16.3327V18.8327C25.6667 18.8327 26.6667 19.8327 26.6667 20.9993V26.8327C26.6667 27.8327 25.6667 28.8327 24.5 28.8327H15.3333C14.3333 28.8327 13.3333 27.8327 13.3333 26.666V20.8327C13.3333 19.8327 14.3333 18.8327 15.3333 18.8327V16.3327C15.3333 13.9993 17.6667 12.166 20 12.166ZM20 14.166C18.6667 14.166 17.5 14.9993 17.5 16.3327V18.8327H22.5V16.3327C22.5 14.9993 21.3333 14.166 20 14.166Z" fill="white"/>
</svg>
