<svg width="34" height="35" viewBox="0 0 34 35" fill="none" xmlns="http://www.w3.org/2000/svg">
<path d="M30.3335 17.5007C30.3335 13.9644 28.9287 10.573 26.4283 8.07256C23.9278 5.57208 20.5364 4.16732 17.0002 4.16732C13.4639 4.16732 10.0726 5.57208 7.57207 8.07256C5.07159 10.573 3.66683 13.9644 3.66683 17.5007C3.66683 21.0369 5.07159 24.4283 7.57207 26.9287C10.0726 29.4292 13.4639 30.834 17.0002 30.834C20.5364 30.834 23.9278 29.4292 26.4283 26.9287C28.9287 24.4283 30.3335 21.0369 30.3335 17.5007ZM33.6668 17.5007C33.6668 21.9209 31.9109 26.1602 28.7853 29.2858C25.6597 32.4114 21.4204 34.1673 17.0002 34.1673C14.8115 34.1673 12.6442 33.7362 10.6221 32.8986C8.60001 32.0611 6.76269 30.8334 5.21505 29.2858C2.08944 26.1602 0.333496 21.9209 0.333496 17.5007C0.333496 13.0804 2.08944 8.84114 5.21505 5.71554C8.34066 2.58993 12.5799 0.833984 17.0002 0.833984C19.1889 0.833984 21.3561 1.26508 23.3782 2.10266C25.4003 2.94024 27.2376 4.16789 28.7853 5.71554C30.3329 7.26318 31.5606 9.1005 32.3982 11.1226C33.2357 13.1447 33.6668 15.312 33.6668 17.5007ZM13.6668 13.334C13.6668 14.6673 12.5002 15.834 11.1668 15.834C9.8335 15.834 8.66683 14.6673 8.66683 13.334C8.66683 12.0007 9.8335 10.834 11.1668 10.834C12.5002 10.834 13.6668 12.0007 13.6668 13.334ZM25.3335 13.334C25.3335 14.6673 24.1668 15.834 22.8335 15.834C21.5002 15.834 20.3335 14.6673 20.3335 13.334C20.3335 12.0007 21.5002 10.834 22.8335 10.834C24.1668 10.834 25.3335 12.0007 25.3335 13.334ZM17.0002 26.2173C14.0835 26.2173 11.5168 25.0007 10.0168 23.2007L12.3835 20.834C13.1335 22.034 14.9168 22.884 17.0002 22.884C19.0835 22.884 20.8668 22.034 21.6168 20.834L23.9835 23.2007C22.4835 25.0007 19.9168 26.2173 17.0002 26.2173Z" fill="white"/>
</svg>
