<svg width="146" height="29" viewBox="0 0 146 29" fill="none" xmlns="http://www.w3.org/2000/svg">
<path d="M14.2989 2.92705C14.5983 2.00574 15.9017 2.00574 16.2011 2.92705L18.2809 9.32827C18.4148 9.74029 18.7988 10.0193 19.232 10.0193L25.9626 10.0193C26.9314 10.0193 27.3341 11.2589 26.5504 11.8283L21.1052 15.7844C20.7547 16.0391 20.6081 16.4905 20.7419 16.9025L22.8218 23.3037C23.1212 24.225 22.0667 24.9911 21.283 24.4217L15.8378 20.4656C15.4873 20.2109 15.0127 20.2109 14.6622 20.4656L9.21701 24.4217C8.4333 24.9911 7.37882 24.225 7.67817 23.3037L9.75805 16.9025C9.89193 16.4905 9.74527 16.0391 9.39478 15.7844L3.94958 11.8283C3.16586 11.2589 3.56864 10.0193 4.53736 10.0193L11.268 10.0193C11.7012 10.0193 12.0852 9.74029 12.2191 9.32827L14.2989 2.92705Z" fill="#F9896B"/>
<path d="M43.2989 2.92705C43.5983 2.00574 44.9017 2.00574 45.2011 2.92705L47.2809 9.32827C47.4148 9.74029 47.7988 10.0193 48.232 10.0193L54.9626 10.0193C55.9314 10.0193 56.3341 11.2589 55.5504 11.8283L50.1052 15.7844C49.7547 16.0391 49.6081 16.4905 49.7419 16.9025L51.8218 23.3037C52.1212 24.225 51.0667 24.9911 50.283 24.4217L44.8378 20.4656C44.4873 20.2109 44.0127 20.2109 43.6622 20.4656L38.217 24.4217C37.4333 24.9911 36.3788 24.225 36.6782 23.3037L38.7581 16.9025C38.8919 16.4905 38.7453 16.0391 38.3948 15.7844L32.9496 11.8283C32.1659 11.2589 32.5686 10.0193 33.5374 10.0193L40.268 10.0193C40.7012 10.0193 41.0852 9.74029 41.2191 9.32827L43.2989 2.92705Z" fill="#F9896B"/>
<path d="M72.2989 2.92705C72.5983 2.00574 73.9017 2.00574 74.2011 2.92705L76.2809 9.32827C76.4148 9.74029 76.7988 10.0193 77.232 10.0193L83.9626 10.0193C84.9314 10.0193 85.3341 11.2589 84.5504 11.8283L79.1052 15.7844C78.7547 16.0391 78.6081 16.4905 78.7419 16.9025L80.8218 23.3037C81.1212 24.225 80.0667 24.9911 79.283 24.4217L73.8378 20.4656C73.4873 20.2109 73.0127 20.2109 72.6622 20.4656L67.217 24.4217C66.4333 24.9911 65.3788 24.225 65.6782 23.3037L67.7581 16.9025C67.8919 16.4905 67.7453 16.0391 67.3948 15.7844L61.9496 11.8283C61.1659 11.2589 61.5686 10.0193 62.5374 10.0193L69.268 10.0193C69.7012 10.0193 70.0852 9.74029 70.2191 9.32827L72.2989 2.92705Z" fill="#F9896B"/>
<path d="M101.299 2.92705C101.598 2.00574 102.902 2.00574 103.201 2.92705L105.281 9.32827C105.415 9.74029 105.799 10.0193 106.232 10.0193L112.963 10.0193C113.931 10.0193 114.334 11.2589 113.55 11.8283L108.105 15.7844C107.755 16.0391 107.608 16.4905 107.742 16.9025L109.822 23.3037C110.121 24.225 109.067 24.9911 108.283 24.4217L102.838 20.4656C102.487 20.2109 102.013 20.2109 101.662 20.4656L96.217 24.4217C95.4333 24.9911 94.3788 24.225 94.6782 23.3037L96.7581 16.9025C96.8919 16.4905 96.7453 16.0391 96.3948 15.7844L90.9496 11.8283C90.1659 11.2589 90.5686 10.0193 91.5374 10.0193L98.268 10.0193C98.7012 10.0193 99.0852 9.74029 99.2191 9.32827L101.299 2.92705Z" fill="#F9896B"/>
<path d="M130.299 2.92705C130.598 2.00574 131.902 2.00574 132.201 2.92705L134.281 9.32827C134.415 9.74029 134.799 10.0193 135.232 10.0193L141.963 10.0193C142.931 10.0193 143.334 11.2589 142.55 11.8283L137.105 15.7844C136.755 16.0391 136.608 16.4905 136.742 16.9025L138.822 23.3037C139.121 24.225 138.067 24.9911 137.283 24.4217L131.838 20.4656C131.487 20.2109 131.013 20.2109 130.662 20.4656L125.217 24.4217C124.433 24.9911 123.379 24.225 123.678 23.3037L125.758 16.9025C125.892 16.4905 125.745 16.0391 125.395 15.7844L119.95 11.8283C119.166 11.2589 119.569 10.0193 120.537 10.0193L127.268 10.0193C127.701 10.0193 128.085 9.74029 128.219 9.32827L130.299 2.92705Z" fill="#F9896B"/>
</svg>
