<svg width="149" height="148" viewBox="0 0 149 148" fill="none" xmlns="http://www.w3.org/2000/svg">
<g opacity="0.3">
<path d="M0.75 0H4.75V4H0.75V0Z" fill="#C4C4C4"/>
<path d="M24.75 0H28.75V4H24.75V0Z" fill="#C4C4C4"/>
<path d="M48.75 0H52.75V4H48.75V0Z" fill="#C4C4C4"/>
<path d="M72.75 0H76.75V4H72.75V0Z" fill="#C4C4C4"/>
<path d="M96.75 0H100.75V4H96.75V0Z" fill="#C4C4C4"/>
<path d="M120.75 0H124.75V4H120.75V0Z" fill="#C4C4C4"/>
<path d="M144.75 0H148.75V4H144.75V0Z" fill="#C4C4C4"/>
<path d="M0.75 24H4.75V28H0.75V24Z" fill="#C4C4C4"/>
<path d="M24.75 24H28.75V28H24.75V24Z" fill="#C4C4C4"/>
<path d="M48.75 24H52.75V28H48.75V24Z" fill="#C4C4C4"/>
<path d="M72.75 24H76.75V28H72.75V24Z" fill="#C4C4C4"/>
<path d="M96.75 24H100.75V28H96.75V24Z" fill="#C4C4C4"/>
<path d="M120.75 24H124.75V28H120.75V24Z" fill="#C4C4C4"/>
<path d="M144.75 24H148.75V28H144.75V24Z" fill="#C4C4C4"/>
<path d="M0.75 48H4.75V52H0.75V48Z" fill="#C4C4C4"/>
<path d="M24.75 48H28.75V52H24.75V48Z" fill="#C4C4C4"/>
<path d="M48.75 48H52.75V52H48.75V48Z" fill="#C4C4C4"/>
<path d="M72.75 48H76.75V52H72.75V48Z" fill="#C4C4C4"/>
<path d="M96.75 48H100.75V52H96.75V48Z" fill="#C4C4C4"/>
<path d="M120.75 48H124.75V52H120.75V48Z" fill="#C4C4C4"/>
<path d="M144.75 48H148.75V52H144.75V48Z" fill="#C4C4C4"/>
<path d="M0.75 72H4.75V76H0.75V72Z" fill="#C4C4C4"/>
<path d="M24.75 72H28.75V76H24.75V72Z" fill="#C4C4C4"/>
<path d="M48.75 72H52.75V76H48.75V72Z" fill="#C4C4C4"/>
<path d="M72.75 72H76.75V76H72.75V72Z" fill="#C4C4C4"/>
<path d="M96.75 72H100.75V76H96.75V72Z" fill="#C4C4C4"/>
<path d="M120.75 72H124.75V76H120.75V72Z" fill="#C4C4C4"/>
<path d="M144.75 72H148.75V76H144.75V72Z" fill="#C4C4C4"/>
<path d="M0.75 96H4.75V100H0.75V96Z" fill="#C4C4C4"/>
<path d="M24.75 96H28.75V100H24.75V96Z" fill="#C4C4C4"/>
<path d="M48.75 96H52.75V100H48.75V96Z" fill="#C4C4C4"/>
<path d="M72.75 96H76.75V100H72.75V96Z" fill="#C4C4C4"/>
<path d="M96.75 96H100.75V100H96.75V96Z" fill="#C4C4C4"/>
<path d="M120.75 96H124.75V100H120.75V96Z" fill="#C4C4C4"/>
<path d="M144.75 96H148.75V100H144.75V96Z" fill="#C4C4C4"/>
<path d="M0.75 120H4.75V124H0.75V120Z" fill="#C4C4C4"/>
<path d="M24.75 120H28.75V124H24.75V120Z" fill="#C4C4C4"/>
<path d="M48.75 120H52.75V124H48.75V120Z" fill="#C4C4C4"/>
<path d="M72.75 120H76.75V124H72.75V120Z" fill="#C4C4C4"/>
<path d="M96.75 120H100.75V124H96.75V120Z" fill="#C4C4C4"/>
<path d="M120.75 120H124.75V124H120.75V120Z" fill="#C4C4C4"/>
<path d="M144.75 120H148.75V124H144.75V120Z" fill="#C4C4C4"/>
<path d="M0.75 144H4.75V148H0.75V144Z" fill="#C4C4C4"/>
<path d="M24.75 144H28.75V148H24.75V144Z" fill="#C4C4C4"/>
<path d="M48.75 144H52.75V148H48.75V144Z" fill="#C4C4C4"/>
<path d="M72.75 144H76.75V148H72.75V144Z" fill="#C4C4C4"/>
<path d="M96.75 144H100.75V148H96.75V144Z" fill="#C4C4C4"/>
<path d="M120.75 144H124.75V148H120.75V144Z" fill="#C4C4C4"/>
<path d="M144.75 144H148.75V148H144.75V144Z" fill="#C4C4C4"/>
</g>
</svg>
